<svg width="56" height="58" viewBox="0 0 56 58" fill="none" xmlns="http://www.w3.org/2000/svg">
<path fill-rule="evenodd" clip-rule="evenodd" d="M51.4688 6.375C51.4688 5.91009 51.0908 5.53125 50.625 5.53125C50.1592 5.53125 49.7812 5.91009 49.7812 6.375C49.7812 6.83991 50.1592 7.21875 50.625 7.21875C51.0908 7.21875 51.4688 6.83991 51.4688 6.375Z" fill="white"/>
<path d="M3.375 54.4688C2.90925 54.4688 2.53125 54.0908 2.53125 53.625C2.53125 53.1592 2.90925 52.7812 3.375 52.7812C3.84075 52.7812 4.21875 53.1592 4.21875 53.625C4.21875 54.0908 3.84075 54.4688 3.375 54.4688Z" fill="white"/>
<path fill-rule="evenodd" clip-rule="evenodd" d="M49.0227 37.7558C50.6005 39.5934 51.4688 41.9332 51.4688 44.3438C51.4688 46.4236 50.8368 48.3575 49.7576 49.9673C49.637 48.2208 48.4363 46.6987 46.7353 46.2118L43.875 45.3951V45.1698C44.9263 44.3775 45.5625 43.1313 45.5625 41.8125V40.2997C45.5625 38.0317 43.8742 36.1096 41.7192 35.9223C40.5354 35.8193 39.3618 36.2184 38.4936 37.0141C37.6237 37.8123 37.125 38.9463 37.125 40.125V41.8125C37.125 43.1313 37.7612 44.3775 38.8125 45.1698V45.3951L35.9522 46.2118C34.2562 46.697 33.0581 48.2107 32.9307 49.9496C31.8254 48.2925 31.2188 46.3451 31.2188 44.3438C31.2188 38.7607 35.7607 34.2188 41.3438 34.2188C43.7543 34.2188 46.0941 35.087 47.9317 36.6648L49.0312 35.384C46.888 33.5446 44.1577 32.5312 41.3438 32.5312C38.3898 32.5312 35.6932 33.6281 33.6201 35.427L29.8974 31.7044C30.1936 31.2015 30.375 30.6244 30.375 30C30.375 29.3756 30.1936 28.7985 29.8966 28.2965L39.2588 18.9342C40.0866 19.524 41.0957 19.875 42.1875 19.875C42.7477 19.875 43.2861 19.7797 43.7898 19.6109L47.0737 25.7694C46.6636 26.2192 46.4062 26.8123 46.4062 27.4688C46.4062 28.8643 47.5419 30 48.9375 30C50.3331 30 51.4688 28.8643 51.4688 27.4688C51.4688 26.0732 50.3331 24.9375 48.9375 24.9375C48.8145 24.9375 48.6954 24.9556 48.5772 24.9735L48.5646 24.9755L45.2782 18.8136C46.4746 17.8863 47.25 16.4401 47.25 14.8125C47.25 13.7207 46.899 12.7116 46.3092 11.8838L49.5408 8.65312C49.8707 8.81006 50.2352 8.90625 50.625 8.90625C52.0206 8.90625 53.1562 7.77056 53.1562 6.375C53.1562 4.97944 52.0206 3.84375 50.625 3.84375C49.2294 3.84375 48.0938 4.97944 48.0938 6.375C48.0938 6.76481 48.1891 7.12931 48.3477 7.45922L45.1162 10.6899C44.2884 10.101 43.2793 9.75 42.1875 9.75C41.0957 9.75 40.0866 10.101 39.2588 10.6908L36.0273 7.46006C36.1859 7.12931 36.2812 6.76481 36.2812 6.375C36.2812 4.97944 35.1456 3.84375 33.75 3.84375C32.3544 3.84375 31.2188 4.97944 31.2188 6.375C31.2188 7.77056 32.3544 8.90625 33.75 8.90625C34.1398 8.90625 34.5043 8.81006 34.8342 8.65228L38.0658 11.883C37.476 12.7116 37.125 13.7207 37.125 14.8125C37.125 15.9043 37.476 16.9134 38.0658 17.7412L28.7035 27.1034C28.2015 26.8064 27.6244 26.625 27 26.625C26.3756 26.625 25.7985 26.8072 25.2965 27.1034L21.5612 23.3681C23.3677 21.2866 24.4688 18.5849 24.4688 15.6562C24.4688 9.5205 19.6746 4.35084 13.5548 3.88847L13.4283 5.57091C18.673 5.96747 22.7812 10.398 22.7812 15.6562C22.7812 17.7125 22.1468 19.6379 21.0676 21.2486C20.9351 19.5147 19.7387 18.0069 18.0478 17.5243L15.1875 16.7076V16.4831C16.2388 15.6908 16.875 14.4446 16.875 13.1258V11.6138C16.875 9.34584 15.1867 7.42378 13.0317 7.23647C11.8471 7.13269 10.6743 7.53178 9.80606 8.32828C8.93616 9.12478 8.4375 10.2588 8.4375 11.4375V13.125C8.4375 14.4438 9.07369 15.6908 10.125 16.4823V16.7067L7.26469 17.5243C5.57297 18.0069 4.37653 19.5147 4.24491 21.2486C3.16575 19.6379 2.53125 17.7125 2.53125 15.6562C2.53125 10.398 6.63947 5.96747 11.8842 5.57091L11.7577 3.88847C5.63794 4.35084 0.84375 9.5205 0.84375 15.6562C0.84375 21.792 5.63794 26.9617 11.7577 27.424L11.8842 25.7416C9.20784 25.5391 6.83269 24.2827 5.14266 22.4062H20.1698C18.4807 24.2827 16.1047 25.5391 13.4283 25.7416L13.5548 27.424C16.157 27.2274 18.5136 26.1736 20.3698 24.5629L24.1026 28.2965C23.8064 28.7985 23.625 29.3765 23.625 30C23.625 30.6244 23.8064 31.2015 24.1034 31.7035L19.4223 36.3847L14.7412 41.0658C13.9134 40.476 12.9043 40.125 11.8125 40.125C10.8852 40.125 10.0178 40.3798 9.26944 40.8169L5.54428 36.3467C5.76872 35.9687 5.90625 35.5333 5.90625 35.0625C5.90625 33.6669 4.77056 32.5312 3.375 32.5312C1.97944 32.5312 0.84375 33.6669 0.84375 35.0625C0.84375 36.4581 1.97944 37.5938 3.375 37.5938C3.68297 37.5938 3.97491 37.5305 4.24828 37.4292L7.97175 41.8986C7.21237 42.7837 6.75 43.932 6.75 45.1875C6.75 46.2793 7.101 47.2884 7.69078 48.1162L4.45922 51.3477C4.12931 51.1891 3.76481 51.0938 3.375 51.0938C1.97944 51.0938 0.84375 52.2294 0.84375 53.625C0.84375 55.0206 1.97944 56.1562 3.375 56.1562C4.77056 56.1562 5.90625 55.0206 5.90625 53.625C5.90625 53.2352 5.81091 52.8707 5.65228 52.5408L8.88384 49.3092C9.71156 49.899 10.7207 50.25 11.8125 50.25C13.2621 50.25 14.5682 49.6341 15.4921 48.6545L19.4915 51.3207C19.4408 51.519 19.4062 51.7232 19.4062 51.9375C19.4062 53.3331 20.5419 54.4688 21.9375 54.4688C23.3331 54.4688 24.4688 53.3331 24.4688 51.9375C24.4688 50.5419 23.3331 49.4062 21.9375 49.4062C21.3697 49.4062 20.8507 49.6003 20.428 49.9176L16.4303 47.2522C16.7138 46.621 16.875 45.9232 16.875 45.1875C16.875 44.0957 16.524 43.0866 15.9342 42.2588L25.2965 32.8966C25.7985 33.1936 26.3756 33.375 27 33.375C27.6244 33.375 28.2015 33.1936 28.7035 32.8966L32.4262 36.6192C30.6281 38.6932 29.5312 41.3898 29.5312 44.3438C29.5312 47.1577 30.5446 49.888 32.3848 52.0303L33.4758 51.0938H48.8692C47.0146 53.1592 44.3323 54.4688 41.3438 54.4688C38.9332 54.4688 36.5934 53.6005 34.7558 52.0227L33.6563 53.3035C35.7995 55.1429 38.5298 56.1562 41.3438 56.1562C47.8575 56.1562 53.1562 50.8575 53.1562 44.3438C53.1562 41.5298 52.1429 38.7995 50.3027 36.6572L49.0227 37.7558ZM48.9375 28.3125C49.4033 28.3125 49.7812 27.9337 49.7812 27.4688C49.7812 27.0038 49.4033 26.625 48.9375 26.625C48.4717 26.625 48.0938 27.0038 48.0938 27.4688C48.0938 27.9337 48.4717 28.3125 48.9375 28.3125ZM7.72791 19.1468C6.93731 19.373 6.32222 19.972 6.05391 20.7188H19.2586C18.9903 19.972 18.376 19.373 17.5846 19.1468L13.5 17.9799V15.5466L13.9193 15.3027C14.7133 14.8403 15.1875 14.0261 15.1875 13.125V11.613C15.1875 10.2124 14.1767 9.02859 12.8857 8.91638C12.1677 8.85478 11.475 9.08681 10.9468 9.57113C10.4237 10.0495 10.125 10.7304 10.125 11.4375V13.125C10.125 14.0261 10.5992 14.8403 11.3932 15.3027L11.8125 15.5466V17.9799L7.72791 19.1468ZM22.7812 51.9375C22.7812 51.4717 22.4032 51.0938 21.9375 51.0938C21.4718 51.0938 21.0938 51.4717 21.0938 51.9375C21.0938 52.4033 21.4718 52.7812 21.9375 52.7812C22.4032 52.7812 22.7812 52.4033 22.7812 51.9375ZM51.4688 6.375C51.4688 5.91009 51.0908 5.53125 50.625 5.53125C50.1592 5.53125 49.7812 5.91009 49.7812 6.375C49.7812 6.83991 50.1592 7.21875 50.625 7.21875C51.0908 7.21875 51.4688 6.83991 51.4688 6.375ZM45.5625 14.8125C45.5625 12.9512 44.0488 11.4375 42.1875 11.4375C40.3262 11.4375 38.8125 12.9512 38.8125 14.8125C38.8125 16.6738 40.3262 18.1875 42.1875 18.1875C44.0488 18.1875 45.5625 16.6738 45.5625 14.8125ZM32.9062 6.375C32.9062 6.83991 33.2842 7.21875 33.75 7.21875C34.2158 7.21875 34.5938 6.83991 34.5938 6.375C34.5938 5.91009 34.2158 5.53125 33.75 5.53125C33.2842 5.53125 32.9062 5.91009 32.9062 6.375ZM3.375 34.2188C2.90925 34.2188 2.53125 34.5968 2.53125 35.0625C2.53125 35.5282 2.90925 35.9062 3.375 35.9062C3.84075 35.9062 4.21875 35.5282 4.21875 35.0625C4.21875 34.5968 3.84075 34.2188 3.375 34.2188ZM2.53125 53.625C2.53125 54.0908 2.90925 54.4688 3.375 54.4688C3.84075 54.4688 4.21875 54.0908 4.21875 53.625C4.21875 53.1592 3.84075 52.7812 3.375 52.7812C2.90925 52.7812 2.53125 53.1592 2.53125 53.625ZM8.4375 45.1875C8.4375 47.0488 9.95119 48.5625 11.8125 48.5625C13.6738 48.5625 15.1875 47.0488 15.1875 45.1875C15.1875 43.3262 13.6738 41.8125 11.8125 41.8125C9.95119 41.8125 8.4375 43.3262 8.4375 45.1875ZM27 28.3125C26.0693 28.3125 25.3125 29.0693 25.3125 30C25.3125 30.9307 26.0693 31.6875 27 31.6875C27.9307 31.6875 28.6875 30.9307 28.6875 30C28.6875 29.0693 27.9307 28.3125 27 28.3125ZM36.4154 47.8352C35.6248 48.0605 35.0097 48.6595 34.7414 49.4062H47.9461C47.6778 48.6604 47.0627 48.0613 46.2721 47.8352L42.1875 46.6674V44.2341L42.6068 43.9902C43.4008 43.5278 43.875 42.7136 43.875 41.8125V40.2997C43.875 38.8999 42.8642 37.7161 41.5732 37.6039C40.8552 37.5423 40.1625 37.7743 39.6343 38.2586C39.1112 38.737 38.8125 39.4171 38.8125 40.125V41.8125C38.8125 42.7136 39.2867 43.5278 40.0807 43.9902L40.5 44.2341V46.6674L36.4154 47.8352Z" fill="white"/>
<path d="M21.9375 51.0938C22.4032 51.0938 22.7812 51.4717 22.7812 51.9375C22.7812 52.4033 22.4032 52.7812 21.9375 52.7812C21.4718 52.7812 21.0938 52.4033 21.0938 51.9375C21.0938 51.4717 21.4718 51.0938 21.9375 51.0938Z" fill="white"/>
<path d="M34.7414 49.4062C35.0097 48.6595 35.6248 48.0605 36.4154 47.8352L40.5 46.6674V44.2341L40.0807 43.9902C39.2867 43.5278 38.8125 42.7136 38.8125 41.8125V40.125C38.8125 39.4171 39.1112 38.737 39.6343 38.2586C40.1625 37.7743 40.8552 37.5423 41.5732 37.6039C42.8642 37.7161 43.875 38.8999 43.875 40.2997V41.8125C43.875 42.7136 43.4008 43.5278 42.6068 43.9902L42.1875 44.2341V46.6674L46.2721 47.8352C47.0627 48.0613 47.6778 48.6604 47.9461 49.4062H34.7414Z" fill="white"/>
<path d="M11.8125 48.5625C9.95119 48.5625 8.4375 47.0488 8.4375 45.1875C8.4375 43.3262 9.95119 41.8125 11.8125 41.8125C13.6738 41.8125 15.1875 43.3262 15.1875 45.1875C15.1875 47.0488 13.6738 48.5625 11.8125 48.5625Z" fill="white"/>
<path d="M48.5646 24.9755L45.2782 18.8136C46.4746 17.8863 47.25 16.4401 47.25 14.8125C47.25 13.7207 46.899 12.7116 46.3092 11.8838L49.5408 8.65312C49.8707 8.81006 50.2352 8.90625 50.625 8.90625C52.0206 8.90625 53.1562 7.77056 53.1562 6.375C53.1562 4.97944 52.0206 3.84375 50.625 3.84375C49.2294 3.84375 48.0938 4.97944 48.0938 6.375C48.0938 6.76481 48.1891 7.12931 48.3477 7.45922L45.1162 10.6899C44.2884 10.101 43.2793 9.75 42.1875 9.75C41.0957 9.75 40.0866 10.101 39.2588 10.6908L36.0273 7.46006C36.1859 7.12931 36.2812 6.76481 36.2812 6.375C36.2812 4.97944 35.1456 3.84375 33.75 3.84375C32.3544 3.84375 31.2188 4.97944 31.2188 6.375C31.2188 7.77056 32.3544 8.90625 33.75 8.90625C34.1398 8.90625 34.5043 8.81006 34.8342 8.65228L38.0658 11.883C37.476 12.7116 37.125 13.7207 37.125 14.8125C37.125 15.9043 37.476 16.9134 38.0658 17.7412L28.7035 27.1034C28.2015 26.8064 27.6244 26.625 27 26.625C26.3756 26.625 25.7985 26.8072 25.2965 27.1034L21.5612 23.3681C23.3677 21.2866 24.4688 18.5849 24.4688 15.6562C24.4688 9.5205 19.6746 4.35084 13.5548 3.88847L13.4283 5.57091C18.673 5.96747 22.7812 10.398 22.7812 15.6562C22.7812 17.7125 22.1468 19.6379 21.0676 21.2486C20.9351 19.5147 19.7387 18.0069 18.0478 17.5243L15.1875 16.7076V16.4831C16.2388 15.6908 16.875 14.4446 16.875 13.1258V11.6138C16.875 9.34584 15.1867 7.42378 13.0317 7.23647C11.8471 7.13269 10.6743 7.53178 9.80606 8.32828C8.93616 9.12478 8.4375 10.2588 8.4375 11.4375V13.125C8.4375 14.4438 9.07369 15.6908 10.125 16.4823V16.7067L7.26469 17.5243C5.57297 18.0069 4.37653 19.5147 4.24491 21.2486C3.16575 19.6379 2.53125 17.7125 2.53125 15.6562C2.53125 10.398 6.63947 5.96747 11.8842 5.57091L11.7577 3.88847C5.63794 4.35084 0.84375 9.5205 0.84375 15.6562C0.84375 21.792 5.63794 26.9617 11.7577 27.424L11.8842 25.7416C9.20784 25.5391 6.83269 24.2828 5.14266 22.4062H20.1698C18.4807 24.2828 16.1047 25.5391 13.4283 25.7416L13.5548 27.424C16.157 27.2274 18.5136 26.1736 20.3698 24.5629L24.1026 28.2965C23.8064 28.7985 23.625 29.3765 23.625 30C23.625 30.6244 23.8064 31.2015 24.1034 31.7035L19.4223 36.3847L14.7412 41.0658C13.9134 40.476 12.9043 40.125 11.8125 40.125C10.8852 40.125 10.0178 40.3798 9.26944 40.8169L5.54428 36.3467C5.76872 35.9687 5.90625 35.5333 5.90625 35.0625C5.90625 33.6669 4.77056 32.5312 3.375 32.5312C1.97944 32.5312 0.84375 33.6669 0.84375 35.0625C0.84375 36.4581 1.97944 37.5938 3.375 37.5938C3.68297 37.5938 3.97491 37.5305 4.24828 37.4292L7.97175 41.8986C7.21237 42.7837 6.75 43.932 6.75 45.1875C6.75 46.2793 7.101 47.2884 7.69078 48.1162L4.45922 51.3477C4.12931 51.1891 3.76481 51.0938 3.375 51.0938C1.97944 51.0938 0.84375 52.2294 0.84375 53.625C0.84375 55.0206 1.97944 56.1562 3.375 56.1562C4.77056 56.1562 5.90625 55.0206 5.90625 53.625C5.90625 53.2352 5.81091 52.8707 5.65228 52.5408L8.88384 49.3092C9.71156 49.899 10.7207 50.25 11.8125 50.25C13.2621 50.25 14.5682 49.6341 15.4921 48.6545L19.4915 51.3207C19.4408 51.519 19.4062 51.7232 19.4062 51.9375C19.4062 53.3331 20.5419 54.4688 21.9375 54.4688C23.3331 54.4688 24.4688 53.3331 24.4688 51.9375C24.4688 50.5419 23.3331 49.4062 21.9375 49.4062C21.3697 49.4062 20.8508 49.6003 20.428 49.9176L16.4303 47.2522C16.7138 46.621 16.875 45.9232 16.875 45.1875C16.875 44.0957 16.524 43.0866 15.9342 42.2588L25.2965 32.8966C25.7985 33.1936 26.3756 33.375 27 33.375C27.6244 33.375 28.2015 33.1936 28.7035 32.8966L32.4262 36.6192C30.6281 38.6932 29.5312 41.3898 29.5312 44.3438C29.5312 47.1577 30.5446 49.888 32.3848 52.0303L33.4758 51.0938H48.8692C47.0146 53.1593 44.3323 54.4688 41.3438 54.4688C38.9332 54.4688 36.5934 53.6005 34.7558 52.0227L33.6563 53.3035C35.7995 55.1429 38.5298 56.1562 41.3438 56.1562C47.8575 56.1562 53.1562 50.8575 53.1562 44.3438C53.1562 41.5298 52.1429 38.7995 50.3027 36.6572L49.0227 37.7558C50.6005 39.5934 51.4688 41.9332 51.4688 44.3438C51.4688 46.4236 50.8368 48.3575 49.7576 49.9673C49.637 48.2208 48.4363 46.6987 46.7353 46.2118L43.875 45.3951V45.1698C44.9263 44.3775 45.5625 43.1313 45.5625 41.8125V40.2997C45.5625 38.0317 43.8742 36.1096 41.7192 35.9223C40.5354 35.8193 39.3618 36.2184 38.4936 37.0141C37.6237 37.8123 37.125 38.9463 37.125 40.125V41.8125C37.125 43.1313 37.7612 44.3775 38.8125 45.1698V45.3951L35.9522 46.2118C34.2562 46.697 33.0581 48.2107 32.9307 49.9496C31.8254 48.2925 31.2188 46.3451 31.2188 44.3438C31.2188 38.7607 35.7607 34.2188 41.3438 34.2188C43.7543 34.2188 46.0941 35.087 47.9317 36.6648L49.0312 35.384C46.888 33.5446 44.1577 32.5312 41.3438 32.5312C38.3898 32.5312 35.6932 33.6281 33.6201 35.427L29.8974 31.7044C30.1936 31.2015 30.375 30.6244 30.375 30C30.375 29.3756 30.1936 28.7985 29.8966 28.2965L39.2588 18.9342C40.0866 19.524 41.0957 19.875 42.1875 19.875C42.7477 19.875 43.2861 19.7797 43.7898 19.6109L47.0737 25.7694C46.6636 26.2192 46.4062 26.8123 46.4062 27.4688C46.4062 28.8643 47.5419 30 48.9375 30C50.3331 30 51.4688 28.8643 51.4688 27.4688C51.4688 26.0732 50.3331 24.9375 48.9375 24.9375C48.8145 24.9375 48.6954 24.9556 48.5772 24.9735M48.5646 24.9755L48.5772 24.9735M48.5646 24.9755C48.5688 24.9748 48.573 24.9742 48.5772 24.9735M49.7812 27.4688C49.7812 27.9337 49.4032 28.3125 48.9375 28.3125C48.4718 28.3125 48.0938 27.9337 48.0938 27.4688C48.0938 27.0038 48.4718 26.625 48.9375 26.625C49.4032 26.625 49.7812 27.0038 49.7812 27.4688ZM6.05391 20.7188C6.32222 19.972 6.93731 19.373 7.72791 19.1468L11.8125 17.9799V15.5466L11.3932 15.3027C10.5992 14.8403 10.125 14.0261 10.125 13.125V11.4375C10.125 10.7304 10.4237 10.0495 10.9468 9.57113C11.475 9.08681 12.1677 8.85478 12.8857 8.91638C14.1767 9.02859 15.1875 10.2124 15.1875 11.613V13.125C15.1875 14.0261 14.7133 14.8403 13.9193 15.3027L13.5 15.5466V17.9799L17.5846 19.1468C18.376 19.373 18.9903 19.972 19.2586 20.7188H6.05391ZM21.9375 51.0938C22.4032 51.0938 22.7812 51.4718 22.7812 51.9375C22.7812 52.4032 22.4032 52.7812 21.9375 52.7812C21.4718 52.7812 21.0938 52.4032 21.0938 51.9375C21.0938 51.4718 21.4718 51.0938 21.9375 51.0938ZM50.625 5.53125C51.0907 5.53125 51.4688 5.91009 51.4688 6.375C51.4688 6.83991 51.0907 7.21875 50.625 7.21875C50.1593 7.21875 49.7812 6.83991 49.7812 6.375C49.7812 5.91009 50.1593 5.53125 50.625 5.53125ZM42.1875 11.4375C44.0488 11.4375 45.5625 12.9512 45.5625 14.8125C45.5625 16.6738 44.0488 18.1875 42.1875 18.1875C40.3262 18.1875 38.8125 16.6738 38.8125 14.8125C38.8125 12.9512 40.3262 11.4375 42.1875 11.4375ZM33.75 7.21875C33.2843 7.21875 32.9062 6.83991 32.9062 6.375C32.9062 5.91009 33.2843 5.53125 33.75 5.53125C34.2157 5.53125 34.5938 5.91009 34.5938 6.375C34.5938 6.83991 34.2157 7.21875 33.75 7.21875ZM2.53125 35.0625C2.53125 34.5968 2.90925 34.2188 3.375 34.2188C3.84075 34.2188 4.21875 34.5968 4.21875 35.0625C4.21875 35.5282 3.84075 35.9062 3.375 35.9062C2.90925 35.9062 2.53125 35.5282 2.53125 35.0625ZM3.375 54.4688C2.90925 54.4688 2.53125 54.0907 2.53125 53.625C2.53125 53.1593 2.90925 52.7812 3.375 52.7812C3.84075 52.7812 4.21875 53.1593 4.21875 53.625C4.21875 54.0907 3.84075 54.4688 3.375 54.4688ZM11.8125 48.5625C9.95119 48.5625 8.4375 47.0488 8.4375 45.1875C8.4375 43.3262 9.95119 41.8125 11.8125 41.8125C13.6738 41.8125 15.1875 43.3262 15.1875 45.1875C15.1875 47.0488 13.6738 48.5625 11.8125 48.5625ZM25.3125 30C25.3125 29.0693 26.0693 28.3125 27 28.3125C27.9307 28.3125 28.6875 29.0693 28.6875 30C28.6875 30.9307 27.9307 31.6875 27 31.6875C26.0693 31.6875 25.3125 30.9307 25.3125 30ZM34.7414 49.4062C35.0097 48.6595 35.6248 48.0605 36.4154 47.8352L40.5 46.6674V44.2341L40.0807 43.9902C39.2867 43.5278 38.8125 42.7136 38.8125 41.8125V40.125C38.8125 39.4171 39.1112 38.737 39.6343 38.2586C40.1625 37.7743 40.8552 37.5423 41.5732 37.6039C42.8642 37.7161 43.875 38.8999 43.875 40.2997V41.8125C43.875 42.7136 43.4008 43.5278 42.6068 43.9902L42.1875 44.2341V46.6674L46.2721 47.8352C47.0627 48.0613 47.6778 48.6604 47.9461 49.4062H34.7414Z" stroke="#0F0C3D" stroke-width="0.5"/>
<circle cx="41.5" cy="44.5" r="11.5" fill="#FCFBFD"/>
<path d="M49.0227 37.7558C50.6005 39.5934 51.4688 41.9332 51.4688 44.3438C51.4688 46.4236 50.8368 48.3575 49.7576 49.9673C49.637 48.2208 48.4363 46.6987 46.7353 46.2118L43.875 45.3951V45.1698C44.9263 44.3775 45.5625 43.1313 45.5625 41.8125V40.2997C45.5625 38.0317 43.8742 36.1096 41.7192 35.9223C40.5354 35.8193 39.3618 36.2184 38.4936 37.0141C37.6237 37.8123 37.125 38.9463 37.125 40.125V41.8125C37.125 43.1313 37.7612 44.3775 38.8125 45.1698V45.3951L35.9522 46.2118C34.2562 46.697 33.0581 48.2107 32.9307 49.9496C31.8254 48.2925 31.2188 46.3451 31.2188 44.3438C31.2188 38.7607 35.7607 34.2188 41.3438 34.2188C43.7543 34.2188 46.0941 35.087 47.9317 36.6648L49.0312 35.384C46.888 33.5446 44.1577 32.5312 41.3438 32.5312C38.3898 32.5312 35.6932 33.6281 33.6201 35.427L29.8974 31.7044C30.1936 31.2015 30.375 30.6244 30.375 30C30.375 29.3756 30.1936 28.7985 29.8966 28.2965L39.2588 18.9342C40.0866 19.524 41.0957 19.875 42.1875 19.875C42.7477 19.875 43.2861 19.7797 43.7898 19.6109L47.0737 25.7694C46.6636 26.2192 46.4062 26.8123 46.4062 27.4688C46.4062 28.8643 47.5419 30 48.9375 30C50.3331 30 51.4688 28.8643 51.4688 27.4688C51.4688 26.0732 50.3331 24.9375 48.9375 24.9375C48.8101 24.9375 48.6869 24.9569 48.5646 24.9755L45.2782 18.8136C46.4746 17.8863 47.25 16.4401 47.25 14.8125C47.25 13.7207 46.899 12.7116 46.3092 11.8838L49.5408 8.65312C49.8707 8.81006 50.2352 8.90625 50.625 8.90625C52.0206 8.90625 53.1562 7.77056 53.1562 6.375C53.1562 4.97944 52.0206 3.84375 50.625 3.84375C49.2294 3.84375 48.0938 4.97944 48.0938 6.375C48.0938 6.76481 48.1891 7.12931 48.3477 7.45922L45.1162 10.6899C44.2884 10.101 43.2793 9.75 42.1875 9.75C41.0957 9.75 40.0866 10.101 39.2588 10.6908L36.0273 7.46006C36.1859 7.12931 36.2812 6.76481 36.2812 6.375C36.2812 4.97944 35.1456 3.84375 33.75 3.84375C32.3544 3.84375 31.2188 4.97944 31.2188 6.375C31.2188 7.77056 32.3544 8.90625 33.75 8.90625C34.1398 8.90625 34.5043 8.81006 34.8342 8.65228L38.0658 11.883C37.476 12.7116 37.125 13.7207 37.125 14.8125C37.125 15.9043 37.476 16.9134 38.0658 17.7412L28.7035 27.1034C28.2015 26.8064 27.6244 26.625 27 26.625C26.3756 26.625 25.7985 26.8072 25.2965 27.1034L21.5612 23.3681C23.3677 21.2866 24.4688 18.5849 24.4688 15.6562C24.4688 9.5205 19.6746 4.35084 13.5548 3.88847L13.4283 5.57091C18.673 5.96747 22.7812 10.398 22.7812 15.6562C22.7812 17.7125 22.1468 19.6379 21.0676 21.2486C20.9351 19.5147 19.7387 18.0069 18.0478 17.5243L15.1875 16.7076V16.4831C16.2388 15.6908 16.875 14.4446 16.875 13.1258V11.6138C16.875 9.34584 15.1867 7.42378 13.0317 7.23647C11.8471 7.13269 10.6743 7.53178 9.80606 8.32828C8.93616 9.12478 8.4375 10.2588 8.4375 11.4375V13.125C8.4375 14.4438 9.07369 15.6908 10.125 16.4823V16.7067L7.26469 17.5243C5.57297 18.0069 4.37653 19.5147 4.24491 21.2486C3.16575 19.6379 2.53125 17.7125 2.53125 15.6562C2.53125 10.398 6.63947 5.96747 11.8842 5.57091L11.7577 3.88847C5.63794 4.35084 0.84375 9.5205 0.84375 15.6562C0.84375 21.792 5.63794 26.9617 11.7577 27.424L11.8842 25.7416C9.20784 25.5391 6.83269 24.2827 5.14266 22.4062H20.1698C18.4807 24.2827 16.1047 25.5391 13.4283 25.7416L13.5548 27.424C16.157 27.2274 18.5136 26.1736 20.3698 24.5629L24.1026 28.2965C23.8064 28.7985 23.625 29.3765 23.625 30C23.625 30.6244 23.8064 31.2015 24.1034 31.7035L14.7412 41.0658C13.9134 40.476 12.9043 40.125 11.8125 40.125C10.8852 40.125 10.0178 40.3798 9.26944 40.8169L5.54428 36.3467C5.76872 35.9687 5.90625 35.5333 5.90625 35.0625C5.90625 33.6669 4.77056 32.5312 3.375 32.5312C1.97944 32.5312 0.84375 33.6669 0.84375 35.0625C0.84375 36.4581 1.97944 37.5938 3.375 37.5938C3.68297 37.5938 3.97491 37.5305 4.24828 37.4292L7.97175 41.8986C7.21237 42.7837 6.75 43.932 6.75 45.1875C6.75 46.2793 7.101 47.2884 7.69078 48.1162L4.45922 51.3477C4.12931 51.1891 3.76481 51.0938 3.375 51.0938C1.97944 51.0938 0.84375 52.2294 0.84375 53.625C0.84375 55.0206 1.97944 56.1562 3.375 56.1562C4.77056 56.1562 5.90625 55.0206 5.90625 53.625C5.90625 53.2352 5.81091 52.8707 5.65228 52.5408L8.88384 49.3092C9.71156 49.899 10.7207 50.25 11.8125 50.25C13.2621 50.25 14.5682 49.6341 15.4921 48.6545L19.4915 51.3207C19.4408 51.519 19.4062 51.7232 19.4062 51.9375C19.4062 53.3331 20.5419 54.4688 21.9375 54.4688C23.3331 54.4688 24.4688 53.3331 24.4688 51.9375C24.4688 50.5419 23.3331 49.4062 21.9375 49.4062C21.3697 49.4062 20.8507 49.6003 20.428 49.9176L16.4303 47.2522C16.7138 46.621 16.875 45.9232 16.875 45.1875C16.875 44.0957 16.524 43.0866 15.9342 42.2588L25.2965 32.8966C25.7985 33.1936 26.3756 33.375 27 33.375C27.6244 33.375 28.2015 33.1936 28.7035 32.8966L32.4262 36.6192C30.6281 38.6932 29.5312 41.3898 29.5312 44.3438C29.5312 47.1577 30.5446 49.888 32.3848 52.0303L33.4758 51.0938H48.8692C47.0146 53.1592 44.3323 54.4688 41.3438 54.4688C38.9332 54.4688 36.5934 53.6005 34.7558 52.0227L33.6563 53.3035C35.7995 55.1429 38.5298 56.1562 41.3438 56.1562C47.8575 56.1562 53.1562 50.8575 53.1562 44.3438C53.1562 41.5298 52.1429 38.7995 50.3027 36.6572L49.0227 37.7558ZM49.7812 27.4688C49.7812 27.9337 49.4033 28.3125 48.9375 28.3125C48.4717 28.3125 48.0938 27.9337 48.0938 27.4688C48.0938 27.0038 48.4717 26.625 48.9375 26.625C49.4033 26.625 49.7812 27.0038 49.7812 27.4688ZM6.05391 20.7188C6.32222 19.972 6.93731 19.373 7.72791 19.1468L11.8125 17.9799V15.5466L11.3932 15.3027C10.5992 14.8403 10.125 14.0261 10.125 13.125V11.4375C10.125 10.7304 10.4237 10.0495 10.9468 9.57113C11.475 9.08681 12.1677 8.85478 12.8857 8.91638C14.1767 9.02859 15.1875 10.2124 15.1875 11.613V13.125C15.1875 14.0261 14.7133 14.8403 13.9193 15.3027L13.5 15.5466V17.9799L17.5846 19.1468C18.376 19.373 18.9903 19.972 19.2586 20.7188H6.05391ZM21.9375 51.0938C22.4032 51.0938 22.7812 51.4717 22.7812 51.9375C22.7812 52.4033 22.4032 52.7812 21.9375 52.7812C21.4718 52.7812 21.0938 52.4033 21.0938 51.9375C21.0938 51.4717 21.4718 51.0938 21.9375 51.0938ZM50.625 5.53125C51.0908 5.53125 51.4688 5.91009 51.4688 6.375C51.4688 6.83991 51.0908 7.21875 50.625 7.21875C50.1592 7.21875 49.7812 6.83991 49.7812 6.375C49.7812 5.91009 50.1592 5.53125 50.625 5.53125ZM42.1875 11.4375C44.0488 11.4375 45.5625 12.9512 45.5625 14.8125C45.5625 16.6738 44.0488 18.1875 42.1875 18.1875C40.3262 18.1875 38.8125 16.6738 38.8125 14.8125C38.8125 12.9512 40.3262 11.4375 42.1875 11.4375ZM33.75 7.21875C33.2842 7.21875 32.9062 6.83991 32.9062 6.375C32.9062 5.91009 33.2842 5.53125 33.75 5.53125C34.2158 5.53125 34.5938 5.91009 34.5938 6.375C34.5938 6.83991 34.2158 7.21875 33.75 7.21875ZM2.53125 35.0625C2.53125 34.5968 2.90925 34.2188 3.375 34.2188C3.84075 34.2188 4.21875 34.5968 4.21875 35.0625C4.21875 35.5282 3.84075 35.9062 3.375 35.9062C2.90925 35.9062 2.53125 35.5282 2.53125 35.0625ZM3.375 54.4688C2.90925 54.4688 2.53125 54.0908 2.53125 53.625C2.53125 53.1592 2.90925 52.7812 3.375 52.7812C3.84075 52.7812 4.21875 53.1592 4.21875 53.625C4.21875 54.0908 3.84075 54.4688 3.375 54.4688ZM11.8125 48.5625C9.95119 48.5625 8.4375 47.0488 8.4375 45.1875C8.4375 43.3262 9.95119 41.8125 11.8125 41.8125C13.6738 41.8125 15.1875 43.3262 15.1875 45.1875C15.1875 47.0488 13.6738 48.5625 11.8125 48.5625ZM25.3125 30C25.3125 29.0693 26.0693 28.3125 27 28.3125C27.9307 28.3125 28.6875 29.0693 28.6875 30C28.6875 30.9307 27.9307 31.6875 27 31.6875C26.0693 31.6875 25.3125 30.9307 25.3125 30ZM34.7414 49.4062C35.0097 48.6595 35.6248 48.0605 36.4154 47.8352L40.5 46.6674V44.2341L40.0807 43.9902C39.2867 43.5278 38.8125 42.7136 38.8125 41.8125V40.125C38.8125 39.4171 39.1112 38.737 39.6343 38.2586C40.1625 37.7743 40.8552 37.5423 41.5732 37.6039C42.8642 37.7161 43.875 38.8999 43.875 40.2997V41.8125C43.875 42.7136 43.4008 43.5278 42.6068 43.9902L42.1875 44.2341V46.6674L46.2721 47.8352C47.0627 48.0613 47.6778 48.6604 47.9461 49.4062H34.7414Z" fill="#0F0C3D"/>
<path d="M33.6563 53.3035L34.7558 52.0227L33.4758 51.0938L32.3848 52.032L33.6563 53.3035Z" fill="#0F0C3D"/>
<path d="M33.4758 51.0938L32.3848 52.0303C30.5446 49.888 29.5312 47.1577 29.5312 44.3438C29.5312 41.3898 30.6281 38.6932 32.4262 36.6192L28.7035 32.8966C28.2015 33.1936 27.6244 33.375 27 33.375C26.3756 33.375 25.7985 33.1936 25.2965 32.8966L15.9342 42.2588C16.524 43.0866 16.875 44.0957 16.875 45.1875C16.875 45.9232 16.7138 46.621 16.4303 47.2522L20.428 49.9176C20.8508 49.6003 21.3697 49.4062 21.9375 49.4062C23.3331 49.4062 24.4688 50.5419 24.4688 51.9375C24.4688 53.3331 23.3331 54.4688 21.9375 54.4688C20.5419 54.4688 19.4062 53.3331 19.4062 51.9375C19.4062 51.7232 19.4408 51.519 19.4915 51.3207L15.4921 48.6545C14.5682 49.6341 13.2621 50.25 11.8125 50.25C10.7207 50.25 9.71156 49.899 8.88384 49.3092L5.65228 52.5408C5.81091 52.8707 5.90625 53.2352 5.90625 53.625C5.90625 55.0206 4.77056 56.1562 3.375 56.1562C1.97944 56.1562 0.84375 55.0206 0.84375 53.625C0.84375 52.2294 1.97944 51.0938 3.375 51.0938C3.76481 51.0938 4.12931 51.1891 4.45922 51.3477L7.69078 48.1162C7.101 47.2884 6.75 46.2793 6.75 45.1875C6.75 43.932 7.21237 42.7837 7.97175 41.8986L4.24828 37.4292C3.97491 37.5305 3.68297 37.5938 3.375 37.5938C1.97944 37.5938 0.84375 36.4581 0.84375 35.0625C0.84375 33.6669 1.97944 32.5312 3.375 32.5312C4.77056 32.5312 5.90625 33.6669 5.90625 35.0625C5.90625 35.5333 5.76872 35.9687 5.54428 36.3467L9.26944 40.8169C10.0178 40.3798 10.8852 40.125 11.8125 40.125C12.9043 40.125 13.9134 40.476 14.7412 41.0658L24.1034 31.7035C23.8064 31.2015 23.625 30.6244 23.625 30C23.625 29.3765 23.8064 28.7985 24.1026 28.2965L20.3698 24.5629C18.5136 26.1736 16.157 27.2274 13.5548 27.424L13.4283 25.7416C16.1047 25.5391 18.4807 24.2828 20.1698 22.4062H5.14266C6.83269 24.2828 9.20784 25.5391 11.8842 25.7416L11.7577 27.424C5.63794 26.9617 0.84375 21.792 0.84375 15.6562C0.84375 9.5205 5.63794 4.35084 11.7577 3.88847L11.8842 5.57091C6.63947 5.96747 2.53125 10.398 2.53125 15.6562C2.53125 17.7125 3.16575 19.6379 4.24491 21.2486C4.37653 19.5147 5.57297 18.0069 7.26469 17.5243L10.125 16.7067V16.4823C9.07369 15.6908 8.4375 14.4438 8.4375 13.125V11.4375C8.4375 10.2588 8.93616 9.12478 9.80606 8.32828C10.6743 7.53178 11.8471 7.13269 13.0317 7.23647C15.1867 7.42378 16.875 9.34584 16.875 11.6138V13.1258C16.875 14.4446 16.2388 15.6908 15.1875 16.4831V16.7076L18.0478 17.5243C19.7387 18.0069 20.9351 19.5147 21.0676 21.2486C22.1468 19.6379 22.7812 17.7125 22.7812 15.6562C22.7812 10.398 18.673 5.96747 13.4283 5.57091L13.5548 3.88847C19.6746 4.35084 24.4688 9.5205 24.4688 15.6562C24.4688 18.5849 23.3677 21.2866 21.5612 23.3681L25.2965 27.1034C25.7985 26.8072 26.3756 26.625 27 26.625C27.6244 26.625 28.2015 26.8064 28.7035 27.1034L38.0658 17.7412C37.476 16.9134 37.125 15.9043 37.125 14.8125C37.125 13.7207 37.476 12.7116 38.0658 11.883L34.8342 8.65228C34.5043 8.81006 34.1398 8.90625 33.75 8.90625C32.3544 8.90625 31.2188 7.77056 31.2188 6.375C31.2188 4.97944 32.3544 3.84375 33.75 3.84375C35.1456 3.84375 36.2812 4.97944 36.2812 6.375C36.2812 6.76481 36.1859 7.12931 36.0273 7.46006L39.2588 10.6908C40.0866 10.101 41.0957 9.75 42.1875 9.75C43.2793 9.75 44.2884 10.101 45.1162 10.6899L48.3477 7.45922C48.1891 7.12931 48.0938 6.76481 48.0938 6.375C48.0938 4.97944 49.2294 3.84375 50.625 3.84375C52.0206 3.84375 53.1562 4.97944 53.1562 6.375C53.1562 7.77056 52.0206 8.90625 50.625 8.90625C50.2352 8.90625 49.8707 8.81006 49.5408 8.65312L46.3092 11.8838C46.899 12.7116 47.25 13.7207 47.25 14.8125C47.25 16.4401 46.4746 17.8863 45.2782 18.8136L48.5646 24.9755C48.6869 24.9569 48.8101 24.9375 48.9375 24.9375C50.3331 24.9375 51.4688 26.0732 51.4688 27.4688C51.4688 28.8643 50.3331 30 48.9375 30C47.5419 30 46.4062 28.8643 46.4062 27.4688C46.4062 26.8123 46.6636 26.2192 47.0737 25.7694L43.7898 19.6109C43.2861 19.7797 42.7477 19.875 42.1875 19.875C41.0957 19.875 40.0866 19.524 39.2588 18.9342L29.8966 28.2965C30.1936 28.7985 30.375 29.3756 30.375 30C30.375 30.6244 30.1936 31.2015 29.8974 31.7044L33.6201 35.427C35.6932 33.6281 38.3898 32.5312 41.3438 32.5312C44.1577 32.5312 46.888 33.5446 49.0312 35.384L47.9317 36.6648C46.0941 35.087 43.7543 34.2188 41.3438 34.2188C35.7607 34.2188 31.2188 38.7607 31.2188 44.3438C31.2188 46.3451 31.8254 48.2925 32.9307 49.9496C33.0581 48.2107 34.2562 46.697 35.9522 46.2118L38.8125 45.3951V45.1698C37.7612 44.3775 37.125 43.1313 37.125 41.8125V40.125C37.125 38.9463 37.6237 37.8123 38.4936 37.0141C39.3618 36.2184 40.5354 35.8193 41.7192 35.9223C43.8742 36.1096 45.5625 38.0317 45.5625 40.2997V41.8125C45.5625 43.1313 44.9263 44.3775 43.875 45.1698V45.3951L46.7353 46.2118C48.4363 46.6987 49.637 48.2208 49.7576 49.9673C50.8368 48.3575 51.4688 46.4236 51.4688 44.3438C51.4688 41.9332 50.6005 39.5934 49.0227 37.7558L50.3027 36.6572C52.1429 38.7995 53.1562 41.5298 53.1562 44.3438C53.1562 50.8575 47.8575 56.1562 41.3438 56.1562C38.5298 56.1562 35.7995 55.1429 33.6563 53.3035M33.4758 51.0938H48.8692C47.0146 53.1593 44.3323 54.4688 41.3438 54.4688C38.9332 54.4688 36.5934 53.6005 34.7558 52.0227M33.4758 51.0938L32.3848 52.032L33.6563 53.3035M33.4758 51.0938L34.7558 52.0227M34.7558 52.0227L33.6563 53.3035M49.7812 27.4688C49.7812 27.9337 49.4032 28.3125 48.9375 28.3125C48.4718 28.3125 48.0938 27.9337 48.0938 27.4688C48.0938 27.0038 48.4718 26.625 48.9375 26.625C49.4032 26.625 49.7812 27.0038 49.7812 27.4688ZM6.05391 20.7188C6.32222 19.972 6.93731 19.373 7.72791 19.1468L11.8125 17.9799V15.5466L11.3932 15.3027C10.5992 14.8403 10.125 14.0261 10.125 13.125V11.4375C10.125 10.7304 10.4237 10.0495 10.9468 9.57113C11.475 9.08681 12.1677 8.85478 12.8857 8.91638C14.1767 9.02859 15.1875 10.2124 15.1875 11.613V13.125C15.1875 14.0261 14.7133 14.8403 13.9193 15.3027L13.5 15.5466V17.9799L17.5846 19.1468C18.376 19.373 18.9903 19.972 19.2586 20.7188H6.05391ZM21.9375 51.0938C22.4032 51.0938 22.7812 51.4718 22.7812 51.9375C22.7812 52.4032 22.4032 52.7812 21.9375 52.7812C21.4718 52.7812 21.0938 52.4032 21.0938 51.9375C21.0938 51.4718 21.4718 51.0938 21.9375 51.0938ZM50.625 5.53125C51.0907 5.53125 51.4688 5.91009 51.4688 6.375C51.4688 6.83991 51.0907 7.21875 50.625 7.21875C50.1593 7.21875 49.7812 6.83991 49.7812 6.375C49.7812 5.91009 50.1593 5.53125 50.625 5.53125ZM42.1875 11.4375C44.0488 11.4375 45.5625 12.9512 45.5625 14.8125C45.5625 16.6738 44.0488 18.1875 42.1875 18.1875C40.3262 18.1875 38.8125 16.6738 38.8125 14.8125C38.8125 12.9512 40.3262 11.4375 42.1875 11.4375ZM33.75 7.21875C33.2843 7.21875 32.9062 6.83991 32.9062 6.375C32.9062 5.91009 33.2843 5.53125 33.75 5.53125C34.2157 5.53125 34.5938 5.91009 34.5938 6.375C34.5938 6.83991 34.2157 7.21875 33.75 7.21875ZM2.53125 35.0625C2.53125 34.5968 2.90925 34.2188 3.375 34.2188C3.84075 34.2188 4.21875 34.5968 4.21875 35.0625C4.21875 35.5282 3.84075 35.9062 3.375 35.9062C2.90925 35.9062 2.53125 35.5282 2.53125 35.0625ZM3.375 54.4688C2.90925 54.4688 2.53125 54.0907 2.53125 53.625C2.53125 53.1593 2.90925 52.7812 3.375 52.7812C3.84075 52.7812 4.21875 53.1593 4.21875 53.625C4.21875 54.0907 3.84075 54.4688 3.375 54.4688ZM11.8125 48.5625C9.95119 48.5625 8.4375 47.0488 8.4375 45.1875C8.4375 43.3262 9.95119 41.8125 11.8125 41.8125C13.6738 41.8125 15.1875 43.3262 15.1875 45.1875C15.1875 47.0488 13.6738 48.5625 11.8125 48.5625ZM25.3125 30C25.3125 29.0693 26.0693 28.3125 27 28.3125C27.9307 28.3125 28.6875 29.0693 28.6875 30C28.6875 30.9307 27.9307 31.6875 27 31.6875C26.0693 31.6875 25.3125 30.9307 25.3125 30ZM34.7414 49.4062C35.0097 48.6595 35.6248 48.0605 36.4154 47.8352L40.5 46.6674V44.2341L40.0807 43.9902C39.2867 43.5278 38.8125 42.7136 38.8125 41.8125V40.125C38.8125 39.4171 39.1112 38.737 39.6343 38.2586C40.1625 37.7743 40.8552 37.5423 41.5732 37.6039C42.8642 37.7161 43.875 38.8999 43.875 40.2997V41.8125C43.875 42.7136 43.4008 43.5278 42.6068 43.9902L42.1875 44.2341V46.6674L46.2721 47.8352C47.0627 48.0613 47.6778 48.6604 47.9461 49.4062H34.7414Z" stroke="#0F0C3D" stroke-width="0.5"/>
<circle cx="50.5" cy="6.5" r="2.5" fill="#FCFBFD" stroke="#62E2AA" stroke-width="2"/>
</svg>
