<svg width="60" height="64" viewBox="0 0 60 64" fill="none" xmlns="http://www.w3.org/2000/svg">
<g clip-path="url(#clip0)">
<path d="M34.6875 31.8896H32.8125V33.7655H34.6875V31.8896Z" fill="#0F0C3D"/>
<path d="M34.6875 35.6414H32.8125V37.5172H34.6875V35.6414Z" fill="#0F0C3D"/>
<path d="M34.6875 39.3931H32.8125V41.2689H34.6875V39.3931Z" fill="#0F0C3D"/>
<path d="M27.1875 31.8896H25.3125V33.7655H27.1875V31.8896Z" fill="#0F0C3D"/>
<path d="M27.1875 35.6414H25.3125V37.5172H27.1875V35.6414Z" fill="#0F0C3D"/>
<path d="M27.1875 39.3931H25.3125V41.2689H27.1875V39.3931Z" fill="#0F0C3D"/>
<path d="M17.9175 28.6226C17.9186 28.5554 17.9197 28.488 17.9206 28.4201C19.0539 26.5189 21.0422 25.4241 23.4375 25.4241C25.84 25.4241 27.8319 26.5242 28.9625 28.4335V53.4621C28.9625 55.2416 29.6565 56.9159 30.9146 58.1746C32.1727 59.4333 33.8462 60.1276 35.625 60.1276C37.4038 60.1276 39.0773 59.4333 40.3354 58.1746C41.5935 56.9159 42.2875 55.2416 42.2875 53.4621V53.3621H42.1875H40.3125H40.2125V53.4621C40.2125 54.6877 39.7346 55.8403 38.8683 56.707C38.0021 57.5736 36.85 58.0517 35.625 58.0517C34.4 58.0517 33.2479 57.5736 32.3817 56.707C31.5154 55.8403 31.0375 54.6877 31.0375 53.4621V28.4344C32.17 26.5242 34.1628 25.4241 36.5625 25.4241C38.9597 25.4241 40.948 26.5198 42.0794 28.421C42.0803 28.489 42.0814 28.5565 42.0825 28.6237C42.085 28.7745 42.0875 28.9242 42.0875 29.0759V29.1759H42.1875H44.0625H44.1625V29.0759C44.1625 28.928 44.16 28.7811 44.1575 28.6352C44.1564 28.5722 44.1553 28.5094 44.1544 28.4468C45.2842 26.5286 47.2806 25.4241 49.6875 25.4241C52.0784 25.4241 54.0623 26.5145 55.1955 28.4078C55.1973 28.4682 55.1993 28.5281 55.2014 28.5879C55.207 28.751 55.2125 28.9125 55.2125 29.0759V29.1759H55.3125H57.1875H57.2875V29.0759C57.2875 14.3709 45.6038 2.3514 31.0375 1.80284V0V-0.1H30.9375H29.0625H28.9625V0V1.80284C14.3953 2.3514 2.7125 14.3709 2.7125 29.0759V29.1759H2.8125H4.6875H4.7875V29.0759C4.7875 28.9122 4.79301 28.7514 4.79858 28.5885C4.80064 28.5284 4.80271 28.4679 4.80452 28.407C5.93957 26.5145 7.92254 25.4241 10.3125 25.4241C12.7185 25.4241 14.7148 26.5277 15.8456 28.4459C15.8447 28.5085 15.8436 28.5713 15.8425 28.6344C15.84 28.7806 15.8375 28.928 15.8375 29.0759V29.1759H15.9375H17.8125H17.9125V29.0759C17.9125 28.9241 17.915 28.7738 17.9175 28.6226ZM10.3125 23.3483C8.35378 23.3483 6.55458 23.9479 5.11393 25.0225C6.70888 15.1816 14.0178 7.23364 23.5126 4.70268C19.4436 8.65138 16.5755 16.2567 15.9635 25.4004C14.4564 24.0937 12.4856 23.3483 10.3125 23.3483ZM23.4375 23.3483C21.397 23.3483 19.5352 24.0046 18.0667 25.1645C18.5067 19.5569 19.8723 14.5038 21.8118 10.7268C23.7527 6.94703 26.2561 4.46709 28.9625 3.95735V25.2929C27.4723 24.054 25.5511 23.3483 23.4375 23.3483ZM36.5625 23.3483C34.4498 23.3483 32.5285 24.054 31.0375 25.2939V3.95735C33.7439 4.46709 36.2473 6.9468 38.1882 10.7265C40.1277 14.5034 41.4933 19.5564 41.9333 25.1645C40.4648 24.0046 38.603 23.3483 36.5625 23.3483ZM49.6875 23.3483C47.5135 23.3483 45.5435 24.0937 44.0365 25.3995C43.4245 16.2559 40.5564 8.65054 36.4875 4.70181C45.9813 7.23367 53.2902 15.1807 54.8861 25.0215C53.4461 23.9478 51.6461 23.3483 49.6875 23.3483Z" fill="#0F0C3D" stroke="#0F0C3D" stroke-width="0.2"/>
<path d="M41.2919 37.4172L39.0464 33.6706L39.0063 33.6037L39.0615 33.5485L41.8627 30.745L41.9064 30.7012L41.9651 30.7208L45 31.7335L48.0349 30.7217L48.0936 30.7022L48.1373 30.7459L50.9386 33.5494L50.9937 33.6046L50.9536 33.6715L48.7081 37.4172H49.6875H49.7875V37.5172V39.3931V39.4931H49.6875H48.1934C48.4101 39.8904 48.8124 40.3086 49.2895 40.7561C49.4381 40.8954 49.5936 41.0374 49.7519 41.1817C50.1549 41.5494 50.5751 41.9329 50.9413 42.3294C53.1544 44.726 55.4125 47.7247 55.4125 52.5241C55.4125 54.9272 54.7233 56.8313 53.4206 58.1347C52.1178 59.438 50.2145 60.1275 47.8125 60.1275H42.1875H42.0875V60.0275V58.1517V58.0517H42.1875H47.8125C49.6628 58.0517 51.0393 57.5824 51.9538 56.6674C52.8684 55.7524 53.3375 54.3753 53.3375 52.5241C53.3375 48.5394 50.9992 46.0027 48.9072 43.7388L48.9072 43.7388L48.8952 43.7259C47.5697 42.2909 46.3683 40.9902 45.9732 39.4931H44.0268C43.6311 40.9926 42.4265 42.2959 41.0984 43.7328L41.0928 43.7388C41.0928 43.7388 41.0928 43.7388 41.0928 43.7388C39.0008 46.0027 36.6625 48.5394 36.6625 52.5241C36.6625 53.4512 36.7916 54.2808 37.0439 54.9902L37.0774 55.0844L36.9832 55.1179L35.216 55.7463L35.1217 55.7798L35.0883 55.6856C34.7557 54.7493 34.5875 53.6854 34.5875 52.5241C34.5875 47.7223 37.3594 44.7219 39.5651 42.3343L39.5697 42.3294L41.2919 37.4172ZM41.2919 37.4172H40.3125H40.2125V37.5172V39.3931V39.4931H40.3125H41.8107C41.3892 40.3556 40.5353 41.2838 39.5697 42.3294L41.2919 37.4172ZM44.9684 33.911L45 33.9215L45.0316 33.911L47.5314 33.0779L48.3813 33.9273L46.2877 37.4172H43.7122L41.6178 33.9264L42.4676 33.077L44.9684 33.911Z" fill="#0F0C3D" stroke="#0F0C3D" stroke-width="0.2"/>
<path d="M16.875 39.2931C11.1338 39.2931 6.4625 43.9666 6.4625 49.7103C6.4625 55.454 11.1338 60.1276 16.875 60.1276C22.6162 60.1276 27.2875 55.454 27.2875 49.7103C27.2875 43.9666 22.6162 39.2931 16.875 39.2931ZM16.875 58.0517C12.2784 58.0517 8.5375 54.3101 8.5375 49.7103C8.5375 45.1105 12.2784 41.3689 16.875 41.3689C21.4716 41.3689 25.2125 45.1105 25.2125 49.7103C25.2125 54.3101 21.4716 58.0517 16.875 58.0517Z" fill="#62E2AA" stroke="#62E2AA" stroke-width="0.2"/>
</g>
<defs>
<clipPath id="clip0">
<rect width="60" height="64" fill="white"/>
</clipPath>
</defs>
</svg>
