<svg width="58" height="61" viewBox="0 0 58 61" fill="none" xmlns="http://www.w3.org/2000/svg">
<path d="M54.9887 0.576416H3.71505C2.14456 0.576416 0.866516 1.91667 0.866516 3.56361V57.333C0.866516 58.98 2.14456 60.3202 3.71505 60.3202H54.9887C56.5592 60.3202 57.8372 58.98 57.8372 57.333V3.56361C57.8372 1.91667 56.5592 0.576416 54.9887 0.576416ZM54.9887 58.3288H3.71505C3.19187 58.3288 2.76554 57.8817 2.76554 57.333V10.5337H13.2102V8.54226H2.76554V3.56361C2.76554 3.01496 3.19187 2.56788 3.71505 2.56788H54.9887C55.5118 2.56788 55.9382 3.01496 55.9382 3.56361V8.54226H18.9072V10.5337H55.9382V57.333C55.9382 57.8817 55.5118 58.3288 54.9887 58.3288Z" fill="white"/>
<path d="M17.0082 8.54227H15.1092V10.5337H17.0082V8.54227Z" fill="white"/>
<path d="M46.4431 4.55933H44.5441V6.55079H46.4431V4.55933Z" fill="#62E2AA"/>
<path d="M50.2411 4.55933H48.3421V6.55079H50.2411V4.55933Z" fill="#62E2AA"/>
<path d="M54.0392 4.55933H52.1401V6.55079H54.0392V4.55933Z" fill="#62E2AA"/>
<path d="M30.3014 43.3928V38.4142C30.3014 36.7672 29.0233 35.427 27.4528 35.427H8.4626C6.8921 35.427 5.61406 36.7672 5.61406 38.4142V43.3928C5.08993 43.3928 4.66455 43.8389 4.66455 44.3885V52.3544V54.3458C4.66455 54.8955 5.08993 55.3416 5.61406 55.3416C6.13819 55.3416 6.56357 54.8955 6.56357 54.3458V53.3501H29.3518V54.3458C29.3518 54.8955 29.7772 55.3416 30.3014 55.3416C30.8255 55.3416 31.2509 54.8955 31.2509 54.3458V52.3544V44.3885C31.2509 43.8389 30.8255 43.3928 30.3014 43.3928ZM7.51309 38.4142C7.51309 37.8655 7.93942 37.4184 8.4626 37.4184H27.4528C27.976 37.4184 28.4023 37.8655 28.4023 38.4142V43.3928H26.5033V40.4056C26.5033 39.856 26.0779 39.4099 25.5538 39.4099H19.8567C19.3326 39.4099 18.9072 39.856 18.9072 40.4056V43.3928H17.0082V40.4056C17.0082 39.856 16.5828 39.4099 16.0587 39.4099H10.3616C9.83749 39.4099 9.41211 39.856 9.41211 40.4056V43.3928H7.51309V38.4142ZM24.6043 43.3928H20.8062V41.4014H24.6043V43.3928ZM15.1092 43.3928H11.3111V41.4014H15.1092V43.3928ZM6.56357 45.3843H10.3616H16.0587H19.8567H25.5538H29.3518V51.3587H6.56357V45.3843Z" fill="white"/>
<path d="M9.4121 33.4355C9.93623 33.4355 10.3616 32.9894 10.3616 32.4398V31.444H25.5538V32.4398C25.5538 32.9894 25.9792 33.4355 26.5033 33.4355C27.0274 33.4355 27.4528 32.9894 27.4528 32.4398V30.4483V22.4825C27.4528 21.9328 27.0274 21.4867 26.5033 21.4867V16.5081C26.5033 14.8612 25.2253 13.5209 23.6548 13.5209H12.2606C10.6901 13.5209 9.4121 14.8612 9.4121 16.5081V21.4867C8.88797 21.4867 8.46259 21.9328 8.46259 22.4825V30.4483V32.4398C8.46259 32.9894 8.88797 33.4355 9.4121 33.4355ZM10.3616 23.4782H14.1597H21.7557H25.5538V29.4526H10.3616V23.4782ZM20.8062 21.4867H15.1092V19.4953H20.8062V21.4867ZM11.3111 16.5081C11.3111 15.9594 11.7375 15.5124 12.2606 15.5124H23.6548C24.1779 15.5124 24.6043 15.9594 24.6043 16.5081V21.4867H22.7053V18.4996C22.7053 17.9499 22.2799 17.5038 21.7557 17.5038H14.1597C13.6355 17.5038 13.2101 17.9499 13.2101 18.4996V21.4867H11.3111V16.5081Z" fill="white"/>
<path d="M37.8975 27.4697H34.0995C33.5753 27.4697 33.15 27.9158 33.15 28.4654V32.4483C33.15 32.998 33.5753 33.444 34.0995 33.444H37.8975C38.4217 33.444 38.847 32.998 38.847 32.4483V28.4654C38.847 27.9158 38.4217 27.4697 37.8975 27.4697ZM36.948 31.4526H35.049V29.4611H36.948V31.4526Z" fill="white"/>
<path d="M54.0391 19.4953H40.746V21.4868H54.0391V19.4953Z" fill="white"/>
<path d="M54.0392 29.4611H40.746V31.4526H54.0392V29.4611Z" fill="white"/>
<path d="M40.4678 15.8041C40.0965 15.4148 39.4964 15.4148 39.1252 15.8041L37.5044 17.5038H34.0994C33.5753 17.5038 33.1499 17.9499 33.1499 18.4996V22.4825C33.1499 22.6119 33.1755 22.7414 33.223 22.8628C33.3189 23.1058 33.5041 23.3 33.7367 23.4015C33.8525 23.4513 33.976 23.4782 34.0994 23.4782H37.8975C38.4216 23.4782 38.847 23.0321 38.847 22.4825V18.9118L40.4678 17.2121C40.8391 16.8227 40.8391 16.1934 40.4678 15.8041ZM35.6053 19.4953L35.0489 20.0788V19.4953H35.6053ZM36.948 21.4867H36.3915L36.948 20.9032V21.4867Z" fill="white"/>
</svg>
