<svg width="64" height="64" viewBox="0 0 64 64" fill="none" xmlns="http://www.w3.org/2000/svg">
<path d="M40.6097 29.1296C33.886 29.1296 28.4046 34.611 28.4046 41.3347C28.4046 48.0584 33.886 53.5412 40.6097 53.5412C43.6389 53.5412 46.4104 52.4215 48.5478 50.5839L49.3513 51.3874L48.2155 52.5232C47.9467 52.7924 47.7958 53.1573 47.7958 53.5377C47.7958 53.9181 47.9467 54.283 48.2155 54.5523L56.8322 63.1704C57.1015 63.4396 57.4667 63.5908 57.8475 63.5908C58.2282 63.5908 58.5934 63.4396 58.8627 63.1704L63.1718 58.8613C63.4405 58.5921 63.5915 58.2272 63.5915 57.8468C63.5915 57.4664 63.4405 57.1015 63.1718 56.8323L54.5536 48.2141C54.4172 48.0784 54.255 47.9715 54.0765 47.8997C53.898 47.8279 53.7069 47.7927 53.5145 47.7962C53.1429 47.8022 52.788 47.952 52.5245 48.2141L51.3845 49.3541L50.4941 48.4637C51.948 46.4548 52.8148 43.9952 52.8148 41.3347C52.8148 34.611 47.3334 29.1296 40.6097 29.1296ZM40.6097 32.0028C45.7813 32.0028 49.943 36.1631 49.943 41.3347C49.943 46.5064 45.7813 50.668 40.6097 50.668C35.438 50.668 31.2764 46.5064 31.2764 41.3347C31.2764 36.1631 35.438 32.0028 40.6097 32.0028ZM53.5356 51.2612L60.1233 57.8447L57.8447 60.1234L51.2569 53.5412L53.5356 51.2612Z" fill="white"/>
<path d="M20.4427 0.645802L0.776222 13.5688C0.367312 13.8372 0.123179 14.2954 0.128385 14.7846L0.410236 40.6308C0.418729 41.4178 1.0591 42.0513 1.84613 42.0513H24.8205V39.1795H3.26661L3.00859 15.5377L21.2251 3.56815L39.1795 15.5377L39.1724 25.5371L42.0442 25.5398L42.0513 14.7706C42.0517 14.29 41.8117 13.8411 41.4118 13.5745L22.0272 0.65135C21.7866 0.490982 21.5031 0.406869 21.2214 0.410125C20.9396 0.412839 20.672 0.495036 20.4427 0.645636V0.645802Z" fill="white"/>
</svg>
