<svg width="93" height="60" viewBox="0 0 93 60" fill="none" xmlns="http://www.w3.org/2000/svg">
<path d="M21.2075 23.7814H9.58025C8.76024 23.7814 8.09473 23.0813 8.09473 22.217V9.83387C8.09473 8.97028 8.76024 8.26944 9.58025 8.26944H21.2067C22.0267 8.26944 22.6922 8.9695 22.6922 9.83387V22.217C22.693 23.0805 22.0275 23.7814 21.2075 23.7814ZM11.0658 20.6525H19.7212V11.3983H11.0658V20.6525Z" fill="white"/>
<path d="M59.4167 17.4193H45.0293C44.2093 17.4193 43.5438 16.7192 43.5438 15.8549C43.5438 14.9913 44.2093 14.2904 45.0293 14.2904H59.4174C60.2374 14.2904 60.9029 14.9905 60.9029 15.8549C60.9022 16.7192 60.2374 17.4193 59.4167 17.4193Z" fill="#62E2AA"/>
<path d="M40.471 33.2996H9.58025C8.76024 33.2996 8.09473 32.5995 8.09473 31.7351C8.09473 30.8708 8.76024 30.1707 9.58025 30.1707H40.4703C41.2903 30.1707 41.9558 30.8708 41.9558 31.7351C41.9558 32.5995 41.291 33.2996 40.471 33.2996Z" fill="white"/>
<path d="M40.471 41.8958H9.58025C8.76024 41.8958 8.09473 41.1957 8.09473 40.3313C8.09473 39.4677 8.76024 38.7669 9.58025 38.7669H40.4703C41.2903 38.7669 41.9558 39.467 41.9558 40.3313C41.9565 41.1949 41.291 41.8958 40.471 41.8958Z" fill="white"/>
<path d="M45.8189 50.0271H5.20908C2.75128 50.0271 0.752502 47.9222 0.752502 45.3338V4.83142C0.752502 2.24298 2.75128 0.138123 5.20908 0.138123H63.7886C66.2464 0.138123 68.2451 2.24298 68.2451 4.83142V24.2245C68.2451 25.0881 67.5796 25.7889 66.7596 25.7889C65.9396 25.7889 65.2741 25.0888 65.2741 24.2245V4.83142C65.2741 3.96861 64.6078 3.26699 63.7886 3.26699H5.20908C4.38981 3.26699 3.72355 3.96861 3.72355 4.83142V45.3338C3.72355 46.1966 4.38981 46.8982 5.20908 46.8982H45.8189C46.6389 46.8982 47.3044 47.5983 47.3044 48.4627C47.3044 49.327 46.6389 50.0271 45.8189 50.0271Z" fill="white"/>
<path d="M89.1413 40.6444H88.885L83.7488 32.3667C82.9689 31.1861 81.7137 30.4814 80.3901 30.4814H63.9349C62.5689 30.4814 61.2899 31.222 60.49 32.5006L55.7058 40.6444H55.4741C53.4263 40.6444 51.7603 42.3988 51.7603 44.5551V51.4981C51.7603 53.6543 53.4263 55.4088 55.4741 55.4088H57.2946C57.9363 57.6678 59.9255 59.3202 62.2756 59.3202C64.6257 59.3202 66.6148 57.6678 67.2558 55.4095H77.3596C78.0006 57.6686 79.9897 59.3202 82.3398 59.3202C84.6899 59.3202 86.679 57.6678 87.32 55.4095H89.1413C91.1891 55.4095 92.8551 53.6551 92.8551 51.4988V44.5559C92.8551 42.3988 91.1891 40.6444 89.1413 40.6444ZM81.2858 34.1157L85.3361 40.6444H73.7936V33.6103H80.3901C80.7466 33.6103 81.0816 33.8081 81.2858 34.1157ZM62.9945 34.185C63.2196 33.8252 63.5709 33.6103 63.9356 33.6103H70.8225V40.6444H59.1998L62.9945 34.185ZM62.2756 56.1914C61.047 56.1914 60.0473 55.1385 60.0473 53.8451C60.0473 52.5509 61.047 51.4988 62.2756 51.4988C63.5041 51.4988 64.5038 52.5517 64.5038 53.8451C64.5038 55.1393 63.5041 56.1914 62.2756 56.1914ZM82.3405 56.1914C81.112 56.1914 80.1123 55.1385 80.1123 53.8451C80.1123 52.5509 81.112 51.4988 82.3405 51.4988C83.5691 51.4988 84.5688 52.5517 84.5688 53.8451C84.5688 55.1393 83.5691 56.1914 82.3405 56.1914ZM89.884 51.4988C89.884 51.9303 89.5513 52.2807 89.1413 52.2807H87.3208C86.6798 50.0216 84.6907 48.37 82.3405 48.37C79.9904 48.37 78.0013 50.0224 77.3603 52.2807H67.2558C66.6148 50.0216 64.6257 48.37 62.2756 48.37C59.9255 48.37 57.9363 50.0224 57.2953 52.2807H55.4748C55.0648 52.2807 54.7321 51.9295 54.7321 51.4988V44.5559C54.7321 44.1244 55.0648 43.774 55.4748 43.774H89.1413C89.5513 43.774 89.884 44.1252 89.884 44.5559V51.4988Z" fill="white"/>
</svg>
