<svg width="68" height="68" viewBox="0 0 68 68" fill="none" xmlns="http://www.w3.org/2000/svg">
<path d="M30.8938 49.9637C31.1614 50.3652 31.328 51.3631 30.9794 52.0136C30.8961 52.1694 30.6415 52.6453 29.6127 52.6453H24.5829L26.001 51.2272L24.4502 49.6764L20.4875 53.639L24.3482 58.7873L26.103 57.4723L24.1287 54.8389H29.6127C31.6504 54.8389 32.5564 53.7179 32.9139 53.049C33.6872 51.6046 33.391 49.7543 32.7188 48.7463L30.8938 49.9637Z" fill="#0F0C3D"/>
<path d="M20.5983 42.7744H14.2582V44.968H17.4595L14.531 48.629C13.6108 49.5975 13.3333 51.3139 13.8894 52.6565C14.4641 54.0428 15.7968 54.8391 17.5482 54.8391H18.645V52.6453H17.5484C16.693 52.6453 16.1445 52.3666 15.9164 51.816C15.6532 51.181 15.867 50.3935 16.1303 50.1302L19.2143 46.2841L19.7747 48.5249L21.9013 47.994L20.5983 42.7744Z" fill="#62E2AA"/>
<path d="M30.622 44.8843L28.332 41.0686L28.1753 40.8196C27.6533 39.9696 26.6792 38.387 24.1293 38.387C21.5794 38.387 20.6054 39.9696 20.0834 40.8208L19.9266 41.0698L21.7516 42.286C21.8153 42.1905 21.881 42.0831 21.9524 41.9701C22.3899 41.2551 22.8057 40.5805 24.1295 40.5805C25.4534 40.5805 25.8689 41.2551 26.3067 41.9701C26.3769 42.0843 26.4438 42.1905 26.4789 42.2422L28.7733 46.0645H25.2264V48.258H31.388L33.8843 43.2645L31.9222 42.2829L30.622 44.8843Z" fill="#0F0C3D"/>
<path d="M41.6774 52.6453H39.4839V54.8388H41.6774V52.6453Z" fill="#0F0C3D"/>
<path d="M41.6774 48.2581H39.4839V50.4516H41.6774V48.2581Z" fill="#0F0C3D"/>
<path d="M54.8881 16.1927C58.7618 14.1833 61.4194 10.1418 61.4194 5.48375C61.4194 3.06418 59.4518 1.09666 57.0323 1.09666C55.806 1.09666 54.695 1.60228 53.8988 2.41606C52.9117 0.95978 51.2434 0 49.355 0C47.4665 0 45.798 0.95978 44.8111 2.4163C44.0149 1.60252 42.9037 1.09689 41.6777 1.09689C39.2581 1.09689 37.2906 3.06442 37.2906 5.48399C37.2906 10.1432 39.9493 14.1847 43.8251 16.1939C41.3059 16.9749 38.9818 18.3018 36.9723 20.095C34.5584 18.2513 31.7769 16.8792 28.7508 16.1017C32.5258 14.0616 35.0968 10.0683 35.0968 5.48399C35.0968 3.06442 33.1292 1.09689 30.7097 1.09689C29.4834 1.09689 28.3725 1.60252 27.5762 2.4163C26.5891 0.95978 24.9208 0 23.0324 0C21.1439 0 19.4754 0.95978 18.4885 2.4163C17.6923 1.60252 16.5811 1.09689 15.3551 1.09689C12.9355 1.09689 10.968 3.06442 10.968 5.48399C10.968 10.0686 13.5387 14.0619 17.3128 16.1029C7.3757 18.656 0 27.6651 0 38.3872V52.6452C0 61.1124 6.88786 68 15.3548 68H30.7097C36.8198 68 42.0909 64.4047 44.5619 59.2258H58.1289C63.5722 59.2258 68 54.7982 68 49.3547V33.9999C68 25.6447 62.4755 18.5552 54.8881 16.1927ZM39.4839 5.48399C39.4839 4.27432 40.4678 3.29044 41.6774 3.29044C42.8871 3.29044 43.871 4.27432 43.871 5.48399H46.0645C46.0645 3.66995 47.5407 2.19355 49.355 2.19355C51.1692 2.19355 52.6452 3.66972 52.6452 5.48399H54.8387C54.8387 4.27432 55.8226 3.29044 57.0323 3.29044C58.2419 3.29044 59.2258 4.27432 59.2258 5.48399C59.2258 10.9273 54.7982 15.3551 49.3547 15.3551C43.9112 15.3551 39.4839 10.9273 39.4839 5.48399ZM44.1199 18.416C43.1351 19.8561 42.2675 21.9411 41.6313 24.8574C40.7506 23.651 39.759 22.5356 38.6656 21.522C40.2857 20.1292 42.1325 19.0828 44.1199 18.416ZM13.1613 5.48399C13.1613 4.27432 14.1452 3.29044 15.3548 3.29044C16.5645 3.29044 17.5484 4.27432 17.5484 5.48399H19.7419C19.7419 3.66995 21.2181 2.19355 23.0324 2.19355C24.8466 2.19355 26.3226 3.66972 26.3226 5.48399H28.5161C28.5161 4.27432 29.5 3.29044 30.7097 3.29044C31.9193 3.29044 32.9032 4.27432 32.9032 5.48399C32.9032 10.9273 28.4756 15.3551 23.0321 15.3551C17.5886 15.3551 13.1613 10.9273 13.1613 5.48399ZM43.8707 52.6452C43.871 59.9025 37.967 65.8064 30.7097 65.8064H15.3548C8.09753 65.8064 2.19355 59.9025 2.19355 52.6452V38.387C2.19355 28.8889 8.58888 20.8704 17.2938 18.3697C14.1396 21.99 12.0644 28.5388 12.0644 36.1934H14.2579C14.2579 26.0867 18.2754 17.5482 23.0321 17.5482C27.7889 17.5482 31.8063 26.0865 31.8063 36.1934H33.9999C33.9999 28.5391 31.9247 21.9902 28.7705 18.3697C37.4756 20.8702 43.8707 28.8889 43.8707 38.387V52.6452ZM65.8067 49.355H65.8064C65.8064 53.5874 62.3616 57.0325 58.1289 57.0325H45.4173C45.834 55.6408 46.0645 54.17 46.0645 52.6454V38.3872C46.0645 34.4805 45.0797 30.8019 43.3567 27.5753C43.9433 23.6739 45.4821 17.5484 49.355 17.5484C53.414 17.5484 55.9356 24.6927 55.9356 36.1937H58.1292C58.1292 27.8165 56.9171 21.7876 54.6349 18.4335C61.1213 20.6402 65.8067 26.7767 65.8067 34.0001V49.355Z" fill="#0F0C3D"/>
</svg>
