<svg width="39" height="65" viewBox="0 0 39 65" fill="none" xmlns="http://www.w3.org/2000/svg">
<path d="M14.9455 10.0246H24.3299V4.0354H14.9455V10.0246ZM17.2347 6.24671H22.0408V7.81329H17.2347V6.24671Z" fill="#0F0C3D"/>
<path d="M30.8205 12.0539V0.580566H8.45613V12.0551C3.68647 13.7866 0.277771 18.2252 0.277771 23.4311V48.2628C0.277771 53.4687 3.68647 57.9073 8.45613 59.64V64.7096H30.8216V59.64C35.5913 57.9085 39 53.4687 39 48.2628V23.4311C39 18.2252 35.5913 13.7854 30.8205 12.0539ZM2.56694 47.065V24.629H36.7108V47.065H2.56694ZM10.7442 11.2684V2.79187H28.5313V11.2684H26.4107H12.8671H10.7442ZM12.8671 13.4797H26.4107C31.7362 13.4797 36.13 17.4053 36.6573 22.4176H2.62046C3.14777 17.4053 7.54161 13.4797 12.8671 13.4797ZM28.5325 60.4255V62.4983H10.7442V60.4255H12.8671H26.4107H28.5325ZM26.4107 58.2142H12.8671C7.54161 58.2142 3.14663 54.2898 2.61933 49.2774H36.6573C36.13 54.2886 31.7362 58.2142 26.4107 58.2142Z" fill="#0F0C3D"/>
<path d="M25.1522 36.5568C20.8199 33.7981 20.8905 29.0079 20.8962 28.8098L20.9759 26.3191L19.0102 27.9338C18.7369 28.1582 12.3192 33.4844 12.3192 38.2906C12.3192 42.8232 15.1664 45.638 19.7516 45.638C23.2195 45.638 25.7695 44.0015 26.7444 41.1466C27.3366 39.4163 26.6817 37.5291 25.1522 36.5568ZM24.5714 40.4515C23.6876 43.0385 21.1718 43.4255 19.7516 43.4255C17.8303 43.4255 14.6072 42.7579 14.6072 38.2906C14.6072 35.9396 16.9864 33.0045 18.8701 31.1127C19.3268 33.221 20.5636 36.2866 23.8926 38.4051C24.5497 38.8208 24.8356 39.6831 24.5714 40.4515Z" fill="#62E2AA"/>
</svg>
