<svg width="60" height="59" viewBox="0 0 60 59" fill="none" xmlns="http://www.w3.org/2000/svg">
<path d="M45.7777 15.2132H1.24472C0.55733 15.2132 0 14.6558 0 13.9684V4.42514C0 3.73775 0.55733 3.18042 1.24472 3.18042H45.7777C46.4651 3.18042 47.0224 3.73775 47.0224 4.42514V13.9684C47.0224 14.6558 46.4651 15.2132 45.7777 15.2132ZM2.48945 12.7237H44.533V5.66987H2.48945V12.7237Z" fill="#0F0C3D"/>
<path d="M9.19687 8.85104C8.50948 8.85104 7.95215 8.29371 7.95215 7.60631V1.24472C7.95215 0.55733 8.50948 0 9.19687 0C9.88427 0 10.4416 0.55733 10.4416 1.24472V7.60631C10.4416 8.29371 9.88427 8.85104 9.19687 8.85104Z" fill="#0F0C3D"/>
<path d="M15.5584 8.85104C14.8711 8.85104 14.3137 8.29371 14.3137 7.60631V1.24472C14.3137 0.55733 14.8711 0 15.5584 0C16.2458 0 16.8032 0.55733 16.8032 1.24472V7.60631C16.8032 8.29371 16.2458 8.85104 15.5584 8.85104Z" fill="#0F0C3D"/>
<path d="M31.4634 8.85104C30.776 8.85104 30.2186 8.29371 30.2186 7.60631V1.24472C30.2186 0.55733 30.776 0 31.4634 0C32.1507 0 32.7081 0.55733 32.7081 1.24472V7.60631C32.7081 8.29371 32.1507 8.85104 31.4634 8.85104Z" fill="#0F0C3D"/>
<path d="M37.8255 8.85104C37.1381 8.85104 36.5808 8.29371 36.5808 7.60631V1.24472C36.5808 0.55733 37.1381 0 37.8255 0C38.5129 0 39.0703 0.55733 39.0703 1.24472V7.60631C39.0703 8.29371 38.5129 8.85104 37.8255 8.85104Z" fill="#0F0C3D"/>
<path d="M12.0321 21.5749H9.5427C8.8553 21.5749 8.29797 21.0176 8.29797 20.3302C8.29797 19.6428 8.8553 19.0854 9.5427 19.0854H12.0321C12.7195 19.0854 13.2769 19.6428 13.2769 20.3302C13.2769 21.0176 12.7195 21.5749 12.0321 21.5749Z" fill="#0F0C3D"/>
<path d="M24.756 21.5749H22.2665C21.5791 21.5749 21.0218 21.0176 21.0218 20.3302C21.0218 19.6428 21.5791 19.0854 22.2665 19.0854H24.756C25.4434 19.0854 26.0007 19.6428 26.0007 20.3302C26.0007 21.0176 25.4434 21.5749 24.756 21.5749Z" fill="#0F0C3D"/>
<path d="M37.4797 21.5749H34.9903C34.3029 21.5749 33.7455 21.0176 33.7455 20.3302C33.7455 19.6428 34.3029 19.0854 34.9903 19.0854H37.4797C38.1671 19.0854 38.7244 19.6428 38.7244 20.3302C38.7244 21.0176 38.1671 21.5749 37.4797 21.5749Z" fill="#0F0C3D"/>
<path d="M11.8991 27.937H9.67582C8.98842 27.937 8.43109 27.3796 8.43109 26.6922C8.43109 26.0048 8.98842 25.4475 9.67582 25.4475H11.8991C12.5865 25.4475 13.1438 26.0048 13.1438 26.6922C13.1438 27.3796 12.5865 27.937 11.8991 27.937Z" fill="#0F0C3D"/>
<path d="M24.6599 27.937H22.3625C21.6751 27.937 21.1178 27.3796 21.1178 26.6922C21.1178 26.0048 21.6751 25.4475 22.3625 25.4475H24.6599C25.3473 25.4475 25.9046 26.0048 25.9046 26.6922C25.9046 27.3796 25.3473 27.937 24.6599 27.937Z" fill="#0F0C3D"/>
<path d="M37.4797 27.937H34.9903C34.3029 27.937 33.7455 27.3796 33.7455 26.6922C33.7455 26.0048 34.3029 25.4475 34.9903 25.4475H37.4797C38.1671 25.4475 38.7244 26.0048 38.7244 26.6922C38.7244 27.3796 38.1671 27.937 37.4797 27.937Z" fill="#0F0C3D"/>
<path d="M11.8832 34.2985H9.69156C9.00417 34.2985 8.44684 33.7412 8.44684 33.0538C8.44684 32.3664 9.00417 31.8091 9.69156 31.8091H11.8832C12.5706 31.8091 13.1279 32.3664 13.1279 33.0538C13.1279 33.7412 12.5706 34.2985 11.8832 34.2985Z" fill="#0F0C3D"/>
<path d="M24.5998 34.2985H22.4227C21.7353 34.2985 21.178 33.7412 21.178 33.0538C21.178 32.3664 21.7353 31.8091 22.4227 31.8091H24.5998C25.2872 31.8091 25.8445 32.3664 25.8445 33.0538C25.8445 33.7412 25.2872 34.2985 24.5998 34.2985Z" fill="#0F0C3D"/>
<circle cx="45.9165" cy="44.1532" r="13.8303" fill="#FCFBFD"/>
<path d="M45.7777 58.1563C38.0753 58.1563 31.8091 51.8901 31.8091 44.1877C31.8091 36.4854 38.0753 30.2186 45.7777 30.2186C53.48 30.2186 59.7468 36.4854 59.7468 44.1877C59.7468 51.8901 53.48 58.1563 45.7777 58.1563ZM45.7777 32.7081C39.4483 32.7081 34.2986 37.8578 34.2986 44.1877C34.2986 50.5171 39.4483 55.6668 45.7777 55.6668C52.1076 55.6668 57.2573 50.5171 57.2573 44.1877C57.2573 37.8578 52.1076 32.7081 45.7777 32.7081Z" fill="#0F0C3D"/>
<path d="M33.988 40.6609H1.24472C0.55733 40.6609 0 40.1036 0 39.4162V13.9686C0 13.2812 0.55733 12.7239 1.24472 12.7239H45.7777C46.4651 12.7239 47.0224 13.2812 47.0224 13.9686V31.4634C47.0224 32.1508 46.4651 32.7082 45.7777 32.7082C41.0826 32.7082 36.9078 35.5246 35.1416 39.8836C34.9514 40.3534 34.4949 40.6609 33.988 40.6609ZM2.48945 38.1714H33.1767C35.3118 33.6873 39.6136 30.7061 44.533 30.2734V15.2133H2.48945V38.1714Z" fill="#0F0C3D"/>
<path d="M45.7777 35.1975C45.0903 35.1975 44.533 34.6402 44.533 33.9528V31.4634C44.533 30.776 45.0903 30.2186 45.7777 30.2186C46.4651 30.2186 47.0224 30.776 47.0224 31.4634V33.9528C47.0224 34.6402 46.4651 35.1975 45.7777 35.1975Z" fill="#0F0C3D"/>
<path d="M45.7777 58.1564C45.0903 58.1564 44.533 57.5991 44.533 56.9117V54.4222C44.533 53.7348 45.0903 53.1775 45.7777 53.1775C46.4651 53.1775 47.0224 53.7348 47.0224 54.4222V56.9117C47.0224 57.5991 46.4651 58.1564 45.7777 58.1564Z" fill="#0F0C3D"/>
<path d="M58.5021 45.4324H56.0126C55.3252 45.4324 54.7679 44.8751 54.7679 44.1877C54.7679 43.5003 55.3252 42.943 56.0126 42.943H58.5021C59.1895 42.943 59.7468 43.5003 59.7468 44.1877C59.7468 44.8751 59.1895 45.4324 58.5021 45.4324Z" fill="#0F0C3D"/>
<path d="M35.5433 45.4324H33.0539C32.3665 45.4324 31.8091 44.8751 31.8091 44.1877C31.8091 43.5003 32.3665 42.943 33.0539 42.943H35.5433C36.2307 42.943 36.788 43.5003 36.788 44.1877C36.788 44.8751 36.2307 45.4324 35.5433 45.4324Z" fill="#0F0C3D"/>
<path d="M49.4851 49.5314C49.0785 49.5314 48.6798 49.3326 48.441 48.9662L44.7348 43.2768C44.3816 42.7346 44.5026 42.0126 45.0131 41.6151L49.0992 38.434C49.6407 38.011 50.4229 38.1076 50.846 38.6516C51.2684 39.1937 51.1711 39.9759 50.6284 40.3983L47.4454 42.8769L50.5269 47.6072C50.9019 48.1833 50.7396 48.9546 50.1634 49.3296C49.9537 49.4664 49.7179 49.5314 49.4851 49.5314Z" fill="#62E2AA"/>
</svg>
