<svg width="63" height="64" viewBox="0 0 63 64" fill="none" xmlns="http://www.w3.org/2000/svg">
<path d="M10.2969 55.1227H9.62104C6.29448 55.1227 3.5873 52.2357 3.5873 48.9092V38.9728C3.5873 35.6463 6.29448 32.7725 9.62104 32.7725H10.2969C11.946 32.7725 13.4945 34.2814 13.4945 35.9305V51.9505C13.4945 53.5997 11.946 55.1227 10.2969 55.1227ZM9.62104 34.8669C7.35721 34.8669 5.78335 36.709 5.78335 38.9728V43.8572V48.9092C5.78335 51.173 7.35721 53.0142 9.62104 53.0142H10.2969C10.8833 53.0142 11.5667 52.537 11.5667 51.9505V43.8572V35.9305C11.5667 35.3441 10.8833 34.8669 10.2969 34.8669H9.62104Z" fill="#0F0C3D"/>
<path d="M4.55119 48.7793C2.04168 48.7793 0 46.7376 0 44.2281V43.6539C0 41.1435 2.04168 39.1018 4.55119 39.1018C5.08397 39.1018 5.51508 39.5329 5.51508 40.0657V47.8154C5.51508 48.3482 5.08397 48.7793 4.55119 48.7793ZM3.5873 41.2131C2.61588 41.5981 1.92778 42.547 1.92778 43.6539V44.2281C1.92778 45.3342 2.61588 46.283 3.5873 46.668V41.2131Z" fill="#0F0C3D"/>
<path d="M52.6987 54.9419H52.0229C50.3737 54.9419 49.0314 53.5996 49.0314 51.9504V35.9304C49.0314 34.2813 50.3737 32.939 52.0229 32.939H52.6987C56.0253 32.939 58.7325 35.6461 58.7325 38.9727V48.9091C58.7325 52.2356 56.0253 54.9419 52.6987 54.9419ZM52.0229 34.8667C51.4365 34.8667 50.9592 35.344 50.9592 35.9304V51.9504C50.9592 52.5369 51.4365 53.0141 52.0229 53.0141H52.6987C54.9626 53.0141 56.3877 51.4224 56.3877 49.1585V39.0377C56.3877 36.7738 54.9626 34.8667 52.6987 34.8667H52.0229Z" fill="#0F0C3D"/>
<path d="M57.7686 48.7793C57.2358 48.7793 56.8047 48.3482 56.8047 47.8154V40.0657C56.8047 39.5329 57.2358 39.1018 57.7686 39.1018C60.2781 39.1018 62.3198 41.1435 62.3198 43.6539V44.2281C62.3198 46.7376 60.2781 48.7793 57.7686 48.7793ZM58.7325 41.2131V46.668C59.7039 46.283 60.392 45.3342 60.392 44.2281V43.6539C60.392 42.547 59.7039 41.5981 58.7325 41.2131Z" fill="#0F0C3D"/>
<path d="M59.3368 40.4496C58.804 40.4496 58.3729 40.0185 58.3729 39.4857L58.1498 29.1869C58.1498 14.1562 46.1445 2.27418 31.1147 2.27418C16.084 2.27418 4.17939 14.1562 4.17939 29.1869L3.85558 39.1026C3.85558 39.6354 3.42446 40.0665 2.89169 40.0665C2.35891 40.0665 1.9278 39.6354 1.9278 39.1026V29.1869C1.9278 13.0935 15.0213 0 31.1147 0C47.2081 0 60.3007 13.0935 60.3007 29.1869V39.4857C60.3007 40.0185 59.8696 40.4496 59.3368 40.4496Z" fill="#0F0C3D"/>
<path d="M45.9995 61.2071H37.5692C37.0364 61.2071 36.6053 60.776 36.6053 60.2432C36.6053 59.7104 37.0364 59.2793 37.5692 59.2793H45.9995C49.3392 59.2793 52.2573 56.9063 52.9388 53.6372C53.0461 53.1157 53.5487 52.7768 54.0787 52.8907C54.5992 52.999 54.9343 53.5091 54.8251 54.0306C53.9591 58.1893 50.2476 61.2071 45.9995 61.2071Z" fill="#0F0C3D"/>
<path d="M34.7764 64C32.7055 64 31.0206 62.3151 31.0206 60.2433C31.0206 58.1715 32.7055 56.4866 34.7764 56.4866C36.8482 56.4866 38.5331 58.1715 38.5331 60.2433C38.5331 62.3151 36.8482 64 34.7764 64ZM34.7764 58.4144C33.7682 58.4144 32.9484 59.2352 32.9484 60.2433C32.9484 61.2514 33.7682 62.0723 34.7764 62.0723C35.7845 62.0723 36.6053 61.2514 36.6053 60.2433C36.6053 59.2352 35.7845 58.4144 34.7764 58.4144Z" fill="#62E2AA"/>
</svg>
