<svg width="54" height="54" viewBox="0 0 54 54" fill="none" xmlns="http://www.w3.org/2000/svg">
<rect x="19" y="31" width="16" height="21" rx="2" fill="#FCFBFD"/>
<path d="M50.625 0H3.375C2.47989 0 1.62145 0.355579 0.988515 0.988514C0.355579 1.62145 0 2.47989 0 3.375L0 28.125C0 29.0201 0.355579 29.8785 0.988515 30.5115C1.62145 31.1444 2.47989 31.5 3.375 31.5H14.625V29.25H3.375C3.07663 29.25 2.79048 29.1315 2.5795 28.9205C2.36853 28.7095 2.25 28.4234 2.25 28.125V3.375C2.25 3.07663 2.36853 2.79048 2.5795 2.5795C2.79048 2.36853 3.07663 2.25 3.375 2.25H50.625C50.9234 2.25 51.2095 2.36853 51.4205 2.5795C51.6315 2.79048 51.75 3.07663 51.75 3.375V28.125C51.75 28.4234 51.6315 28.7095 51.4205 28.9205C51.2095 29.1315 50.9234 29.25 50.625 29.25H39.375V31.5H50.625C51.5201 31.5 52.3785 31.1444 53.0115 30.5115C53.6444 29.8785 54 29.0201 54 28.125V3.375C54 2.47989 53.6444 1.62145 53.0115 0.988514C52.3785 0.355579 51.5201 0 50.625 0V0Z" fill="#0F0C3D"/>
<path d="M10.125 25.875C10.125 26.1734 10.2435 26.4595 10.4545 26.6705C10.6655 26.8815 10.9516 27 11.25 27H16.875V24.75H12.2816C12.0455 23.3688 11.3866 22.095 10.3958 21.1042C9.405 20.1134 8.13116 19.4545 6.75 19.2184V12.2816C8.13116 12.0455 9.405 11.3866 10.3958 10.3958C11.3866 9.405 12.0455 8.13116 12.2816 6.75H16.875V4.5H11.25C10.9516 4.5 10.6655 4.61853 10.4545 4.82951C10.2435 5.04048 10.125 5.32663 10.125 5.625C10.125 6.81847 9.65089 7.96307 8.80698 8.80698C7.96307 9.65089 6.81847 10.125 5.625 10.125C5.32663 10.125 5.04048 10.2435 4.82951 10.4545C4.61853 10.6655 4.5 10.9516 4.5 11.25V20.25C4.5 20.5484 4.61853 20.8345 4.82951 21.0455C5.04048 21.2565 5.32663 21.375 5.625 21.375C6.81847 21.375 7.96307 21.8491 8.80698 22.693C9.65089 23.5369 10.125 24.6815 10.125 25.875Z" fill="#0F0C3D"/>
<path d="M41.7184 24.75H37.125V27H42.75C43.0484 27 43.3345 26.8815 43.5455 26.6705C43.7565 26.4595 43.875 26.1734 43.875 25.875C43.875 24.6815 44.3491 23.5369 45.193 22.693C46.0369 21.8491 47.1815 21.375 48.375 21.375C48.6734 21.375 48.9595 21.2565 49.1705 21.0455C49.3815 20.8345 49.5 20.5484 49.5 20.25V11.25C49.5 10.9516 49.3815 10.6655 49.1705 10.4545C48.9595 10.2435 48.6734 10.125 48.375 10.125C47.1815 10.125 46.0369 9.65089 45.193 8.80698C44.3491 7.96307 43.875 6.81847 43.875 5.625C43.875 5.32663 43.7565 5.04048 43.5455 4.82951C43.3345 4.61853 43.0484 4.5 42.75 4.5H37.125V6.75H41.7184C41.9545 8.13116 42.6134 9.405 43.6042 10.3958C44.595 11.3866 45.8688 12.0455 47.25 12.2816V19.2184C45.8688 19.4545 44.595 20.1134 43.6042 21.1042C42.6134 22.095 41.9545 23.3688 41.7184 24.75V24.75Z" fill="#0F0C3D"/>
<path d="M6.75 4.5H4.5V6.75H6.75V4.5Z" fill="#0F0C3D"/>
<path d="M49.5 4.5H47.25V6.75H49.5V4.5Z" fill="#0F0C3D"/>
<path d="M49.5 24.75H47.25V27H49.5V24.75Z" fill="#0F0C3D"/>
<path d="M6.75 24.75H4.5V27H6.75V24.75Z" fill="#0F0C3D"/>
<path d="M31.5 29.25H22.5C21.0087 29.2518 19.579 29.845 18.5245 30.8995C17.47 31.954 16.8768 33.3837 16.875 34.875V48.375C16.8768 49.8663 17.47 51.296 18.5245 52.3505C19.579 53.405 21.0087 53.9982 22.5 54H31.5C32.9913 53.9982 34.421 53.405 35.4755 52.3505C36.53 51.296 37.1232 49.8663 37.125 48.375V34.875C37.1232 33.3837 36.53 31.954 35.4755 30.8995C34.421 29.845 32.9913 29.2518 31.5 29.25V29.25ZM34.875 48.375C34.875 49.2701 34.5194 50.1285 33.8865 50.7615C33.2536 51.3944 32.3951 51.75 31.5 51.75H22.5C21.6049 51.75 20.7464 51.3944 20.1135 50.7615C19.4806 50.1285 19.125 49.2701 19.125 48.375V34.875C19.125 33.9799 19.4806 33.1214 20.1135 32.4885C20.7464 31.8556 21.6049 31.5 22.5 31.5H25.875V37.125H22.5V39.375H31.5V37.125H28.125V31.5H31.5C32.3951 31.5 33.2536 31.8556 33.8865 32.4885C34.5194 33.1214 34.875 33.9799 34.875 34.875V48.375Z" fill="#0F0C3D"/>
<path d="M23.9546 3.70459L19.4546 8.20459C19.2437 8.41556 19.1252 8.70165 19.1252 8.99996C19.1252 9.29827 19.2437 9.58437 19.4546 9.79534L23.9546 14.2953L25.5454 12.7046L22.9658 10.125H30.375C30.6755 10.1056 30.9766 10.1506 31.2584 10.2568C31.5401 10.3631 31.796 10.5281 32.0089 10.7411C32.2218 10.954 32.3869 11.2098 32.4931 11.4916C32.5994 11.7733 32.6443 12.0745 32.625 12.375V14.625H34.875V12.375C34.8926 11.7792 34.7882 11.1862 34.5683 10.6323C34.3484 10.0784 34.0175 9.57527 33.5961 9.15385C33.1747 8.73243 32.6716 8.4016 32.1177 8.18167C31.5637 7.96175 30.9707 7.85738 30.375 7.87496H22.9658L25.5454 5.29534L23.9546 3.70459Z" fill="#0F0C3D"/>
<path d="M19.125 18C19.1074 18.5957 19.2118 19.1887 19.4317 19.7427C19.6516 20.2966 19.9825 20.7997 20.4039 21.2211C20.8253 21.6425 21.3284 21.9734 21.8823 22.1933C22.4363 22.4132 23.0293 22.5176 23.625 22.5H31.0343L28.4546 25.0796L30.0454 26.6704L34.5454 22.1704C34.7563 21.9594 34.8748 21.6733 34.8748 21.375C34.8748 21.0767 34.7563 20.7906 34.5454 20.5796L30.0454 16.0796L28.4546 17.6704L31.0343 20.25H23.625C23.3245 20.2693 23.0234 20.2244 22.7416 20.1181C22.4599 20.0119 22.204 19.8468 21.9911 19.6339C21.7782 19.421 21.6131 19.1651 21.5069 18.8834C21.4006 18.6016 21.3557 18.3005 21.375 18V15.75H19.125V18Z" fill="#62E2AA"/>
</svg>
