<svg width="55" height="70" viewBox="0 0 55 70" fill="none" xmlns="http://www.w3.org/2000/svg">
<path d="M18.1561 62.5866C17.437 62.5866 16.8509 62.0857 16.8509 61.4683C16.8509 60.851 17.4343 60.3501 18.1561 60.3501H33.2983C34.0174 60.3501 34.6009 60.851 34.6009 61.4683C34.6009 62.0857 34.0174 62.5866 33.2983 62.5866H18.1561Z" fill="#0F0C3D"/>
<path d="M18.4584 66.1364C17.5709 66.1364 16.8509 65.6355 16.8509 65.0182C16.8509 64.4008 17.5743 63.8999 18.4584 63.8999H32.9933C33.8808 63.8999 34.6009 64.4008 34.6009 65.0182C34.6009 65.6355 33.8808 66.1364 32.9933 66.1364H18.4584Z" fill="#0F0C3D"/>
<path d="M26.4568 51.2622C26.4568 51.8724 25.9622 52.3669 25.3521 52.3669C24.7419 52.3669 24.2474 51.8722 24.2474 51.2622C24.2427 46.5913 24.1087 43.1014 23.4638 39.8703C22.826 36.6763 21.6842 33.7157 19.6573 30.0639C19.3615 29.5301 19.5533 28.8575 20.0849 28.5616C20.6189 28.2658 21.2914 28.4577 21.5896 28.9893C23.7413 32.8674 24.9593 36.0246 25.6388 39.4382C26.3112 42.8079 26.4522 46.4272 26.4568 51.2622Z" fill="#0F0C3D"/>
<path d="M30.7552 51.2627C30.7552 51.8729 30.2606 52.3674 29.6505 52.3674C29.0405 52.3674 28.5458 51.8727 28.5458 51.2627C28.5506 46.4275 28.6914 42.8107 29.3639 39.4387C30.0435 36.0251 31.2615 32.8681 33.4131 28.9897C33.7091 28.4559 34.3838 28.2641 34.9155 28.5621C35.4494 28.858 35.6388 29.5328 35.3431 30.0644C33.3162 33.7161 32.1745 36.6791 31.5366 39.8708C30.8939 43.1019 30.7577 46.5919 30.7552 51.2627Z" fill="#62E2AA"/>
<path d="M20.2858 30.5793C19.7034 30.3944 19.3845 29.7704 19.5694 29.1879C19.7566 28.6055 20.3783 28.2865 20.9608 28.4714C21.7327 28.7211 22.4007 29.0562 23.0177 29.3659L23.0778 29.3983C24.0415 29.8837 24.8436 30.2627 25.4398 29.7773L26.8034 28.6656C27.2772 28.282 27.9754 28.3537 28.3589 28.8274C28.7426 29.3012 28.6709 29.9992 28.1971 30.3829L26.8335 31.4946C25.1347 32.8767 23.7457 32.2042 22.0724 31.3652L22.0216 31.342C21.4807 31.0692 20.8937 30.7757 20.2858 30.5793Z" fill="#0F0C3D"/>
<path d="M28.6114 5.40819C28.6114 6.02066 28.1145 6.51757 27.502 6.51757C26.8895 6.51757 26.3926 6.02066 26.3926 5.40819V1.10938C26.3926 0.49691 26.8895 0 27.502 0C28.1146 0 28.6114 0.49691 28.6114 1.10938V5.40819Z" fill="#0F0C3D"/>
<path d="M34.0416 28.4715C34.624 28.2844 35.2481 28.6057 35.433 29.188C35.6202 29.7704 35.299 30.3945 34.7166 30.5794C34.1088 30.7758 33.5217 31.0717 32.9785 31.3445L32.9278 31.3676C31.2567 32.2065 29.8654 32.8815 28.1667 31.4969L26.8031 30.3853C26.3293 30.0016 26.2577 29.3037 26.6413 28.8299C27.025 28.3561 27.723 28.2845 28.1968 28.6681L29.5605 29.7798C30.1568 30.2651 30.9564 29.8838 31.9225 29.4007L31.9828 29.3684C32.6017 29.0563 33.2696 28.7212 34.0416 28.4715Z" fill="#0F0C3D"/>
<path d="M39.8958 16.4325C43.4666 20.0033 45.6785 24.94 45.6785 30.3898C45.6785 32.5208 45.3365 34.5799 44.7078 36.5099C44.0584 38.5045 43.0946 40.365 41.8812 42.0246C39.8451 44.8095 38.1926 46.6377 36.9099 48.0589C34.601 50.6128 33.5887 51.7316 33.5887 55.4664C33.5887 56.0789 33.0918 56.5758 32.4793 56.5758H32.4514H25.987H19.4926C18.8801 56.5758 18.3809 56.0789 18.3809 55.4664C18.3809 51.7685 17.3478 50.6383 15.0551 48.126L15.0527 48.1237L15.0504 48.126C13.7539 46.707 12.0852 44.8787 9.99811 42.0245C8.78475 40.3649 7.82096 38.5022 7.17156 36.5076C6.54287 34.58 6.20087 32.5184 6.20087 30.3899C6.20087 27.7228 6.7348 25.1712 7.70083 22.8415L7.72163 22.7975C8.72468 20.3938 10.1854 18.2306 11.9858 16.4325C13.7978 14.6206 15.9726 13.1553 18.3948 12.1522V12.1499C20.7244 11.1838 23.276 10.6499 25.9432 10.6499C28.6058 10.6499 31.1549 11.1838 33.487 12.1499C35.9044 13.1529 38.0838 14.6205 39.8958 16.4325ZM43.4574 30.3898C43.4574 25.5525 41.495 21.1728 38.3266 18.0017C36.7066 16.3815 34.7766 15.0781 32.641 14.1952C30.5841 13.3423 28.3191 12.8709 25.9384 12.8709C23.5602 12.8709 21.2953 13.3423 19.2406 14.1952V14.1929L19.2359 14.1952C17.1004 15.0781 15.1729 16.3815 13.5527 18.0017C11.9487 19.6057 10.6522 21.5194 9.76691 23.6318L9.74378 23.6918C8.89331 25.7465 8.41953 28.0115 8.41953 30.3897C8.41953 32.2895 8.72226 34.12 9.27699 35.8233C9.8571 37.5958 10.7099 39.2462 11.7823 40.7161C13.7862 43.4571 15.4179 45.2438 16.6867 46.635L16.6844 46.6372C19.1527 49.3344 20.38 50.6841 20.5718 54.3589H25.9823H31.3929C31.5824 50.6588 32.7865 49.3228 35.2664 46.5817C36.5052 45.2112 38.0976 43.4478 40.0922 40.7206C41.1646 39.253 42.0175 37.6027 42.5953 35.8301C43.1547 34.1201 43.4574 32.2919 43.4574 30.3898Z" fill="#0F0C3D"/>
<path d="M21.66 69.6865C20.9648 69.6865 20.4009 69.1856 20.4009 68.5682C20.4009 67.9508 20.9648 67.45 21.66 67.45H29.7918C30.4869 67.45 31.0509 67.9508 31.0509 68.5682C31.0509 69.1856 30.4869 69.6865 29.7918 69.6865H21.66Z" fill="#0F0C3D"/>
<path d="M41.1119 9.34892C40.8089 9.87586 40.1317 10.0585 39.6024 9.75574C39.0755 9.453 38.8931 8.77581 39.1958 8.24654L41.3453 4.52325C41.648 3.99631 42.3253 3.8137 42.8545 4.11644C43.3838 4.41917 43.5641 5.09636 43.2614 5.62564L41.1119 9.34892Z" fill="#0F0C3D"/>
<path d="M15.8043 8.24853C16.107 8.77547 15.9268 9.45267 15.3975 9.75549C14.8705 10.0582 14.1933 9.87562 13.8906 9.34868L11.7411 5.62529C11.4384 5.09834 11.6209 4.42115 12.1479 4.11841C12.6772 3.81568 13.3544 3.9982 13.6571 4.52514L15.8043 8.24853Z" fill="#0F0C3D"/>
<path d="M6.13675 17.1032C6.6637 17.4059 6.84631 18.0831 6.54357 18.6124C6.24083 19.1393 5.56355 19.3219 5.03661 19.0192L1.31322 16.8697C0.783943 16.567 0.601422 15.8898 0.904159 15.3629C1.2069 14.8336 1.88409 14.6533 2.41336 14.9561L6.13675 17.1032Z" fill="#0F0C3D"/>
<path d="M49.9661 19.0186C49.4368 19.3213 48.7597 19.1388 48.4569 18.6118C48.1541 18.0825 48.3367 17.4053 48.8636 17.1026L52.587 14.9531C53.1161 14.6504 53.7933 14.8329 54.0962 15.3599C54.3989 15.8869 54.2164 16.5664 53.6894 16.8691L49.9661 19.0186Z" fill="#0F0C3D"/>
<path d="M15.9763 35.5855C16.212 36.1471 15.9485 36.7965 15.3869 37.0323C14.8253 37.268 14.1759 37.0045 13.9401 36.4429C13.5633 35.5509 13.2698 34.6103 13.0756 33.6396C12.8838 32.6805 12.7798 31.7005 12.7798 30.716C12.7798 30.1035 13.2791 29.6066 13.8892 29.6066C14.5017 29.6066 14.9986 30.1058 14.9986 30.716C14.9986 31.5827 15.0841 32.417 15.2436 33.2074C15.4077 34.03 15.6573 34.8296 15.9763 35.5855ZM15.9763 25.8438C15.7406 26.4054 15.0911 26.6689 14.5294 26.4331C13.9678 26.1973 13.7043 25.5478 13.9401 24.9863C14.3121 24.1057 14.7675 23.2714 15.2875 22.4971L15.2898 22.4947L15.2875 22.4925C15.8214 21.7021 16.4269 20.9671 17.0902 20.3038C17.7466 19.6474 18.4816 19.0418 19.2812 18.5034V18.5011C20.0485 17.9834 20.8874 17.5281 21.7749 17.1537C22.6648 16.7769 23.6031 16.4834 24.5761 16.2892C25.5353 16.0951 26.5198 15.9934 27.5021 15.9934C28.1147 15.9934 28.6116 16.4903 28.6116 17.1028C28.6116 17.7152 28.1146 18.2122 27.5021 18.2122C26.6331 18.2122 25.7965 18.2977 25.0083 18.4548C24.1832 18.619 23.3858 18.8709 22.6324 19.1898C21.8998 19.4995 21.1925 19.8854 20.52 20.3384H20.5176C19.8636 20.7775 19.2396 21.2952 18.6618 21.873C18.0909 22.4439 17.5732 23.0703 17.1271 23.7336L17.1248 23.7312C16.6742 24.3993 16.2882 25.1065 15.9763 25.8438Z" fill="#0F0C3D"/>
</svg>
