<svg width="58" height="63" viewBox="0 0 58 63" fill="none" xmlns="http://www.w3.org/2000/svg">
<path d="M-0.339233 20.1692C-0.339233 20.8272 0.113028 21.397 0.748266 21.537C9.31707 23.4277 16.0589 30.2632 17.9239 38.9502C18.062 39.5935 18.624 40.052 19.2731 40.052C19.9228 40.052 20.4841 39.5935 20.6222 38.9502C22.4872 30.2632 29.229 23.4277 37.7978 21.537C38.4324 21.397 38.8853 20.8272 38.8853 20.1692C38.8853 19.5112 38.4324 18.9414 37.7978 18.8014C35.4053 18.2736 33.1261 17.3552 31.0222 16.0714C30.369 15.6738 29.5197 15.8866 29.1268 16.5495C28.7333 17.2117 28.9446 18.072 29.5977 18.471C30.6638 19.122 31.7707 19.6883 32.9113 20.1699C26.7551 22.7655 21.8326 27.7572 19.2724 33.9977C16.7121 27.7572 11.7883 22.7655 5.6327 20.1699C11.789 17.5743 16.7128 12.5819 19.2731 6.34071C20.4296 9.15821 22.0833 11.7615 24.1644 14.0148C24.6857 14.579 25.5598 14.6091 26.1164 14.0799C26.6729 13.5514 26.7019 12.6652 26.1806 12.101C23.4035 9.09381 21.4812 5.39011 20.6222 1.38891C20.4841 0.74561 19.9228 0.287109 19.2731 0.287109C18.624 0.287109 18.062 0.74561 17.9239 1.38891C16.0582 10.0759 9.31639 16.9114 0.748266 18.8021C0.113719 18.9414 -0.339233 19.5105 -0.339233 20.1692Z" fill="#0F0C3D"/>
<path d="M58.3449 39.4674C58.3449 38.8094 57.8926 38.2396 57.258 38.0996C51.7902 36.8921 47.4885 32.5311 46.2981 26.9885C46.16 26.3452 45.5987 25.8867 44.9489 25.8867C44.2999 25.8867 43.7378 26.3452 43.5997 26.9885C42.4094 32.5311 38.107 36.8921 32.6391 38.0996C32.0046 38.2396 31.5523 38.8094 31.5523 39.4674C31.5523 40.1254 32.0053 40.6952 32.6398 40.8352C34.7547 41.3021 36.7744 42.273 38.4805 43.6436C39.0785 44.1245 39.9478 44.0223 40.4208 43.4161C40.8945 42.8106 40.7943 41.93 40.1964 41.4491C39.238 40.6784 38.1961 40.0141 37.0975 39.4688C40.5071 37.7741 43.2773 34.9657 44.9496 31.5112C46.6206 34.9657 49.3901 37.7727 52.7976 39.4674C49.3901 41.1614 46.6206 43.9698 44.9496 47.4229C44.6651 46.8363 44.3475 46.2644 43.9968 45.7086C43.5852 45.0576 42.7311 44.8672 42.089 45.2851C41.4468 45.703 41.2597 46.5682 41.6712 47.2199C42.5903 48.6738 43.2393 50.2642 43.6004 51.947C43.7385 52.5903 44.3006 53.0488 44.9496 53.0488C45.5994 53.0488 46.1607 52.5903 46.2988 51.947C47.4892 46.4037 51.7909 42.0427 57.2587 40.8359C57.8919 40.6952 58.3449 40.1254 58.3449 39.4674Z" fill="#0F0C3D"/>
<path d="M24.5394 44.7617C24.4013 44.1184 23.8393 43.6599 23.1902 43.6599C22.5405 43.6599 21.9791 44.1184 21.841 44.7617C21.085 48.2827 18.3528 51.0526 14.8803 51.8191C14.2458 51.9591 13.7928 52.5289 13.7928 53.1869C13.7928 53.8449 14.2451 54.4147 14.8797 54.5547C18.3528 55.3219 21.085 58.0918 21.841 61.6121C21.9791 62.2554 22.5405 62.7139 23.1902 62.7139C23.8393 62.7139 24.4013 62.2554 24.5394 61.6121C25.2955 58.0918 28.0277 55.3219 31.5008 54.5547C32.1353 54.4147 32.5876 53.8449 32.5876 53.1869C32.5876 52.5289 32.1347 51.9591 31.5001 51.8191C28.0277 51.0533 25.2955 48.2834 24.5394 44.7617ZM23.1895 57.5122C22.158 55.7258 20.6859 54.2327 18.9238 53.1869C20.6859 52.1418 22.158 50.6487 23.1895 48.8623C24.2211 50.6487 25.6932 52.1418 27.4553 53.1869C25.6939 54.2334 24.2218 55.7258 23.1895 57.5122Z" fill="#0F0C3D"/>
<path d="M9.14855 42.042C9.09331 41.9657 9.03807 41.895 8.97593 41.825C8.45807 41.307 7.53974 41.307 7.02188 41.825C6.95974 41.895 6.8976 41.965 6.84926 42.042C6.80093 42.1127 6.7595 42.1967 6.72498 42.28C6.69045 42.364 6.66284 42.455 6.64212 42.5467C6.62831 42.63 6.6145 42.7287 6.6145 42.8197C6.6145 43.0017 6.64903 43.1837 6.71807 43.3517C6.79403 43.5197 6.89069 43.6737 7.02188 43.8067C7.28426 44.0727 7.6295 44.2197 7.99545 44.2197C8.36831 44.2197 8.71355 44.0727 8.97593 43.8067C9.10712 43.6737 9.20379 43.5197 9.27284 43.3517C9.34188 43.1837 9.37641 43.0017 9.37641 42.8197C9.37641 42.7287 9.3695 42.63 9.34879 42.5467C9.33498 42.455 9.30736 42.364 9.27284 42.28C9.23831 42.196 9.19688 42.119 9.14855 42.042Z" fill="#0F0C3D"/>
<path d="M43.0372 13.1042C42.9888 13.0272 42.9267 12.9572 42.8645 12.8942C42.8024 12.8312 42.7333 12.7682 42.6574 12.7192C42.5814 12.6702 42.4986 12.6212 42.4157 12.5862C42.3329 12.5582 42.25 12.5302 42.1602 12.5099C41.9807 12.4742 41.7943 12.4742 41.6217 12.5099C41.5319 12.5302 41.4422 12.5582 41.3593 12.5862C41.2764 12.6219 41.2005 12.6702 41.1245 12.7192C41.0486 12.7682 40.9795 12.8312 40.9105 12.8942C40.8483 12.9572 40.7931 13.0265 40.7379 13.1042C40.6895 13.1812 40.6481 13.2652 40.6136 13.3492C40.5791 13.4332 40.5514 13.5172 40.5376 13.6082C40.5169 13.6992 40.51 13.7909 40.51 13.8819C40.51 14.0709 40.5445 14.2522 40.6136 14.4209C40.6826 14.5896 40.7793 14.7429 40.9105 14.8759C41.1729 15.1349 41.5181 15.2819 41.891 15.2819C42.2569 15.2819 42.6022 15.1349 42.8645 14.8759C43.1269 14.6099 43.2719 14.2599 43.2719 13.8819C43.2719 13.7909 43.2581 13.6992 43.2443 13.6082C43.2236 13.5172 43.196 13.4332 43.1614 13.3492C43.1269 13.2652 43.0855 13.1812 43.0372 13.1042Z" fill="#62E2AA"/>
<path d="M34.8135 52.4231C34.8618 52.5001 34.924 52.5701 34.9861 52.6408C35.1173 52.7668 35.2692 52.8718 35.4349 52.9418C35.6006 53.0118 35.7802 53.0468 35.9597 53.0468C36.1461 53.0468 36.3256 53.0111 36.4913 52.9418C36.6571 52.8718 36.809 52.7668 36.9402 52.6408C37.0023 52.5701 37.0644 52.5008 37.1128 52.4231C37.1611 52.3468 37.2025 52.2691 37.2371 52.1851C37.2716 52.1011 37.2992 52.0101 37.313 51.9261C37.3337 51.8351 37.3406 51.7441 37.3406 51.6468C37.3406 51.5551 37.3337 51.4641 37.313 51.3731C37.2992 51.2821 37.2716 51.1981 37.2371 51.1141C37.2025 51.0301 37.1611 50.9468 37.1128 50.8691C37.0575 50.7921 37.0023 50.7221 36.9402 50.6591C36.4223 50.1341 35.504 50.1341 34.9861 50.6591C34.924 50.7221 34.8618 50.7914 34.8135 50.8691C34.7652 50.9461 34.7237 51.0294 34.6892 51.1141C34.6547 51.1981 34.6271 51.2821 34.6064 51.3731C34.5925 51.4641 34.5787 51.5551 34.5787 51.6468C34.5787 51.7448 34.5925 51.8358 34.6064 51.9261C34.6271 52.0101 34.6547 52.1011 34.6823 52.1851C34.7168 52.2691 34.7652 52.3461 34.8135 52.4231Z" fill="#0F0C3D"/>
<path d="M28.8272 32.2765C28.8755 32.3535 28.9376 32.4235 28.9998 32.4872C29.0688 32.5572 29.1379 32.6132 29.2138 32.6622C29.2898 32.7182 29.3657 32.7602 29.4486 32.7945C29.5315 32.8288 29.6212 32.8575 29.7041 32.8715C29.7938 32.8925 29.8836 32.8995 29.9803 32.8995C30.3462 32.8995 30.6915 32.7525 30.9538 32.4865C31.016 32.4228 31.0781 32.3535 31.1265 32.2758C31.1748 32.1995 31.2231 32.1218 31.2507 32.0378C31.2853 31.9538 31.3129 31.8628 31.3336 31.7718C31.3474 31.6878 31.3612 31.5898 31.3612 31.4988C31.3612 31.4078 31.3474 31.3168 31.3336 31.2251C31.3129 31.1341 31.2853 31.0431 31.2507 30.9591C31.2162 30.8751 31.1748 30.7988 31.1265 30.7211C31.0781 30.6448 31.016 30.5741 30.9538 30.5111C30.8917 30.4411 30.8226 30.3851 30.7467 30.3361C30.6707 30.2871 30.5879 30.2381 30.505 30.2031C30.4222 30.1681 30.3393 30.1401 30.2495 30.1268C29.8007 30.0358 29.3243 30.1828 28.9998 30.5118C28.9376 30.5748 28.8824 30.6448 28.8272 30.7218C28.7788 30.7988 28.7374 30.8758 28.7029 30.9598C28.6684 31.0438 28.6407 31.1348 28.6269 31.2258C28.6062 31.3182 28.5993 31.4092 28.5993 31.5002C28.5993 31.5912 28.6062 31.6892 28.6269 31.7732C28.6407 31.8642 28.6684 31.9552 28.7029 32.0392C28.7374 32.1232 28.7788 32.2002 28.8272 32.2765Z" fill="#0F0C3D"/>
</svg>
