<svg width="60" height="57" viewBox="0 0 60 57" fill="none" xmlns="http://www.w3.org/2000/svg">
<g clip-path="url(#clip0)">
<path d="M59.3442 24.0875C59.2047 23.09 58.6466 22.3062 57.8791 21.7362L31.7861 2.7125C31.1582 2.285 30.4605 2 29.6931 2C28.9256 2 28.228 2.21375 27.6001 2.7125L22.507 6.4175V5.34875C22.507 3.78125 21.2512 2.49875 19.7163 2.49875H14.9024C13.3675 2.49875 12.1117 3.78125 12.1117 5.34875V13.97L1.50704 21.7362C0.739596 22.3062 0.181456 23.1612 0.0419215 24.0875C-0.0976133 25.085 0.111689 26.0112 0.669828 26.795C1.3675 27.7212 2.41401 28.3625 3.60006 28.3625C4.3675 28.3625 5.06518 28.1487 5.69308 27.65L5.90239 27.5075V55.5087C5.90239 55.865 6.04192 56.15 6.25122 56.435C6.46053 56.6488 6.80936 56.7912 7.1582 56.7912H23.2745H36.1815H52.2977C52.6466 56.7912 52.9256 56.6488 53.2047 56.435C53.414 56.2212 53.5535 55.865 53.5535 55.5087V27.5075L53.7628 27.65C54.3908 28.0775 55.0884 28.3625 55.8559 28.3625C57.0419 28.3625 58.0884 27.7925 58.7861 26.795C59.2745 26.0112 59.4838 25.0138 59.3442 24.0875ZM14.6233 5.34875C14.6233 5.135 14.7629 4.9925 14.9722 4.9925H19.7861C19.9954 4.9925 20.1349 5.135 20.1349 5.34875V8.19875L14.6931 12.1887V5.34875H14.6233ZM34.9256 54.2975H24.4605V37.625C24.4605 37.4112 24.6001 37.2687 24.8094 37.2687H34.5768C34.7861 37.2687 34.9256 37.4112 34.9256 37.625V54.2975ZM51.0419 54.2975H37.3675V37.625C37.3675 36.0575 36.1117 34.775 34.5768 34.775H24.8094C23.2745 34.775 22.0187 36.0575 22.0187 37.625V54.2975H8.34425V25.7262L29.6931 10.1937L51.0419 25.7262V54.2975ZM56.6931 25.37C56.4838 25.655 56.1349 25.8687 55.7861 25.8687C55.5768 25.8687 55.3675 25.7975 55.1582 25.655L29.6931 7.13L4.22797 25.655C4.01867 25.7975 3.80936 25.8687 3.60006 25.8687C3.25122 25.8687 2.90239 25.7262 2.69308 25.37C2.34425 24.8712 2.48378 24.1587 2.97215 23.8025L29.0652 4.85C29.2745 4.7075 29.4838 4.63625 29.6931 4.63625C29.9024 4.63625 30.1117 4.7075 30.321 4.85L56.414 23.7312C56.9024 24.1587 57.0419 24.8 56.6931 25.37ZM27.0419 44.8212C26.1349 44.8212 25.3675 45.605 25.3675 46.5312C25.3675 47.4575 26.1349 48.2412 27.0419 48.2412C27.9489 48.2412 28.7163 47.4575 28.7163 46.5312C28.7163 45.605 27.9489 44.8212 27.0419 44.8212ZM23.2745 23.7312C23.2745 27.365 26.1349 30.2862 29.6931 30.2862C33.2512 30.2862 36.1117 27.365 36.1117 23.7312C36.1117 20.0975 33.2512 17.1762 29.6931 17.1762C26.1349 17.1762 23.2745 20.0975 23.2745 23.7312ZM34.0187 23.7312C34.0187 26.1537 32.0652 28.1488 29.6931 28.1488C27.321 28.1488 25.3675 26.1537 25.3675 23.7312C25.3675 21.3088 27.321 19.3137 29.6931 19.3137C32.0652 19.2425 34.0187 21.2375 34.0187 23.7312Z" fill="#0F0C3D"/>
<rect x="27.0001" y="22.9143" width="5" height="0.555556" rx="0.277778" fill="#62E2AA"/>
<rect x="27.0001" y="24.0254" width="5" height="0.555556" rx="0.277778" fill="#62E2AA"/>
<path d="M30.3198 21.2476V24.0346L28.689 21.2476H27.5556V26.2476H28.6803V23.2669L30.4296 26.2476H31.4445V21.2476H30.3198Z" fill="#62E2AA"/>
</g>
<defs>
<clipPath id="clip0">
<rect width="60" height="57" fill="white"/>
</clipPath>
</defs>
</svg>
