<svg width="53" height="56" viewBox="0 0 53 56" fill="none" xmlns="http://www.w3.org/2000/svg">
<path d="M22 42C33.0457 42 42 33.0457 42 22C42 10.9543 33.0457 2 22 2C10.9543 2 2 10.9543 2 22C2 33.0457 10.9543 42 22 42Z" stroke="#0F0C3D" stroke-width="3" stroke-linecap="round" stroke-linejoin="round"/>
<path fill-rule="evenodd" clip-rule="evenodd" d="M26.9127 15H24.2182V18.5H21.6764L19.7291 15H17.4055V18.5H14V20.8571H17.4055V22.4286H14V24.7857H17.4055V28.7143H20.1055V24.7857H22.4154L24.6218 28.7143H26.9127V24.7857H30V22.4286H26.9127V20.8571H30V18.5H26.9127V15ZM24.2182 22.4286V20.8571H22.9879L23.8622 22.4286H24.2182ZM21.0915 22.4286L20.209 20.8571H20.1055V22.4286H21.0915Z" fill="#62E2AA"/>
<path d="M51.017 53.4871L35.3457 36.7906" stroke="#0F0C3D" stroke-width="3" stroke-linecap="round" stroke-linejoin="round"/>
</svg>
