<svg width="52" height="64" viewBox="0 0 52 64" fill="none" xmlns="http://www.w3.org/2000/svg">
<path d="M47.0476 30.3757C47.0476 30.0442 46.9172 29.7263 46.685 29.4918C46.4528 29.2574 46.1379 29.1257 45.8096 29.1257C45.4812 29.1257 45.1663 29.2574 44.9341 29.4918C44.7019 29.7263 44.5715 30.0442 44.5715 30.3757C44.5693 32.3642 43.7859 34.2706 42.3933 35.6766C41.0006 37.0827 39.1124 37.8736 37.1429 37.8757C36.8145 37.8757 36.4996 38.0074 36.2674 38.2419C36.0352 38.4763 35.9048 38.7942 35.9048 39.1257C35.9048 39.4573 36.0352 39.7752 36.2674 40.0096C36.4996 40.244 36.8145 40.3757 37.1429 40.3757C39.7689 40.3728 42.2865 39.3183 44.1434 37.4435C46.0003 35.5688 47.0447 33.027 47.0476 30.3757Z" fill="#0F0C3D"/>
<path d="M21.2536 42.5595C20.5993 43.556 14.8571 52.4047 14.8571 56.1255C14.8571 60.394 18.259 64.0005 22.2857 64.0005C26.3123 64.0005 29.7142 60.394 29.7142 56.1255C29.7142 52.4047 23.9721 43.556 23.3178 42.5595C23.2048 42.3875 23.0515 42.2464 22.8714 42.1487C22.6913 42.0511 22.4901 42 22.2857 42C22.0813 42 21.88 42.0511 21.6999 42.1487C21.5199 42.2464 21.3665 42.3875 21.2536 42.5595ZM27.238 56.1255C27.238 58.9887 24.9239 61.5005 22.2857 61.5005C19.6474 61.5005 17.3333 58.9887 17.3333 56.1255C17.3333 54.1992 20.0528 49.1718 22.2857 45.5629C24.5186 49.1718 27.238 54.1992 27.238 56.1255Z" fill="#0F0C3D"/>
<path d="M8.66667 20.7507C8.46632 20.7507 8.26897 20.7998 8.09156 20.8938C7.91414 20.9878 7.76196 21.1238 7.64809 21.2902C6.86511 22.4344 0 32.596 0 37.0007C0 39.3214 0.913093 41.547 2.53841 43.1879C4.16372 44.8289 6.36812 45.7507 8.66667 45.7507C10.9652 45.7507 13.1696 44.8289 14.7949 43.1879C16.4202 41.547 17.3333 39.3214 17.3333 37.0007C17.3333 32.596 10.4682 22.4344 9.68525 21.2902C9.57137 21.1238 9.41919 20.9878 9.24178 20.8938C9.06436 20.7998 8.86701 20.7507 8.66667 20.7507ZM8.66667 43.2507C7.02541 43.2489 5.45191 42.5898 4.29137 41.4181C3.13082 40.2464 2.47803 38.6578 2.47619 37.0007C2.47619 34.5832 5.93852 28.4461 8.66667 24.242C11.3948 28.4456 14.8571 34.5819 14.8571 37.0007C14.8553 38.6578 14.2025 40.2464 13.042 41.4181C11.8814 42.5898 10.3079 43.2489 8.66667 43.2507Z" fill="#0F0C3D"/>
<path d="M24.7619 29.1257C24.7619 29.373 24.6893 29.6146 24.5532 29.8202C24.4172 30.0258 24.2238 30.186 23.9976 30.2806C23.7714 30.3752 23.5224 30.3999 23.2823 30.3517C23.0421 30.3035 22.8215 30.1844 22.6483 30.0096C22.4752 29.8348 22.3573 29.6121 22.3095 29.3696C22.2617 29.1271 22.2862 28.8758 22.3799 28.6474C22.4737 28.419 22.6323 28.2237 22.836 28.0864C23.0396 27.949 23.2789 27.8757 23.5238 27.8757C23.8522 27.8757 24.1671 28.0074 24.3993 28.2418C24.6315 28.4763 24.7619 28.7942 24.7619 29.1257Z" fill="#0F0C3D"/>
<path d="M38.1858 0.57751C38.0739 0.400486 37.9196 0.25478 37.7372 0.153845C37.5548 0.05291 37.3501 0 37.1421 0C36.9341 0 36.7295 0.05291 36.5471 0.153845C36.3647 0.25478 36.2104 0.400486 36.0985 0.57751C35.742 1.14151 27.3263 14.4911 23.8132 23.9025C23.6974 24.2127 23.7084 24.5567 23.8437 24.8588C23.9791 25.1608 24.2278 25.3962 24.535 25.5131C24.8423 25.6301 25.183 25.619 25.4822 25.4823C25.7813 25.3457 26.0145 25.0946 26.1303 24.7844C28.8358 17.5354 34.7481 7.53876 37.1455 3.60714C41.3782 10.518 49.523 24.9389 49.523 30.3754C49.5226 33.3947 48.4398 36.3118 46.4749 38.5879C44.5099 40.864 41.7955 42.3453 38.833 42.7581C35.8705 43.1708 32.8602 42.4873 30.358 40.8336C27.8559 39.18 26.031 36.668 25.2206 33.7616C25.1766 33.6036 25.1023 33.4558 25.0018 33.3267C24.9012 33.1977 24.7765 33.0899 24.6348 33.0095C24.493 32.9291 24.3369 32.8777 24.1754 32.8582C24.014 32.8387 23.8503 32.8515 23.6937 32.8959C23.5372 32.9403 23.3908 33.0153 23.263 33.1168C23.1352 33.2183 23.0284 33.3442 22.9488 33.4873C22.8692 33.6305 22.8182 33.788 22.7989 33.9511C22.7796 34.1141 22.7923 34.2793 22.8362 34.4374C23.8084 37.9253 25.998 40.9401 29.0005 42.9248C32.003 44.9096 35.6155 45.7302 39.1707 45.235C42.7259 44.7398 45.9834 42.9623 48.3415 40.2309C50.6995 37.4995 51.9988 33.9987 51.9992 30.3754C51.9992 23.4853 41.7172 6.15226 38.1858 0.57751Z" fill="#0F0C3D"/>
<path d="M24.1814 10.0125H18.1121V3.8845C18.1121 3.60538 17.7367 3 16.9858 3C16.2349 3 15.8592 3.60525 15.8592 3.88437V10.0125H9.79026C9.51379 10.0125 8.91431 10.3913 8.91431 11.1493C8.91431 11.9073 9.51379 12.2867 9.79026 12.2867H15.86V18.4144C15.86 18.6935 16.2354 19.2987 16.9867 19.2987C17.738 19.2987 18.1134 18.6934 18.1134 18.4144V12.2864H24.1826C24.4591 12.2864 25.0586 11.9074 25.0586 11.1489C25.0586 10.3904 24.4579 10.0125 24.1814 10.0125Z" fill="#62E2AA"/>
</svg>
