<svg width="63" height="63" viewBox="0 0 63 63" fill="none" xmlns="http://www.w3.org/2000/svg">
<path d="M54.2019 44.4252C54.1947 44.4133 54.1875 44.4012 54.1803 44.3892C54.1274 44.3027 54.0731 44.2169 54.0176 44.1317C53.9871 44.0847 53.9563 44.0379 53.9251 43.9913C53.8871 43.9349 53.8487 43.8786 53.8094 43.8228C53.7588 43.7503 53.7073 43.6787 53.655 43.6076C53.6394 43.5864 53.6248 43.5647 53.6092 43.5437C53.598 43.5288 53.5862 43.5147 53.575 43.4998C53.512 43.4162 53.4477 43.3339 53.3823 43.2525C53.3594 43.2239 53.3368 43.1952 53.3138 43.1671C53.2487 43.0876 53.1821 43.0093 53.1148 42.9318C53.0868 42.8994 53.0591 42.8668 53.0308 42.8348C52.9747 42.7716 52.9171 42.7097 52.8595 42.6479C52.8165 42.6017 52.774 42.5551 52.7303 42.5097C52.6976 42.4758 52.6637 42.4428 52.6305 42.4093C51.3562 41.1196 49.786 40.1776 48.0181 39.6571C47.9878 39.6482 47.9571 39.6408 47.9259 39.635C47.9256 39.635 39.5837 38.0853 39.5833 38.0852C39.5686 38.0825 39.5538 38.0818 39.5391 38.0794C39.1487 38.0159 38.75 38.0682 38.392 38.225C38.1016 37.8684 37.9103 37.3786 37.9103 36.926V35.4157C38.4375 35.0791 38.9495 34.7007 39.4437 34.2752C41.511 32.4952 42.813 29.9259 43.0939 27.123C44.6118 27.0528 45.8249 25.796 45.8249 24.2612V22.1093C45.8249 21.2391 45.435 20.4339 44.7785 19.8964V14.9497C47.7949 13.4632 48.4504 11.7301 48.4504 10.5072C48.4504 8.40902 46.4961 5.78271 43.3503 3.65302C41.3349 2.28879 37.1154 0 31.4995 0C25.8837 0 21.6643 2.28879 19.6489 3.65302C16.5031 5.78259 14.5488 8.4089 14.5488 10.5072C14.5488 11.7301 15.2043 13.4632 18.2207 14.9497V19.8964C17.5644 20.4339 17.1743 21.2391 17.1743 22.1093V24.2612C17.1743 25.796 18.3874 27.0528 19.9053 27.123C20.1861 29.9259 21.4882 32.4953 23.5555 34.2752C24.0497 34.7007 24.5617 35.0791 25.0889 35.4157V36.926C25.0889 37.3786 24.8976 37.8683 24.6072 38.2249C24.2357 38.0621 23.8201 38.0099 23.4158 38.0852L15.0734 39.635C15.0423 39.6408 15.0115 39.6482 14.9812 39.6571C13.2142 40.1774 11.6447 41.1186 10.3707 42.4074C10.3366 42.4417 10.3021 42.4755 10.2685 42.5102C10.2255 42.5549 10.1835 42.6009 10.1412 42.6464C10.083 42.709 10.0249 42.7715 9.96806 42.8353C9.94012 42.8668 9.91281 42.8991 9.88512 42.9309C9.81745 43.0088 9.75063 43.0874 9.68529 43.1673C9.66228 43.1954 9.63989 43.2239 9.61713 43.2522C9.55166 43.3339 9.48719 43.4162 9.42419 43.4998C9.41299 43.5147 9.40118 43.5287 9.38998 43.5437C9.37423 43.5647 9.35971 43.5864 9.34421 43.6076C9.29191 43.6787 9.24036 43.7503 9.18978 43.8228C9.15053 43.8788 9.11202 43.9351 9.074 43.9916C9.04287 44.038 9.01223 44.0846 8.98183 44.1315C8.92634 44.2168 8.87195 44.3027 8.81892 44.3892C8.81166 44.4011 8.8044 44.4132 8.79726 44.4251C7.77733 46.1058 7.24097 48.0142 7.24097 50.0048V51.1299C7.24097 51.6398 7.65428 52.053 8.16406 52.053C8.67385 52.053 9.08716 51.6397 9.08716 51.1299V50.0048C9.08716 49.1051 9.22055 48.2259 9.47747 47.386C10.0207 47.818 10.68 48.0481 11.3653 48.0481C11.4748 48.0481 11.5851 48.0422 11.6955 48.0302C12.5038 47.9436 13.23 47.5473 13.7403 46.9145L14.7449 45.6686C15.2551 45.0358 15.4884 44.242 15.4018 43.4337C15.3329 42.7914 15.0679 42.2013 14.6446 41.7297C14.9099 41.6218 15.1808 41.5245 15.4585 41.4412L20.7817 40.4524L25.0056 46.3632C25.4284 46.9546 26.0904 47.2806 26.777 47.2806C27.0651 47.2806 27.3574 47.2233 27.6382 47.1041L27.9194 46.9846L29.1486 48.4137L27.3756 61.1537H15.7755V53.6684C15.7755 53.1585 15.3622 52.7453 14.8524 52.7453C14.3426 52.7453 13.9293 53.1585 13.9293 53.6684V61.1537H10.2367C9.60285 61.1537 9.08741 60.6381 9.08741 60.0044V55.4254C9.08741 54.9155 8.67409 54.5023 8.16431 54.5023C7.65453 54.5023 7.24121 54.9156 7.24121 55.4254V60.0044C7.24121 61.6561 8.58501 63 10.2368 63H52.7628C54.4146 63 55.7584 61.6561 55.7584 60.0044V50.005C55.7581 48.0144 55.2219 46.1059 54.2019 44.4252ZM13.3075 44.51L12.303 45.756C12.1023 46.0049 11.8167 46.1607 11.4988 46.1949C11.1813 46.2288 10.8686 46.1373 10.6197 45.9365L10.2345 45.6259C10.3171 45.4785 10.4038 45.3338 10.4941 45.1919C10.4951 45.1903 10.4963 45.1887 10.4973 45.187C10.5748 45.0654 10.6564 44.9471 10.7394 44.8298C10.7647 44.7944 10.7898 44.7589 10.8155 44.7237C10.8896 44.6223 10.9657 44.5228 11.0439 44.4248C11.064 44.3995 11.0838 44.3738 11.1043 44.3487C11.1925 44.2405 11.2835 44.1349 11.3767 44.0312C11.4039 44.0008 11.4316 43.971 11.4591 43.9411C11.5514 43.8411 11.6452 43.7425 11.742 43.6469C11.7503 43.6387 11.7584 43.6302 11.7668 43.622C12.1237 43.2719 12.5107 42.9512 12.925 42.6636L13.1273 42.8267C13.3762 43.0274 13.5321 43.313 13.5662 43.6309C13.6 43.9488 13.5084 44.2608 13.3075 44.51ZM49.872 42.8265L50.0743 42.6633C50.4887 42.951 50.8756 43.2716 51.2326 43.6217C51.2409 43.63 51.2489 43.6385 51.2573 43.6467C51.3541 43.7424 51.4479 43.841 51.5402 43.9409C51.5677 43.9708 51.5954 44.0006 51.6226 44.031C51.7158 44.1347 51.8068 44.2404 51.895 44.3484C51.9155 44.3735 51.9353 44.3993 51.9555 44.4246C52.0336 44.5225 52.1098 44.6222 52.1838 44.7235C52.2096 44.7585 52.2348 44.7941 52.2599 44.8295C52.3429 44.9468 52.4245 45.0653 52.502 45.1867C52.5031 45.1884 52.5043 45.1899 52.5052 45.1917C52.5957 45.3335 52.6823 45.4782 52.7649 45.6257L52.3796 45.9362C52.1306 46.1369 51.8181 46.2285 51.5006 46.1946C51.1826 46.1605 50.897 46.0046 50.6962 45.7556L49.6917 44.5097C49.2772 43.9959 49.3583 43.2409 49.872 42.8265ZM38.8504 40.1191C38.8516 40.1182 38.8528 40.1172 38.854 40.1162L39.0956 39.9356C39.1385 39.9035 39.1935 39.8911 39.246 39.9005L40.2142 40.0804L36.4915 45.2897C36.3984 45.4202 36.2303 45.4674 36.0828 45.4048L33.3383 44.2389L38.8504 40.1191ZM31.4995 43.3082L26.1203 39.2875C26.6285 38.6204 26.9352 37.7712 26.9352 36.926V36.3856C28.3591 36.9821 29.8806 37.294 31.4893 37.312C31.4928 37.312 31.4962 37.312 31.4997 37.312C31.5031 37.312 31.5066 37.312 31.51 37.312C33.1187 37.2939 34.6402 36.982 36.0641 36.3856V36.926C36.0641 37.7713 36.3708 38.6204 36.8789 39.2875L31.4995 43.3082ZM33.2965 46.2271L32.4556 47.2047H30.5438L29.7029 46.2271L31.4997 45.4639L33.2965 46.2271ZM18.2207 12.8454C17.0343 12.114 16.3952 11.306 16.3952 10.5071C16.3952 8.84301 18.6183 6.58018 20.6838 5.18187C22.5241 3.93627 26.3762 1.84632 31.4995 1.84632C36.6228 1.84632 40.4749 3.93627 42.3152 5.182C44.3808 6.5803 46.6039 8.84313 46.6039 10.5072C46.6039 11.306 45.9648 12.1141 44.7784 12.8455V11.1667C44.7784 9.86307 43.896 8.72698 42.6325 8.40398C40.2425 7.79317 35.543 6.76844 30.9216 6.76659C30.9174 6.76659 30.914 6.76659 30.9098 6.76659C26.9079 6.76659 22.932 7.64773 20.3009 8.38724C19.0761 8.73153 18.2207 9.86036 18.2207 11.1323V12.8454ZM21.4222 16.0864C21.4093 16.0782 21.3962 16.07 21.3834 16.0618C21.3236 16.0235 21.266 15.985 21.21 15.9464C21.1872 15.9306 21.1647 15.9149 21.1426 15.899C21.0968 15.8665 21.0524 15.8338 21.0093 15.8011C20.9796 15.7784 20.951 15.7558 20.9227 15.7331C20.8887 15.7061 20.8554 15.679 20.8234 15.6518C20.7893 15.6228 20.7569 15.5939 20.7252 15.5648C20.7013 15.543 20.6772 15.5214 20.6546 15.4996C20.6184 15.4647 20.5845 15.4298 20.5517 15.395C20.5359 15.3784 20.5194 15.3617 20.5044 15.3451C20.5028 15.3432 20.5015 15.3414 20.4999 15.3396H35.9981C36.5079 15.3396 36.9212 14.9263 36.9212 14.4165C36.9212 13.9066 36.5079 13.4934 35.9981 13.4934H20.067V11.1324C20.067 10.684 20.3686 10.2861 20.8005 10.1648C23.3201 9.45652 27.1178 8.61291 30.9098 8.61291C30.9132 8.61291 30.9173 8.61291 30.9207 8.61291C35.3404 8.61476 39.8692 9.60344 42.1752 10.1928C42.6208 10.3067 42.9319 10.7072 42.9319 11.1667V13.4933H40.4562C39.9465 13.4933 39.5331 13.9066 39.5331 14.4164C39.5331 14.9264 39.9465 15.3396 40.4564 15.3396H42.4997C42.4981 15.3415 42.4967 15.3433 42.4951 15.3451C42.4801 15.3617 42.4636 15.3784 42.4479 15.395C42.4149 15.4298 42.3812 15.4647 42.345 15.4996C42.3224 15.5214 42.2983 15.543 42.2744 15.5648C42.2426 15.5939 42.2103 15.6228 42.1762 15.6518C42.1442 15.679 42.1109 15.7061 42.0769 15.7331C42.0486 15.7558 42.0199 15.7784 41.9903 15.8011C41.9472 15.8338 41.9028 15.8665 41.857 15.899C41.8349 15.9148 41.8123 15.9306 41.7896 15.9464C41.7335 15.985 41.676 16.0235 41.6162 16.0618C41.6034 16.07 41.5904 16.0782 41.5773 16.0864C41.1937 16.3278 40.7365 16.5608 40.2141 16.7768C40.2031 16.7814 40.1933 16.7878 40.1826 16.7927C38.2047 17.608 35.2325 18.2241 31.4998 18.2241C27.767 18.2241 24.7948 17.608 22.817 16.7927C22.8063 16.7878 22.7964 16.7814 22.7855 16.7768C22.263 16.5608 21.8059 16.3278 21.4222 16.0864ZM21.5094 18.2316V20.0301C21.0018 19.767 20.4882 19.6255 20.0671 19.5498V17.4046C20.4631 17.686 20.9393 17.9639 21.5094 18.2316ZM41.4898 18.2315C42.0599 17.9639 42.536 17.686 42.9321 17.4046V19.5496C42.511 19.6252 41.9974 19.7669 41.4898 20.0299V18.2315ZM24.7601 32.876C22.8695 31.2482 21.7529 28.8087 21.6965 26.183C21.6858 25.6811 21.2757 25.2797 20.7737 25.2797H20.0392C19.4776 25.2797 19.0206 24.8229 19.0206 24.2612V22.1093C19.0206 21.7996 19.1603 21.5127 19.3952 21.3214C19.7206 21.3502 20.3282 21.4478 20.8436 21.7751C20.8487 21.7784 20.8538 21.7816 20.8589 21.785C20.9317 21.832 21.0023 21.8838 21.0701 21.9405C21.078 21.947 21.0858 21.9537 21.0936 21.9604C21.1266 21.9888 21.1589 22.0181 21.1903 22.0491C21.2177 22.0762 21.2464 22.1014 21.2757 22.1255C21.2843 22.1327 21.293 22.1393 21.3018 22.1462C21.3239 22.1636 21.3464 22.1801 21.3695 22.1957C21.3786 22.2018 21.3874 22.2081 21.3967 22.214C21.4279 22.2342 21.4595 22.2533 21.4921 22.2704C21.4923 22.2705 21.4925 22.2706 21.4926 22.2707C21.5257 22.2881 21.5596 22.3036 21.5939 22.3179C21.6034 22.3218 21.613 22.3254 21.6226 22.3291C21.6487 22.3393 21.6749 22.3485 21.7014 22.3569C21.7114 22.3601 21.7212 22.3633 21.7313 22.3661C21.7662 22.3762 21.8012 22.3851 21.8367 22.3921C21.8373 22.3922 21.8378 22.3923 21.8384 22.3924C21.8748 22.3996 21.9116 22.4046 21.9485 22.4086C21.9585 22.4097 21.9684 22.4103 21.9783 22.411C22.0062 22.4134 22.0343 22.4147 22.0625 22.4151C22.0689 22.4152 22.0751 22.4159 22.0814 22.4159C22.0855 22.4159 22.0896 22.4153 22.0937 22.4153C22.13 22.415 22.1664 22.4135 22.2029 22.41C22.2038 22.4099 22.2048 22.4099 22.2057 22.4099C22.243 22.4062 22.2802 22.4004 22.3174 22.3933C22.3279 22.3913 22.3383 22.3889 22.3488 22.3867C22.3763 22.3806 22.4038 22.3737 22.4312 22.366C22.4421 22.3629 22.4529 22.36 22.4637 22.3565C22.5001 22.3449 22.5363 22.3324 22.5721 22.3175C23.0481 22.1188 23.3556 21.6576 23.3556 21.1423V18.9346C25.7326 19.6832 28.6553 20.0703 31.4995 20.0703C34.3438 20.0703 37.2665 19.6832 39.6435 18.9346V21.1423C39.6435 21.6576 39.951 22.1189 40.427 22.3175C40.4629 22.3325 40.4993 22.3452 40.5359 22.3568C40.5462 22.36 40.5565 22.3628 40.5669 22.3659C40.5949 22.3739 40.6231 22.381 40.6514 22.387C40.6612 22.3891 40.6711 22.3915 40.681 22.3933C40.7557 22.4076 40.831 22.4148 40.9061 22.4154C40.9099 22.4154 40.9139 22.4161 40.9177 22.4161C40.9236 22.4161 40.9295 22.4153 40.9355 22.4152C40.9644 22.4148 40.9932 22.4134 41.022 22.411C41.0314 22.4103 41.0407 22.4097 41.0501 22.4087C41.1239 22.4009 41.1969 22.3867 41.2682 22.366C41.278 22.3632 41.2875 22.3601 41.2973 22.357C41.3241 22.3486 41.3505 22.3392 41.3769 22.3289C41.3864 22.3253 41.396 22.3217 41.4053 22.3178C41.4396 22.3035 41.4736 22.288 41.5067 22.2706C41.5069 22.2705 41.5072 22.2704 41.5074 22.2703C41.5399 22.2532 41.5715 22.2341 41.6027 22.214C41.6119 22.2081 41.6209 22.2017 41.6301 22.1956C41.653 22.1799 41.6755 22.1634 41.6975 22.1462C41.7064 22.1393 41.7153 22.1326 41.7239 22.1254C41.7532 22.1012 41.7818 22.0761 41.8091 22.049C41.8401 22.0183 41.8724 21.9893 41.905 21.9612C41.9135 21.9538 41.9221 21.9465 41.9307 21.9393C41.961 21.9139 41.9916 21.8894 42.023 21.8662C42.026 21.864 42.0287 21.8617 42.0316 21.8595C42.0656 21.8345 42.1001 21.8112 42.1351 21.7884C42.1444 21.7823 42.1539 21.7763 42.1634 21.7703C42.1945 21.7507 42.226 21.7318 42.2576 21.7138C42.2622 21.7113 42.2668 21.7084 42.2714 21.7058C42.3075 21.6858 42.3438 21.6668 42.3803 21.6487C42.3894 21.6442 42.3985 21.6399 42.4076 21.6355C42.4404 21.6197 42.4732 21.6044 42.5061 21.5902C42.5106 21.5882 42.5151 21.5861 42.5196 21.5841C42.5575 21.5679 42.5954 21.5528 42.6332 21.5384C42.64 21.5358 42.6466 21.5333 42.6534 21.5309C42.6893 21.5175 42.7251 21.5048 42.7608 21.493C42.7628 21.4924 42.7647 21.4916 42.7667 21.491C42.8067 21.4778 42.8464 21.4656 42.8857 21.4543C42.8872 21.454 42.8886 21.4535 42.8901 21.4531C43.1713 21.3724 43.4289 21.3368 43.6041 21.3212C43.8392 21.5125 43.9788 21.7994 43.9788 22.1092V24.261C43.9788 24.8227 43.5218 25.2796 42.9602 25.2796H42.2258C41.7236 25.2796 41.3136 25.681 41.3029 26.1829C41.2466 28.8086 40.1299 31.2481 38.2393 32.8759C36.2788 34.564 34.0115 35.4353 31.4999 35.4656C28.988 35.4354 26.7209 34.5642 24.7601 32.876ZM26.9163 45.4048C26.7685 45.4673 26.6005 45.4199 26.5075 45.2899L22.7849 40.0806L23.7531 39.9007C23.8058 39.8911 23.8605 39.9036 23.9035 39.9357L24.145 40.1162C24.1464 40.1172 24.1476 40.1182 24.149 40.1192L29.6606 44.2389L26.9163 45.4048ZM29.2395 61.1537L30.9237 49.051H32.0754L33.7595 61.1537H29.2395ZM52.7626 61.1537H49.0703V53.6684C49.0703 53.1585 48.6569 52.7453 48.1472 52.7453C47.6374 52.7453 47.2241 53.1585 47.2241 53.6684V61.1537H35.6238L33.8508 48.4137L35.0801 46.9846L35.3612 47.1041C35.642 47.2233 35.9343 47.2806 36.2223 47.2806C36.9088 47.2806 37.5712 46.9547 37.9938 46.3631L42.2177 40.4524L47.5408 41.4412C47.8185 41.5245 48.0896 41.6218 48.3549 41.7297C47.3786 42.8204 47.3061 44.4928 48.2541 45.6685L49.2588 46.9145C49.769 47.5473 50.4951 47.9435 51.3034 48.0301C51.4139 48.0421 51.5242 48.048 51.6338 48.048C52.3188 48.048 52.9782 47.8177 53.5215 47.3858C53.7784 48.2258 53.9118 49.1049 53.9118 50.0047V60.0044H53.9119C53.912 60.6381 53.3963 61.1537 52.7626 61.1537Z" fill="#0F0C3D"/>
<path d="M44.1008 52.7451H39.2394C38.4078 52.7451 37.7313 53.4216 37.7313 54.2532V56.8432C37.7313 57.6747 38.4078 58.3513 39.2394 58.3513H44.1008C44.9324 58.3513 45.6088 57.6747 45.6088 56.8432V54.2532C45.6088 53.4215 44.9323 52.7451 44.1008 52.7451ZM39.5774 56.5048V54.5913H43.7623V56.5048H39.5774Z" fill="#62E2AA"/>
<path d="M23.7608 52.7454H18.8993C18.0677 52.7454 17.3914 53.4219 17.3914 54.2534V56.8434C17.3914 57.675 18.0679 58.3515 18.8993 58.3515H23.7608C24.5923 58.3515 25.2688 57.675 25.2688 56.8434V54.2534C25.2689 53.4219 24.5923 52.7454 23.7608 52.7454ZM23.4226 56.5052H19.2377V54.5917H23.4226V56.5052Z" fill="#0F0C3D"/>
</svg>
