<svg width="56" height="58" viewBox="0 0 56 58" fill="none" xmlns="http://www.w3.org/2000/svg">
<path d="M39.2009 47.3789C39.2009 47.8791 39.6066 48.2848 40.1068 48.2848C40.607 48.2848 41.0127 47.8791 41.0127 47.3789C41.0127 40.1017 46.9332 34.1812 54.2104 34.1812C54.7107 34.1812 55.1163 33.7755 55.1163 33.2753C55.1163 32.775 54.7107 32.3693 54.2104 32.3693C46.9332 32.3693 41.0127 26.4488 41.0127 19.1716C41.0127 18.6714 40.607 18.2657 40.1068 18.2657C39.6066 18.2657 39.2009 18.6714 39.2009 19.1716C39.2009 26.4488 33.2804 32.3693 26.0032 32.3693C25.503 32.3693 25.0973 32.775 25.0973 33.2753C25.0973 33.7755 25.503 34.1812 26.0032 34.1812C33.2804 34.1812 39.2009 40.1017 39.2009 47.3789ZM49.0723 33.2753C44.9222 34.7919 41.6233 38.0908 40.1068 42.2407C38.5902 38.0907 35.2913 34.7918 31.1413 33.2753C35.2914 31.7587 38.5903 28.4599 40.1068 24.3098C41.6235 28.4599 44.9223 31.7587 49.0723 33.2753Z" fill="#0F0C3D" stroke="#0F0C3D" stroke-width="0.2"/>
<path d="M17.7101 53.4234C17.7101 53.9236 18.1158 54.3293 18.616 54.3293C19.1162 54.3293 19.5219 53.9236 19.5219 53.4234C19.5219 47.9978 23.936 43.5837 29.3616 43.5837C29.8618 43.5837 30.2675 43.178 30.2675 42.6778C30.2675 42.1775 29.8618 41.7718 29.3616 41.7718C23.936 41.7718 19.5219 37.3577 19.5219 31.9321C19.5219 31.4319 19.1162 31.0262 18.616 31.0262C18.1158 31.0262 17.7101 31.4319 17.7101 31.9321C17.7101 37.3577 13.2959 41.7718 7.87037 41.7718C7.37014 41.7718 6.96445 42.1775 6.96445 42.6778C6.96445 43.178 7.37014 43.5837 7.87037 43.5837C13.2959 43.5837 17.7101 47.9978 17.7101 53.4234ZM24.8571 42.6778C22.0487 43.8593 19.7976 46.1104 18.616 48.9189C17.4344 46.1103 15.1833 43.8592 12.3749 42.6778C15.1833 41.4963 17.4344 39.2452 18.616 36.4366C19.7976 39.2452 22.0487 41.4963 24.8571 42.6778Z" fill="#0F0C3D" stroke="#0F0C3D" stroke-width="0.2"/>
<path d="M29.1261 23.2012C29.1261 23.7014 29.5318 24.1071 30.032 24.1071C30.5322 24.1071 30.9379 23.7014 30.9379 23.2012C30.9379 17.7756 35.352 13.3615 40.7776 13.3615C41.2779 13.3615 41.6835 12.9558 41.6835 12.4556C41.6835 11.9554 41.2779 11.5497 40.7776 11.5497C35.352 11.5497 30.9379 7.13554 30.9379 1.70997C30.9379 1.20974 30.5322 0.804053 30.032 0.804053C29.5318 0.804053 29.1261 1.20974 29.1261 1.70997C29.1261 7.13554 24.712 11.5497 19.2864 11.5497C18.7862 11.5497 18.3805 11.9554 18.3805 12.4556C18.3805 12.9558 18.7862 13.3615 19.2864 13.3615C24.712 13.3615 29.1261 17.7756 29.1261 23.2012ZM36.2731 12.4556C33.4646 13.6372 31.2135 15.8883 30.032 18.6967C28.8504 15.8883 26.5993 13.6372 23.7909 12.4556C26.5993 11.274 28.8505 9.02292 30.032 6.21448C31.2136 9.02291 33.4647 11.274 36.2731 12.4556Z" fill="#62E2AA" stroke="#62E2AA" stroke-width="0.2"/>
<path d="M0.919531 21.858C0.919531 24.5796 3.13344 26.7935 5.85506 26.7935C8.57668 26.7935 10.7906 24.5796 10.7906 21.858C10.7906 19.1364 8.57668 16.9225 5.85506 16.9225C3.13344 16.9225 0.919531 19.1364 0.919531 21.858ZM2.73137 21.858C2.73137 20.1356 4.13269 18.7343 5.85506 18.7343C7.57742 18.7343 8.97874 20.1356 8.97874 21.858C8.97874 23.5804 7.57742 24.9817 5.85506 24.9817C4.13269 24.9817 2.73137 23.5804 2.73137 21.858Z" fill="#0F0C3D" stroke="#0F0C3D" stroke-width="0.2"/>
<path d="M43.902 54.0949C43.902 56.0758 45.5133 57.6872 47.4943 57.6872C49.4753 57.6872 51.0866 56.0758 51.0866 54.0949C51.0866 52.1139 49.4753 50.5025 47.4943 50.5025C45.5133 50.5025 43.902 52.1139 43.902 54.0949ZM45.7138 54.0949C45.7138 53.1131 46.5126 52.3144 47.4943 52.3144C48.476 52.3144 49.2748 53.1131 49.2748 54.0949C49.2748 55.0766 48.476 55.8753 47.4943 55.8753C46.5126 55.8753 45.7138 55.0766 45.7138 54.0949Z" fill="#0F0C3D" stroke="#0F0C3D" stroke-width="0.2"/>
<path d="M46.5875 13.7987C46.5875 15.7796 48.1988 17.391 50.1798 17.391C52.1608 17.391 53.7721 15.7796 53.7721 13.7987C53.7721 11.8179 52.1608 10.2064 50.1798 10.2064C48.1988 10.2064 46.5875 11.8179 46.5875 13.7987ZM48.3993 13.7987C48.3993 12.817 49.1981 12.0182 50.1798 12.0182C51.1615 12.0182 51.9603 12.817 51.9603 13.7987C51.9603 14.7804 51.1615 15.5792 50.1798 15.5792C49.1981 15.5792 48.3993 14.7804 48.3993 13.7987Z" fill="#0F0C3D" stroke="#0F0C3D" stroke-width="0.2"/>
</svg>
