<svg width="58" height="59" viewBox="0 0 58 59" fill="none" xmlns="http://www.w3.org/2000/svg">
<path d="M44.5687 35.2011C38.604 35.2011 33.807 39.998 33.807 45.9628C33.807 51.9275 38.604 56.7245 44.5687 56.7245C50.5335 56.7245 55.3304 51.9275 55.3304 45.9628C55.3304 39.998 50.5335 35.2011 44.5687 35.2011ZM44.5687 54.5447C39.8612 54.5447 35.9868 50.6704 35.9868 45.9628C35.9868 41.2552 39.8612 37.3809 44.5687 37.3809C49.2763 37.3809 53.1507 41.2552 53.1507 45.9628C53.1507 50.6704 49.2763 54.5447 44.5687 54.5447Z" fill="white" stroke="white" stroke-width="0.3"/>
<path d="M35.0396 53.6863L34.978 53.6159L34.8876 53.6403C32.6549 54.2437 30.3033 54.6053 27.8927 54.6053C23.3425 54.6053 19.0297 53.3564 15.3087 51.2124V51.2108V51.208V51.2051V51.2023V51.1994V51.1966V51.1937V51.1909V51.1881V51.1852V51.1824V51.1795V51.1767V51.1738V51.171V51.1681V51.1653V51.1625V51.1596V51.1568V51.1539V51.1511V51.1482V51.1454V51.1425V51.1397V51.1368V51.134V51.1311V51.1283V51.1255V51.1226V51.1198V51.1169V51.1141V51.1112V51.1084V51.1055V51.1027V51.0998V51.097V51.0941V51.0913V51.0884V51.0856V51.0827V51.0799V51.077V51.0742V51.0713V51.0685V51.0656V51.0628V51.0599V51.0571V51.0542V51.0514V51.0485V51.0456V51.0428V51.0399V51.0371V51.0342V51.0314V51.0285V51.0257V51.0228V51.02V51.0171V51.0142V51.0114V51.0085V51.0057V51.0028V51V50.9971V50.9943V50.9914V50.9885V50.9857V50.9828V50.98V50.9771V50.9742V50.9714V50.9685V50.9657V50.9628V50.9599V50.9571V50.9542V50.9513V50.9485V50.9456V50.9428V50.9399V50.937V50.9342V50.9313V50.9284V50.9256V50.9227V50.9198V50.917V50.9141V50.9112V50.9084V50.9055V50.9026V50.8998V50.8969V50.894V50.8912V50.8883V50.8854V50.8825V50.8797V50.8768V50.8739V50.8711V50.8682V50.8653V50.8624V50.8596V50.8567V50.8538V50.8509V50.8481V50.8452V50.8423V50.8394V50.8365V50.8337V50.8308V50.8279V50.825V50.8222V50.8193V50.8164V50.8135V50.8106V50.8077V50.8049V50.802V50.7991V50.7962V50.7933V50.7904V50.7876V50.7847V50.7818V50.7789V50.776V50.7731V50.7702V50.7673V50.7645V50.7616V50.7587V50.7558V50.7529V50.75V50.7471V50.7442V50.7413V50.7384V50.7355V50.7326V50.7297V50.7268V50.7239V50.7211V50.7182V50.7153V50.7124V50.7095V50.7066V50.7037V50.7008V50.6978V50.6949V50.692V50.6891V50.6862V50.6833V50.6804V50.6775V50.6746V50.6717V50.6688V50.6659V50.663V50.6601V50.6572V50.6543V50.6513V50.6484V50.6455V50.6426V50.6397V50.6368V50.6339V50.6309V50.628V50.6251V50.6222V50.6193V50.6164V50.6134V50.6105V50.6076V50.6047V50.6017V50.5988V50.5959V50.593V50.5901V50.5871V50.5842V50.5813V50.5784V50.5754V50.5725V50.5696V50.5666V50.5637V50.5608V50.5578V50.5549V50.552V50.549V50.5461V50.5432V50.5402V50.5373V50.5344V50.5314V50.5285V50.5255V50.5226V50.5197V50.5167V50.5138V50.5108V50.5079V50.5049V50.502V50.499V50.4961V50.4931V50.4902V50.4872V50.4843V50.4813V50.4784V50.4754V50.4725V50.4695V50.4666V50.4636V50.4607V50.4577V50.4547V50.4518V50.4488V50.4459V50.4429V50.4399V50.437V50.434V50.4311V50.4281V50.4251V50.4222V50.4192V50.4162V50.4132V50.4103V50.4073V50.4043V50.4014V50.3984V50.3954V50.3924V50.3895V50.3865V50.3835V50.3805V50.3775V50.3746V50.3716V50.3686V50.3656V50.3626V50.3596V50.3567V50.3537V50.3507V50.3477V50.3447V50.3417V50.3387V50.3357V50.3327V50.3297V50.3268V50.3238V50.3208V50.3178V50.3148V50.3118V50.3088V50.3058V50.3028V50.2998V50.2967V50.2937V50.2907V50.2877V50.2847V50.2817V50.2787V50.2757V50.2727V50.2697V50.2667V50.2636V50.2606V50.2576V50.2546V50.2516V50.2486V50.2455V50.2425V50.2395V50.2365V50.2334V50.2304V50.2274V50.2244V50.2213V50.2183V50.2153V50.2122V50.2092V50.2062V50.2031V50.2001V50.1971V50.194V50.191V50.188V50.1849V50.1819V50.1788V50.1758V50.1727V50.1697V50.1666V50.1636V50.1605V50.1575V50.1544V50.1514V50.1483V50.1453V50.1422V50.1392V50.1361V50.1331V50.13V50.1269V50.1239V50.1208V50.1177V50.1147V50.1116V50.1086V50.1055V50.1024V50.0993V50.0963V50.0932V50.0901V50.087V50.084V50.0809V50.0778V50.0747V50.0717V50.0686V50.0655V50.0624V50.0593V50.0562V50.0531V50.0501V50.047V50.0439V50.0408V50.0377V50.0346V50.0315V50.0284V50.0253V50.0222V50.0191V50.016V50.0129V50.0098V50.0067V50.0036V50.0005V49.9974V49.9943V49.9911V49.988V49.9849V49.9818V49.9787V49.9756V49.9724V49.9693V49.9662V49.9631V49.96V49.9568V49.9537V49.9506V49.9475V49.9443V49.9412V49.9381V49.9349V49.9318V49.9287V49.9255V49.9224V49.9192V49.9161V49.913V49.9098V49.9067V49.9035V49.9004V49.8972V49.8941V49.8909V49.8878V49.8846V49.8815V49.8783V49.8751V49.872V49.8688V49.8657V49.8625V49.8593V49.8562V49.853V49.8498V49.8467V49.8435V49.8403V49.8371V49.834V49.8308V49.8276V49.8244V49.8213V49.8181V49.8149V49.8117V49.8085V49.8053V49.8021V49.799V49.7958V49.7926V49.7894V49.7862L15.3087 49.783L15.3086 49.78C15.2479 46.7436 15.2042 43.4026 16.0753 40.5337C16.9429 37.6767 18.7156 35.2946 22.2986 34.16L22.3008 34.1593C22.7171 34.0205 23.0097 33.6659 23.0097 33.2287C23.0097 32.84 22.8804 32.4113 22.5124 32.1905L22.5097 32.1889C19.161 30.2754 17.0672 26.6264 17.0672 22.7989C17.0672 16.8169 21.9128 11.9128 27.8927 11.9128C33.8737 11.9128 38.7182 16.7573 38.7182 22.7383C38.7182 26.5645 36.6254 30.1544 33.274 32.1293L33.273 32.1299C32.9281 32.3368 32.705 32.6956 32.7777 33.1321C32.8485 33.5566 33.1336 33.8373 33.4764 33.9744L33.4762 33.9747L33.4864 33.978C34.9869 34.4582 36.1764 35.1149 37.0643 36.0029L37.1563 36.0949L37.2604 36.0168C37.742 35.6556 38.2773 35.2995 38.8079 35.0637L39.0075 34.975L38.853 34.8205C38.1001 34.0676 37.1314 33.3708 35.998 32.8307C39.0106 30.376 40.7767 26.7053 40.7767 22.7989C40.7767 15.6219 34.9494 9.79362 27.8321 9.79362C20.7152 9.79362 14.8874 15.6214 14.8874 22.7383C14.8874 26.6478 16.7144 30.3193 19.7304 32.7731C16.3686 34.4461 14.7015 37.2111 13.8843 40.2772C13.0624 43.3615 13.0976 46.7616 13.1277 49.6739L13.1289 49.783V49.7837V49.7844V49.7851V49.7858V49.7865V49.7873V49.788V49.7887V49.7894V49.7901V49.7908V49.7915V49.7922V49.7929V49.7936V49.7944V49.7951V49.7958V49.7965V49.7972V49.7979V49.7986V49.7993V49.8V49.8008V49.8015V49.8022V49.8029V49.8036V49.8043V49.805V49.8057V49.8064V49.8071V49.8079V49.8086V49.8093V49.81V49.8107V49.8114V49.8121V49.8128V49.8135V49.8143V49.815V49.8157V49.8164V49.8171V49.8178V49.8185V49.8192V49.8199V49.8206V49.8214V49.8221V49.8228V49.8235V49.8242V49.8249V49.8256V49.8263V49.827V49.8278V49.8285V49.8292V49.8299V49.8306V49.8313V49.832V49.8327V49.8334V49.8341V49.8349V49.8356V49.8363V49.837V49.8377V49.8384V49.8391V49.8398V49.8405V49.8413V49.842V49.8427V49.8434V49.8441V49.8448V49.8455V49.8462V49.8469V49.8477V49.8484V49.8491V49.8498V49.8505V49.8512V49.8519V49.8526V49.8533V49.854V49.8548V49.8555V49.8558C6.75095 45.2577 2.57462 37.7428 2.57462 29.2872C2.57462 15.302 13.9075 3.96915 27.8927 3.96915C41.8779 3.96915 53.2108 15.302 53.2108 29.2872C53.2108 31.6978 52.8492 34.0495 52.2458 36.2821L52.2197 36.3784L52.2985 36.4397C52.8348 36.8568 53.313 37.3347 53.733 37.8147L53.9082 38.0149L53.9888 37.7614C54.842 35.08 55.3299 32.2753 55.3299 29.2872C55.3299 14.1661 43.0138 1.85 27.8927 1.85C12.7716 1.85 0.455469 14.1661 0.455469 29.2872C0.455469 44.4084 12.7716 56.7245 27.8927 56.7245C30.8199 56.7245 33.6853 56.2366 36.3669 55.3834L36.6018 55.3086L36.4275 55.1344C35.9416 54.6485 35.4602 54.167 35.0396 53.6863Z" fill="white" stroke="white" stroke-width="0.3"/>
<path d="M42.8268 50.0114L42.8368 50.0213L42.8485 50.0291C43.0379 50.1553 43.3111 50.2968 43.5988 50.2968C43.7718 50.2968 43.9196 50.2618 44.0522 50.1861C44.1817 50.1121 44.2866 50.0048 44.3836 49.8759L49.3534 43.8758C49.3534 43.8758 49.3534 43.8758 49.3534 43.8757C49.7106 43.447 49.639 42.7463 49.2129 42.3912C48.7841 42.0339 48.0834 42.1054 47.7282 42.5316L47.7273 42.5327L43.4663 47.7406L41.2793 45.5535C40.8569 45.1311 40.2162 45.1311 39.7938 45.5535C39.3714 45.9759 39.3714 46.6166 39.7938 47.039L39.7948 47.0401L42.8268 50.0114Z" fill="#62E2AA" stroke="#62E2AA" stroke-width="0.3"/>
</svg>
