<svg width="58" height="59" viewBox="0 0 58 59" fill="none" xmlns="http://www.w3.org/2000/svg">
<path d="M42.4899 57.0646H11.5221C10.7521 57.0646 10.0137 56.7587 9.46922 56.2142C8.92476 55.6698 8.61889 54.9313 8.61889 54.1614V53.1936H27.006V51.2581H5.71566C4.94568 51.2581 4.20723 50.9523 3.66277 50.4078C3.11831 49.8633 2.81244 49.1249 2.81244 48.3549V5.77426C2.81244 5.00427 3.11831 4.26583 3.66277 3.72137C4.20723 3.17691 4.94568 2.87103 5.71566 2.87103H27.9737V9.64522C27.9738 9.8366 28.0306 10.0237 28.1369 10.1828C28.2432 10.3419 28.3944 10.4659 28.5712 10.5391C28.748 10.6123 28.9425 10.6315 29.1302 10.5942C29.3179 10.5569 29.4903 10.4647 29.6257 10.3294L31.8447 8.11039L34.0637 10.3294C34.2452 10.5109 34.4913 10.6129 34.7479 10.613C34.8751 10.6134 35.0012 10.5884 35.1186 10.5394C35.2954 10.4661 35.4464 10.342 35.5527 10.1829C35.659 10.0237 35.7157 9.83661 35.7157 9.64522V2.87103H36.6834C37.4534 2.87103 38.1918 3.17691 38.7363 3.72137C39.2808 4.26583 39.5866 5.00427 39.5866 5.77426V24.1614H41.5221V8.67748H42.4899C43.2598 8.67748 43.9983 8.98336 44.5428 9.52782C45.0872 10.0723 45.3931 10.8107 45.3931 11.5807V25.1291H47.3286V11.5807C47.327 10.2979 46.8167 9.06802 45.9096 8.16092C45.0025 7.25382 43.7727 6.74354 42.4899 6.742H41.5221V5.77426C41.5206 4.49142 41.0103 3.26157 40.1032 2.35447C39.1961 1.44737 37.9662 0.937084 36.6834 0.935547H5.71566C4.43283 0.937084 3.20298 1.44737 2.29588 2.35447C1.38877 3.26157 0.87849 4.49142 0.876953 5.77426V48.3549C0.87849 49.6377 1.38877 50.8676 2.29588 51.7747C3.20298 52.6818 4.43283 53.1921 5.71566 53.1936H6.68341V54.1614C6.68494 55.4442 7.19523 56.674 8.10233 57.5811C9.00943 58.4882 10.2393 58.9985 11.5221 59.0001H42.4899C43.6486 59 44.769 58.5846 45.6476 57.8291L44.3828 56.362C43.8564 56.8156 43.1847 57.0649 42.4899 57.0646ZM33.7802 2.87103V7.3091L32.5289 6.05781C32.3474 5.87638 32.1013 5.77446 31.8447 5.77446C31.5881 5.77446 31.342 5.87638 31.1605 6.05781L29.9092 7.3091V2.87103H33.7802Z" fill="white"/>
<path d="M17.6123 8.96094L16.2942 10.279C16.227 10.0938 16.1046 9.93369 15.9435 9.82032C15.7823 9.70696 15.5903 9.64581 15.3933 9.64513H7.65134C7.39467 9.64513 7.14853 9.74709 6.96704 9.92858C6.78555 10.1101 6.68359 10.3562 6.68359 10.6129V18.3548C6.68359 18.6115 6.78555 18.8576 6.96704 19.0391C7.14853 19.2206 7.39467 19.3225 7.65134 19.3225H15.3933C15.6499 19.3225 15.8961 19.2206 16.0776 19.0391C16.2591 18.8576 16.361 18.6115 16.361 18.3548V12.949L18.9807 10.3293L17.6123 8.96094ZM14.4255 17.3871H8.61908V11.5806H14.4255V12.1477L12.49 14.0832L11.2388 12.8319L9.87037 14.2003L11.8059 16.1358C11.9873 16.3172 12.2334 16.4191 12.49 16.4191C12.7467 16.4191 12.9928 16.3172 13.1742 16.1358L14.4255 14.8845V17.3871Z" fill="white"/>
<path d="M16.361 26.4976L18.9807 23.8779L17.6123 22.5095L16.2942 23.8276C16.227 23.6424 16.1046 23.4823 15.9435 23.3689C15.7823 23.2555 15.5903 23.1944 15.3933 23.1937H7.65134C7.39467 23.1937 7.14853 23.2957 6.96704 23.4772C6.78555 23.6586 6.68359 23.9048 6.68359 24.1615V31.9034C6.68359 32.1601 6.78555 32.4062 6.96704 32.5877C7.14853 32.7692 7.39467 32.8711 7.65134 32.8711H15.3933C15.6499 32.8711 15.8961 32.7692 16.0776 32.5877C16.2591 32.4062 16.361 32.1601 16.361 31.9034V26.4976ZM8.61908 30.9357V25.1292H14.4255V25.6963L12.49 27.6318L11.2388 26.3805L9.87037 27.7489L11.8059 29.6844C11.9873 29.8658 12.2334 29.9677 12.49 29.9677C12.7467 29.9677 12.9928 29.8658 13.1742 29.6844L14.4255 28.4331V30.9357H8.61908Z" fill="white"/>
<path d="M15.3933 35.7742H7.65134C7.39467 35.7742 7.14853 35.8761 6.96704 36.0576C6.78555 36.2391 6.68359 36.4853 6.68359 36.7419V44.4838C6.68359 44.7405 6.78555 44.9867 6.96704 45.1681C7.14853 45.3496 7.39467 45.4516 7.65134 45.4516H15.3933C15.6499 45.4516 15.8961 45.3496 16.0776 45.1681C16.2591 44.9867 16.361 44.7405 16.361 44.4838V36.7419C16.361 36.4853 16.2591 36.2391 16.0776 36.0576C15.8961 35.8761 15.6499 35.7742 15.3933 35.7742ZM14.4255 43.5161H8.61908V37.7097H14.4255V43.5161Z" fill="white"/>
<path d="M29.9098 15.4517H20.2324V17.3871H29.9098V15.4517Z" fill="white"/>
<path d="M26.0389 11.5808H20.2324V13.5163H26.0389V11.5808Z" fill="white"/>
<path d="M29.9098 29H20.2324V30.9355H29.9098V29Z" fill="white"/>
<path d="M26.0389 25.1292H20.2324V27.0646H26.0389V25.1292Z" fill="white"/>
<path d="M56.191 36.9163L51.2004 33.3937V28.0324C51.2004 27.7758 51.0984 27.5296 50.9169 27.3481C50.7354 27.1666 50.4893 27.0647 50.2326 27.0647H46.3617C46.105 27.0647 45.8589 27.1666 45.6774 27.3481C45.4959 27.5296 45.3939 27.7758 45.3939 28.0324V29.2905L41.1126 26.2692C40.9495 26.1542 40.7548 26.0925 40.5552 26.0925C40.3556 26.0925 40.1609 26.1542 39.9978 26.2692L24.9194 36.9144C24.3391 37.3323 23.9486 37.9637 23.8338 38.6696C23.719 39.3755 23.8893 40.0981 24.3073 40.6784C24.7253 41.2587 25.3567 41.6492 26.0626 41.764C26.7685 41.8788 27.491 41.7085 28.0713 41.2905L29.9101 39.9424V53.1937C29.9101 53.707 30.114 54.1993 30.4769 54.5623C30.8399 54.9253 31.3322 55.1292 31.8455 55.1292H49.2649C49.7782 55.1292 50.2705 54.9253 50.6335 54.5623C50.9965 54.1993 51.2004 53.707 51.2004 53.1937V39.9424L53.0391 41.2905C53.3262 41.5019 53.6523 41.6543 53.9987 41.7388C54.3451 41.8233 54.7047 41.8383 55.0569 41.7829C55.4091 41.7275 55.7468 41.6028 56.0505 41.416C56.3542 41.2292 56.6178 40.984 56.8261 40.6946C57.0344 40.4053 57.1832 40.0775 57.264 39.7302C57.3447 39.383 57.3558 39.0231 57.2965 38.6716C57.2373 38.32 57.1089 37.9837 56.9188 37.682C56.7287 37.3804 56.4807 37.1195 56.1891 36.9144L56.191 36.9163ZM47.3294 29.0002H49.2649V32.0273L47.3294 30.6618V29.0002ZM35.7165 53.1937V47.3873H39.5875V53.1937H35.7165ZM49.2649 53.1937H41.523V46.4195C41.523 46.1629 41.421 45.9167 41.2395 45.7352C41.058 45.5537 40.8119 45.4518 40.5552 45.4518H34.7488C34.4921 45.4518 34.246 45.5537 34.0645 45.7352C33.883 45.9167 33.781 46.1629 33.781 46.4195V53.1937H31.8455V38.5227L40.5552 32.1356L49.2649 38.5227V53.1937ZM55.2649 39.5408C55.2079 39.6262 55.1342 39.6992 55.0482 39.7552C54.9622 39.8113 54.8657 39.8493 54.7646 39.8669C54.6637 39.8855 54.56 39.8831 54.4601 39.8598C54.3602 39.8365 54.2662 39.7928 54.1839 39.7314L41.1252 30.1508C40.9591 30.0288 40.7584 29.963 40.5523 29.963C40.3462 29.963 40.1455 30.0288 39.9794 30.1508L26.9207 39.7314C26.8384 39.7926 26.7443 39.8362 26.6445 39.8595C26.5446 39.8828 26.441 39.8854 26.3401 39.8669C26.1926 39.8402 26.0563 39.7705 25.9484 39.6665C25.8404 39.5625 25.7657 39.4289 25.7335 39.2825C25.7013 39.1361 25.7132 38.9835 25.7675 38.8438C25.8219 38.7041 25.9164 38.5837 26.0391 38.4976L40.5552 28.2492L55.0713 38.4966C55.2338 38.6107 55.3451 38.784 55.3813 38.9792C55.4174 39.1744 55.3757 39.376 55.2649 39.5408Z" fill="white"/>
<path d="M36.6836 39.6451C36.6836 40.4107 36.9106 41.1592 37.336 41.7957C37.7613 42.4323 38.3659 42.9285 39.0732 43.2214C39.7805 43.5144 40.5589 43.5911 41.3097 43.4417C42.0606 43.2924 42.7504 42.9237 43.2917 42.3823C43.8331 41.841 44.2018 41.1512 44.3511 40.4003C44.5005 39.6494 44.4238 38.8711 44.1309 38.1638C43.8379 37.4565 43.3417 36.8519 42.7052 36.4265C42.0686 36.0012 41.3202 35.7742 40.5546 35.7742C39.5279 35.7742 38.5433 36.182 37.8174 36.908C37.0914 37.6339 36.6836 38.6185 36.6836 39.6451ZM42.49 39.6451C42.49 40.0279 42.3765 40.4021 42.1639 40.7204C41.9512 41.0387 41.6489 41.2868 41.2952 41.4333C40.9416 41.5798 40.5524 41.6181 40.177 41.5434C39.8015 41.4687 39.4566 41.2844 39.186 41.0137C38.9153 40.743 38.7309 40.3982 38.6563 40.0227C38.5816 39.6473 38.6199 39.2581 38.7664 38.9045C38.9129 38.5508 39.161 38.2485 39.4793 38.0358C39.7975 37.8232 40.1718 37.7097 40.5546 37.7097C41.0679 37.7097 41.5602 37.9136 41.9232 38.2765C42.2861 38.6395 42.49 39.1318 42.49 39.6451Z" fill="#62E2AA"/>
</svg>
