<svg width="48" height="63" viewBox="0 0 48 63" fill="none" xmlns="http://www.w3.org/2000/svg">
<path d="M15.8718 30.3546L15.8718 30.3544L17.0355 23.5702L12.1065 18.7657L12.1065 18.7657C11.8716 18.5367 11.7868 18.1939 11.8883 17.8821C11.8884 17.8821 11.8884 17.882 11.8884 17.882L12.031 17.9284C12.1149 17.6703 12.3379 17.4824 12.6061 17.4435L15.8718 30.3546ZM15.8718 30.3546C15.8167 30.678 15.9497 31.0047 16.215 31.1976C16.481 31.3912 16.8332 31.4166 17.1237 31.2632C17.1237 31.2632 17.1237 31.2632 17.1237 31.2632L23.216 28.0604L29.3081 31.2633C29.4344 31.3298 29.5722 31.3627 29.7096 31.3627C29.8881 31.3627 30.0663 31.3071 30.2166 31.1976C30.482 31.0047 30.615 30.678 30.5598 30.3546L30.5598 30.3544L29.3966 23.5709L34.3255 18.7657C34.5605 18.5367 34.6452 18.1938 34.5436 17.882C34.4421 17.5696 34.1722 17.3422 33.8475 17.295C33.8475 17.295 33.8475 17.295 33.8475 17.295L27.0357 16.3044L23.9896 10.1324L23.9896 10.1323C23.838 9.82576 23.5179 9.6835 23.216 9.6835C22.9142 9.6835 22.594 9.82576 22.4424 10.1323L22.4424 10.1324L19.3963 16.3044L12.5845 17.295L15.8718 30.3546ZM14.5621 18.7505L18.5646 22.652L18.5646 22.652C18.7677 22.85 18.8602 23.1355 18.8127 23.415L18.8126 23.4152L17.8676 28.9234L22.8142 26.323C22.8143 26.3229 22.8144 26.3229 22.8145 26.3228C22.9403 26.2562 23.0785 26.2234 23.216 26.2234C23.3535 26.2234 23.4917 26.2562 23.6176 26.3228C23.6177 26.3229 23.6178 26.3229 23.6178 26.323L28.5641 28.9234L27.6194 23.4151L27.6194 23.415C27.5718 23.1355 27.6644 22.85 27.8674 22.652L27.8675 22.652L31.8699 18.7505L26.339 17.9461L26.3387 17.9461L26.3603 17.7976C26.1283 17.7642 25.9279 17.6181 25.8239 17.408L14.5621 18.7505ZM14.5621 18.7505L20.0931 17.9461C20.0931 17.9461 20.0931 17.9461 20.0932 17.9461C20.3744 17.9056 20.6168 17.7286 20.7426 17.4745L20.7427 17.4744L23.216 12.463L14.5621 18.7505Z" fill="#62E2AA" stroke="#62E2AA" stroke-width="0.3"/>
<path d="M9.69883 38.1458H36.7359C37.2122 38.1458 37.5984 37.76 37.5984 37.2833C37.5984 36.8066 37.2122 36.4208 36.7359 36.4208H9.69883C9.22255 36.4208 8.83633 36.8066 8.83633 37.2833C8.83633 37.76 9.22255 38.1458 9.69883 38.1458Z" fill="#0F0C3D" stroke="#0F0C3D" stroke-width="0.3"/>
<path d="M30.4493 44.57C30.8694 44.57 31.15 44.1477 31.15 43.71C31.15 43.2723 30.8694 42.85 30.4493 42.85H9.55073C9.13057 42.85 8.85 43.2723 8.85 43.71C8.85 44.1477 9.13057 44.57 9.55073 44.57H30.4493Z" fill="#0F0C3D" stroke="#0F0C3D" stroke-width="0.3"/>
<path d="M1.81797 1.85C1.34169 1.85 0.955469 2.23579 0.955469 2.7125V58.2875C0.955469 58.7642 1.34169 59.15 1.81797 59.15H44.3558C44.832 59.15 45.2183 58.7642 45.2183 58.2875V2.7125C45.2183 2.23579 44.832 1.85 44.3558 1.85H1.81797ZM2.68047 3.575H43.4932V48.5466H35.4773C35.0011 48.5466 34.6148 48.9324 34.6148 49.4091V57.425H2.68047V3.575ZM36.3398 50.2716H42.2736L36.3398 56.2053V50.2716ZM43.4932 57.425H37.5595L43.4932 51.4912V57.425Z" fill="#0F0C3D" stroke="#0F0C3D" stroke-width="0.3"/>
</svg>
