<svg width="58" height="57" viewBox="0 0 58 57" fill="none" xmlns="http://www.w3.org/2000/svg">
<g clip-path="url(#clip0)">
<path d="M55.1222 20.3246H53.3281V10.0029C53.3281 8.394 52.0261 7.07577 50.4032 7.0258C50.5117 5.28633 49.9145 3.56184 48.699 2.24599L48.6989 2.24586C47.2008 0.635208 45.0157 -0.0968427 42.8534 0.263536L42.8533 0.263565L3.07912 7.03601C1.49 7.117 0.229297 8.4117 0.229297 9.99168V42.1799V42.2299H0.265152C0.670347 50.4711 7.47724 57.0499 15.8146 57.0499C23.1341 57.0499 29.2691 51.9783 30.9421 45.1693H50.3164C51.9751 45.1693 53.3281 43.8399 53.3281 42.1911V31.4558H55.1222C56.1555 31.4558 57.0052 30.6177 57.0052 29.5729L57.0052 22.2076L57.0052 22.207C56.9937 21.1744 56.1562 20.3246 55.1222 20.3246ZM29.4298 42.4199C28.9498 49.1922 23.5422 54.5997 16.7811 55.0688V53.3452V53.2952H16.7311H14.8981H14.8481V53.3452V55.0687C8.08695 54.5886 2.67944 49.1811 2.19934 42.4199H3.92283H3.97283V42.3699V40.537V40.487H3.92283H2.19934C2.67944 33.7258 8.08695 28.3183 14.8481 27.8382V29.5617V29.6117H14.8981H16.7311H16.7811V29.5617V27.8382C23.5422 28.3183 28.9497 33.7258 29.4298 40.487H27.7064H27.6564V40.537V42.3699V42.4199H27.7064H29.4298ZM43.1717 2.17275C44.6862 1.91849 46.2228 2.438 47.2731 3.56556C48.1471 4.51604 48.5676 5.76857 48.4601 7.02462H14.641L43.1717 2.17275ZM51.3952 42.1911C51.3952 42.7657 50.9159 43.2364 50.3164 43.2364H31.294C31.3583 42.6508 31.4111 42.0629 31.4111 41.4534C31.4111 32.8535 24.4145 25.8681 15.8258 25.8681C9.9422 25.8681 4.81432 29.142 2.16224 33.9582V10.0029C2.16224 9.42824 2.64148 8.95756 3.24106 8.95756H50.3164C50.9159 8.95756 51.3952 9.42824 51.3952 10.0029V20.3358H45.0969C42.0293 20.3358 39.5369 22.8282 39.5369 25.8958C39.5369 28.9634 42.0293 31.4558 45.0969 31.4558H51.3952V42.1911ZM55.0722 29.5229H45.0969C43.0904 29.5229 41.4587 27.8911 41.4587 25.8846C41.4587 23.8781 43.0904 22.2464 45.0969 22.2464H55.0722V29.5229Z" fill="#0F0C3D" stroke="#0F0C3D" stroke-width="0.1"/>
<path d="M46.8954 25.0017H45.0625V26.8347H46.8954V25.0017Z" fill="#0F0C3D"/>
<path d="M14.8478 32.3223V40.4981H9.41016H9.36016V40.5481V42.3699V42.4199H9.41016H16.7307H16.7807V42.3699V32.3223V32.2723H16.7307H14.8978H14.8478V32.3223Z" fill="#62E2AA" stroke="#62E2AA" stroke-width="0.1"/>
</g>
<defs>
<clipPath id="clip0">
<rect width="57.2235" height="57" fill="white"/>
</clipPath>
</defs>
</svg>
