<svg width="57" height="57" viewBox="0 0 57 57" fill="none" xmlns="http://www.w3.org/2000/svg">
<g clip-path="url(#clip0)">
<path d="M19.3464 25.4773C14.6828 25.4773 10.8828 29.2773 10.8828 33.8546C10.8828 38.4318 14.6828 42.2318 19.3464 42.2318C24.0101 42.2318 27.8101 38.4318 27.8101 33.8546C27.8101 29.2773 23.9237 25.4773 19.3464 25.4773ZM19.3464 40.5046C15.6328 40.5046 12.6101 37.4818 12.6101 33.8546C12.6101 30.2273 15.6328 27.2046 19.3464 27.2046C23.0601 27.2046 26.0828 30.2273 26.0828 33.8546C26.0828 37.4818 22.9737 40.5046 19.3464 40.5046Z" fill="#0F0C3D"/>
<path d="M30.4866 20.1226C32.9048 19.259 34.6321 17.359 35.323 14.9408C35.9275 12.5226 35.323 9.93169 33.6821 8.03169C31.6957 5.69987 28.4139 4.92259 25.5639 5.87259C23.1457 6.73623 21.4184 8.63623 20.7275 11.0544C20.123 13.4726 20.7275 16.0635 22.3684 17.9635C24.4412 20.2953 27.723 21.0726 30.4866 20.1226ZM22.4548 11.4862C22.973 9.58623 24.3548 8.11805 26.1684 7.42714C28.2412 6.64987 30.8321 7.25441 32.3866 9.06805C33.6821 10.5362 34.1139 12.5226 33.6821 14.4226C33.1639 16.3226 31.7821 17.7908 29.9684 18.4817C27.8957 19.259 25.3048 18.6544 23.7503 16.8408C22.3684 15.2862 21.9366 13.3862 22.4548 11.4862Z" fill="#62E2AA"/>
<path d="M56.5682 39.3804L56.4818 39.2077C55.6182 37.7395 53.7182 37.2213 52.1636 38.0849L48.0182 40.5031L46.8955 38.6031L49.4 37.1349C50.8682 36.2713 51.3864 34.3713 50.5227 32.8168L50.4364 32.644C49.5727 31.1759 47.6727 30.6577 46.1182 31.5213L43.6136 32.9895L37.2227 21.9349C41.1091 17.8759 41.9727 11.5713 39.0364 6.47585C35.6682 0.344031 27.8091 -1.90142 21.5909 1.72585C15.7182 5.1804 13.5591 12.4349 16.4091 18.4804C7.16818 19.9486 0 28.0668 0 37.6531C0 48.4486 8.72273 56.9986 19.3455 56.9986C29.6227 56.9986 38.2591 48.8804 38.6045 38.344L46.2909 51.5577C47.2409 53.285 49.4864 53.8895 51.2136 52.8531C52.9409 51.8168 53.4591 49.6577 52.5091 47.9304L51.3864 46.0304L55.5318 43.6122C56.9136 42.7486 57.4318 40.8486 56.5682 39.3804ZM22.4545 3.28039C27.8955 0.0849392 34.6318 2.0713 37.6545 7.33949C40.7636 12.694 38.95 19.5168 33.5955 22.7122C28.1545 25.9077 21.4182 23.9213 18.3955 18.6531C15.2864 13.2122 17.1 6.38949 22.4545 3.28039ZM7.34091 50.5213C8.80909 47.1531 12.0909 44.9077 15.8045 44.9077H22.8864C26.6 44.9077 29.8818 47.1531 31.35 50.5213C28.0682 53.544 23.8364 55.2713 19.3455 55.2713C14.8545 55.2713 10.5364 53.544 7.34091 50.5213ZM36.8773 37.6531C36.8773 41.9713 35.3227 45.944 32.5591 49.2259C30.7455 45.5986 26.9455 43.2668 22.8 43.2668H15.7182C11.5727 43.2668 7.85909 45.5986 5.95909 49.2259C3.19545 46.0304 1.64091 41.9713 1.64091 37.7395C1.64091 28.7577 8.46364 21.244 17.2727 20.2077C20.2091 24.6122 25.65 26.944 31.0909 25.5622L36.6182 35.1486C36.7909 35.9259 36.8773 36.7895 36.8773 37.6531ZM54.5818 42.144L49.7454 44.994C49.4 45.2531 49.2273 45.7713 49.4 46.2031L50.9545 48.8804C51.4727 49.744 51.1273 50.9531 50.2636 51.4713C49.4 51.9895 48.2773 51.7304 47.7591 50.7804C46.1182 47.9304 34.4591 27.8077 32.8182 24.9577C33.4227 24.6986 33.9409 24.4395 34.4591 24.094C34.9773 23.7486 35.4955 23.4031 36.0136 23.0577L42.6636 34.544C42.9227 34.8895 43.3545 35.1486 43.8727 34.8895L47.1545 32.9895C47.8455 32.5577 48.7091 32.8168 49.0545 33.5077L49.1409 33.6804C49.5727 34.3713 49.3136 35.2349 48.6227 35.6668L45.3409 37.5668C44.9091 37.8259 44.8227 38.344 44.9954 38.7759L46.8955 42.144C47.1545 42.4895 47.5864 42.6622 48.1045 42.4895L52.9409 39.6395C53.6318 39.2077 54.4955 39.4668 54.8409 40.1577L54.9273 40.3304C55.4454 40.8486 55.2727 41.7986 54.5818 42.144Z" fill="#0F0C3D"/>
</g>
<defs>
<clipPath id="clip0">
<rect width="57" height="57" fill="white"/>
</clipPath>
</defs>
</svg>
