<svg width="60" height="61" viewBox="0 0 60 61" fill="none" xmlns="http://www.w3.org/2000/svg">
<g clip-path="url(#clip0)">
<path d="M30 27.2017V29.2017C32.3861 29.199 34.6738 28.25 36.361 26.5627C38.0483 24.8754 38.9974 22.5878 39 20.2017H37C36.9979 22.0575 36.2597 23.8368 34.9474 25.1491C33.6351 26.4614 31.8559 27.1995 30 27.2017Z" fill="white"/>
<path d="M30 11.2017C27.6139 11.2043 25.3262 12.1534 23.639 13.8406C21.9517 15.5279 21.0026 17.8155 21 20.2017H23C23.0021 18.3458 23.7403 16.5665 25.0526 15.2543C26.3649 13.942 28.1441 13.2038 30 13.2017V11.2017Z" fill="white"/>
<path fill-rule="evenodd" clip-rule="evenodd" d="M32.2142 17.2017H30.9175V18.9881H29.6943L28.7571 17.2017H27.6389V18.9881H26V20.1912H27.6389V20.9933H26V22.1965H27.6389V24.2017H28.9382V22.1965H30.0499L31.1117 24.2017H32.2142V22.1965H33.7V20.9933H32.2142V20.1912H33.7V18.9881H32.2142V17.2017ZM30.9175 20.9933V20.1912H30.3254L30.7462 20.9933H30.9175ZM29.4128 20.9933L28.9881 20.1912H28.9382V20.9933H29.4128Z" fill="white"/>
<path d="M36 8.68066C34.1494 7.70883 32.0903 7.20127 30 7.20166C29.662 7.20166 29.331 7.22666 29 7.25266V0.20166H27V7.56466C26.3172 7.72267 25.6484 7.9357 25 8.20166V6.20166H23V9.20166H23.1C21.9306 9.93442 20.8844 10.8473 20 11.9067V4.20166H18V15.2017C17.1769 17.1772 16.8542 19.3254 17.0606 21.4556C17.267 23.5858 17.9962 25.632 19.1833 27.4128C20.3705 29.1935 21.9789 30.6536 23.8658 31.6634C25.7528 32.6733 27.8598 33.2017 30 33.2017C32.1402 33.2017 34.2472 32.6733 36.1342 31.6634C38.0211 30.6536 39.6295 29.1935 40.8167 27.4128C42.0038 25.632 42.733 23.5858 42.9394 21.4556C43.1458 19.3254 42.8231 17.1772 42 15.2017V7.20166H40V11.9067C39.4037 11.1939 38.7333 10.5466 38 9.97566V4.20166H36V8.68066ZM38 12.6807C39.9093 14.7216 40.9673 17.4145 40.9577 20.2093C40.9481 23.0041 39.8717 25.6898 37.9484 27.7175C36.0251 29.7453 33.4 30.9621 30.6097 31.1193C27.8193 31.2766 25.0742 30.3624 22.9353 28.5635C20.7963 26.7647 19.425 24.2169 19.1015 21.4409C18.778 18.6649 19.5267 15.8701 21.1947 13.6276C22.8626 11.3851 25.324 9.8642 28.0757 9.37557C30.8275 8.88694 33.6619 9.46751 36 10.9987V16.2017H38V12.6807Z" fill="white"/>
<path d="M38 0.20166H36V2.20166H38V0.20166Z" fill="white"/>
<path d="M25 2.20166H23V4.20166H25V2.20166Z" fill="white"/>
<path d="M48.0142 11.3656C48.0536 11.5986 48.1743 11.8101 48.3547 11.9626C48.5352 12.1152 48.7639 12.1989 49.0002 12.1989C49.2365 12.1989 49.4652 12.1152 49.6457 11.9626C49.8262 11.8101 49.9468 11.5986 49.9862 11.3656C50.119 10.5707 50.4967 9.83717 51.0667 9.26741C51.6366 8.69765 52.3703 8.32014 53.1652 8.1876C53.3982 8.1482 53.6097 8.02756 53.7622 7.84707C53.9148 7.66658 53.9985 7.43791 53.9985 7.2016C53.9985 6.96529 53.9148 6.73662 53.7622 6.55613C53.6097 6.37565 53.3982 6.255 53.1652 6.2156C52.3703 6.08306 51.6366 5.70555 51.0667 5.13579C50.4967 4.56603 50.119 3.83248 49.9862 3.0376C49.9468 2.8046 49.8262 2.59309 49.6457 2.44056C49.4652 2.28803 49.2365 2.20435 49.0002 2.20435C48.7639 2.20435 48.5352 2.28803 48.3547 2.44056C48.1743 2.59309 48.0536 2.8046 48.0142 3.0376C47.8814 3.83248 47.5037 4.56603 46.9337 5.13579C46.3638 5.70555 45.6301 6.08306 44.8352 6.2156C44.6022 6.255 44.3907 6.37565 44.2382 6.55613C44.0856 6.73662 44.002 6.96529 44.002 7.2016C44.002 7.43791 44.0856 7.66658 44.2382 7.84707C44.3907 8.02756 44.6022 8.1482 44.8352 8.1876C45.6301 8.32014 46.3638 8.69765 46.9337 9.26741C47.5037 9.83717 47.8814 10.5707 48.0142 11.3656ZM49.0002 5.7736C49.3901 6.32852 49.8733 6.81167 50.4282 7.2016C49.8733 7.59153 49.3901 8.07468 49.0002 8.6296C48.6103 8.07468 48.1271 7.59153 47.5722 7.2016C48.1271 6.81167 48.6103 6.32852 49.0002 5.7736Z" fill="#62E2AA"/>
<path d="M55.805 41.2016C55.1113 41.202 54.4284 41.3738 53.817 41.7016L42.475 47.8096C42.8386 47.1239 43.0186 46.3559 42.9976 45.5801C42.9767 44.8042 42.7554 44.047 42.3554 43.382C41.9553 42.7169 41.3901 42.1667 40.7145 41.7846C40.039 41.4026 39.2761 41.2017 38.5 41.2016H27.361C25.2813 39.5181 22.6867 38.5996 20.011 38.5996C17.3353 38.5996 14.7407 39.5181 12.661 41.2016H0V43.2016H12V58.2016H0V60.2016H39.789C40.7762 60.203 41.7415 59.9106 42.562 59.3616L58.132 48.9816C58.8815 48.4734 59.4494 47.7395 59.7532 46.8865C60.057 46.0335 60.081 45.1058 59.8215 44.2383C59.562 43.3707 59.0326 42.6085 58.3103 42.0624C57.588 41.5163 56.7104 41.2148 55.805 41.2016ZM57.023 47.3176L41.453 57.7016C40.9602 58.0296 40.381 58.2037 39.789 58.2016H14V42.6756C15.771 41.281 17.9723 40.5466 20.2259 40.5988C22.4795 40.651 24.6445 41.4865 26.349 42.9616C26.5304 43.1167 26.7613 43.2019 27 43.2016H38.5C39.163 43.2016 39.7989 43.465 40.2678 43.9338C40.7366 44.4027 41 45.0386 41 45.7016C41 46.3646 40.7366 47.0005 40.2678 47.4694C39.7989 47.9382 39.163 48.2016 38.5 48.2016H28C27.7348 48.2016 27.4804 48.307 27.2929 48.4945C27.1054 48.682 27 48.9364 27 49.2016C27 49.4668 27.1054 49.7212 27.2929 49.9087C27.4804 50.0962 27.7348 50.2016 28 50.2016H42C42.1654 50.2017 42.3283 50.1609 42.474 50.0826L54.766 43.4636C55.274 43.2095 55.8596 43.1581 56.4041 43.3198C56.9486 43.4815 57.4113 43.8441 57.6983 44.3342C57.9853 44.8244 58.0753 45.4053 57.9499 45.9593C57.8245 46.5133 57.4931 46.9989 57.023 47.3176Z" fill="white"/>
<path d="M10 53.2017C10 52.6083 9.82405 52.0283 9.49441 51.535C9.16477 51.0416 8.69623 50.6571 8.14805 50.43C7.59987 50.203 6.99667 50.1435 6.41473 50.2593C5.83279 50.3751 5.29824 50.6608 4.87868 51.0803C4.45912 51.4999 4.1734 52.0344 4.05765 52.6164C3.94189 53.1983 4.0013 53.8015 4.22836 54.3497C4.45543 54.8979 4.83994 55.3664 5.33329 55.6961C5.82664 56.0257 6.40666 56.2017 7 56.2017C7.79565 56.2017 8.55871 55.8856 9.12132 55.323C9.68393 54.7604 10 53.9973 10 53.2017ZM6 53.2017C6 53.0039 6.05865 52.8105 6.16853 52.6461C6.27841 52.4816 6.43459 52.3535 6.61732 52.2778C6.80004 52.2021 7.00111 52.1823 7.19509 52.2209C7.38907 52.2595 7.56726 52.3547 7.70711 52.4946C7.84696 52.6344 7.9422 52.8126 7.98079 53.0066C8.01937 53.2006 7.99957 53.4016 7.92388 53.5843C7.84819 53.7671 7.72002 53.9233 7.55557 54.0331C7.39112 54.143 7.19778 54.2017 7 54.2017C6.73478 54.2017 6.48043 54.0963 6.29289 53.9088C6.10536 53.7212 6 53.4669 6 53.2017Z" fill="white"/>
</g>
<defs>
<clipPath id="clip0">
<rect width="60" height="60" fill="white" transform="translate(0 0.20166)"/>
</clipPath>
</defs>
</svg>
