<svg width="368" height="185" viewBox="0 0 368 185" fill="none" xmlns="http://www.w3.org/2000/svg">
<path d="M383.9 443.2C384.3 443.5 384.7 443.7 385.1 444.1C385.9 444.8 385.7 445.9 384.7 446.3C384.3 446.5 383.9 446.6 383.5 446.6C382.7 446.7 381.8 446.7 381 446.7C358.9 446.6 336.7 446.6 314.6 446.5C312.6 446.5 310.6 446.4 308.6 446.4C307.6 446.4 306.6 446.4 305.6 445.7C305.1 444.1 304.8 442.4 304.8 440.7C304.8 436.1 304.7 431.5 304.7 426.9C304.6 351.4 304.6 275.9 304.6 200.3C304.6 179.4 304.6 158.6 304.6 137.7C304.6 135 304.7 132.3 304.8 129.7C304.8 128.8 304.9 127.8 305.9 127.2C307.4 127.7 309.1 127.4 310.7 127.4C320 127.4 329.3 127.3 338.6 127.3C340.6 127.3 342.6 127.5 344.6 126.7C344.9 127.3 345.2 127.7 345.2 128.1C345.3 129.1 345.4 130.1 345.4 131.1C345.5 142.3 345.5 153.6 345.5 164.8C345.5 167.4 345.3 170 345.2 172.7C345.7 172.8 346.1 172.9 346.6 172.9C349.8 172.8 353 172.7 356.2 172.6C359.5 172.6 362.7 172.7 365.9 173.7C366.6 174.6 366.6 175.7 366.6 176.8C366.7 180.2 366.8 183.5 366.8 186.9C366.8 195.9 366.8 204.8 366.8 213.8C366.8 215.7 366.6 217.7 366.6 219.6C366.6 220.2 366.6 220.7 366.6 221.5C372.2 221.4 377.7 220.7 383 222.2C383.5 224.6 383.6 227 383.7 229.3C383.8 241.2 383.9 253.1 383.9 265C383.9 320.9 383.9 376.8 383.9 432.7C383.9 436.1 383.9 439.6 383.9 443.2ZM307.7 130.1C307.6 234.7 307.9 339.1 307.4 443.5C309.6 443.5 311.6 443.5 313.5 443.5C327.7 443.5 341.8 443.4 356 443.4C363.3 443.4 370.6 443.4 377.9 443.4C378.8 443.4 379.7 443.6 380.7 443C380.7 442.2 380.7 441.4 380.7 440.6C380.7 410.9 380.7 381.3 380.7 351.6C380.7 315.1 380.7 278.5 380.8 242C380.8 236.6 381 231.3 381.2 225.9C381.2 225.3 381.2 224.8 381.2 224.2C380.2 223.6 379.3 223.7 378.4 223.7C374.4 223.7 370.4 223.6 366.3 223.6C365.7 223.6 364.9 223.7 364.2 222.9C364 219.9 363.7 216.6 363.7 213.4C363.6 201.2 363.5 188.9 364 176.7C364 176.2 363.9 175.7 363.8 175.2C358.6 175.8 353.5 175.6 348.4 175.5C346.5 175.5 344.8 175.1 343.4 173.4C343.3 172.6 343.1 171.6 343.1 170.6C343 165.6 342.9 160.5 342.9 155.5C342.9 147.9 343 140.2 343 132.6C343 131.8 343.3 130.9 342.6 130.2C331.1 130.1 319.6 130.1 308.1 130C308 129.9 307.9 130 307.7 130.1Z" fill="#2E48DA" fill-opacity="0.04"/>
<path d="M333.2 284.9C333.2 323.7 333.2 362.5 333.2 401.3C333.2 409.9 333 423.6 332.9 432.2C332.9 433.7 332.8 435.2 332.7 436.7C332.7 437.4 332.5 438.2 332.4 438.9C332.3 439.4 331.9 439.8 331.3 439.7C330.7 439.7 330.4 439.3 330.3 438.7C330.2 437.8 330 436.9 330 436C329.9 434.6 329.9 433.2 329.9 431.7C329.8 419.4 329.6 402.1 329.7 389.7C329.7 309.1 329.8 228.6 329.9 148C329.9 145.1 329.9 142.1 329.9 139.2C329.9 138.6 329.9 138 329.9 137.4C330 136.3 330.6 135.8 331.4 135.7C332.3 135.7 332.9 136.2 333 137.3C333.1 138 333.1 138.8 333.1 139.6C333.1 151 333.1 162.4 333.1 173.8C333.1 210.8 333.1 247.7 333.1 284.7C333 284.9 333.1 284.9 333.2 284.9Z" fill="#2E48DA" fill-opacity="0.04"/>
<path d="M324.9 284.9C324.9 323.7 324.9 362.5 324.9 401.3C324.9 409.9 324.7 423.6 324.6 432.2C324.6 433.7 324.5 435.2 324.4 436.7C324.4 437.4 324.2 438.2 324.1 438.9C324 439.4 323.6 439.8 323 439.7C322.4 439.7 322.1 439.3 322 438.7C321.9 437.8 321.7 436.9 321.7 436C321.6 434.6 321.6 433.2 321.6 431.7C321.5 419.4 321.3 402.1 321.4 389.7C321.4 309.1 321.5 228.6 321.6 148C321.6 145.1 321.6 142.1 321.6 139.2C321.6 138.6 321.6 138 321.6 137.4C321.7 136.3 322.3 135.8 323.1 135.7C324 135.7 324.6 136.2 324.7 137.3C324.8 138 324.8 138.8 324.8 139.6C324.8 151 324.8 162.4 324.8 173.8C324.8 210.8 324.8 247.7 324.8 284.7C324.8 284.9 324.8 284.9 324.9 284.9Z" fill="#2E48DA" fill-opacity="0.04"/>
<path d="M316.7 284.9C316.7 323.7 316.7 362.5 316.7 401.3C316.7 409.9 316.5 423.6 316.4 432.2C316.4 433.7 316.3 435.2 316.2 436.7C316.2 437.4 316 438.2 315.9 438.9C315.8 439.4 315.4 439.8 314.8 439.7C314.2 439.7 313.9 439.3 313.8 438.7C313.7 437.8 313.5 436.9 313.5 436C313.4 434.6 313.4 433.2 313.4 431.7C313.3 419.4 313.1 402.1 313.2 389.7C313.2 309.1 313.3 228.6 313.4 148C313.4 145.1 313.4 142.1 313.4 139.2C313.4 138.6 313.4 138 313.4 137.4C313.5 136.3 314.1 135.8 314.9 135.7C315.8 135.7 316.4 136.2 316.5 137.3C316.6 138 316.6 138.8 316.6 139.6C316.6 151 316.6 162.4 316.6 173.8C316.6 210.8 316.6 247.7 316.6 284.7C316.5 284.9 316.6 284.9 316.7 284.9Z" fill="#2E48DA" fill-opacity="0.04"/>
<path d="M341.4 309.1C341.4 340.1 341.4 371.1 341.4 402.2C341.4 411.3 341.3 420.5 341.2 429.6C341.2 430.9 341.2 435.3 341.1 436.6C341.1 437.3 341 437.9 340.8 438.6C340.6 439.6 340.2 440 339.6 439.9C338.9 439.8 338.6 439.3 338.5 438.7C338.4 437.9 338.2 437 338.2 436.2C338.1 434.5 338.1 429.8 338.1 428.2C338 409.1 338 390 338 370.9C338 315.6 338.1 260.2 338.1 204.9C338.1 198.3 338.1 191.7 338.1 185C338.1 184.3 338.1 183.7 338.2 183C338.3 181.9 339 181.3 339.8 181.4C340.5 181.4 341.1 182 341.2 182.9C341.3 183.6 341.3 184.2 341.3 184.9C341.3 210.5 341.3 236 341.3 261.6C341.3 277.4 341.3 293.3 341.3 309.1C341.3 309.1 341.3 309.1 341.4 309.1Z" fill="#2E48DA" fill-opacity="0.04"/>
<path d="M349.6 309.1C349.6 340.1 349.6 371.1 349.6 402.2C349.6 411.3 349.5 420.5 349.4 429.6C349.4 430.9 349.4 435.3 349.3 436.6C349.3 437.3 349.2 437.9 349 438.6C348.8 439.6 348.4 440 347.8 439.9C347.1 439.8 346.8 439.3 346.7 438.7C346.6 437.9 346.4 437 346.4 436.2C346.3 434.5 346.3 429.8 346.3 428.2C346.2 409.1 346.2 390 346.2 370.9C346.2 315.6 346.3 260.2 346.3 204.9C346.3 198.3 346.3 191.7 346.3 185C346.3 184.3 346.3 183.7 346.4 183C346.5 181.9 347.2 181.3 348 181.4C348.7 181.4 349.3 182 349.4 182.9C349.5 183.6 349.5 184.2 349.5 184.9C349.5 210.5 349.5 236 349.5 261.6C349.5 277.4 349.5 293.3 349.5 309.1H349.6Z" fill="#2E48DA" fill-opacity="0.04"/>
<path d="M357.9 309.1C357.9 340.1 357.9 371.1 357.9 402.2C357.9 411.3 357.8 420.5 357.7 429.6C357.7 430.9 357.7 435.3 357.6 436.6C357.6 437.3 357.5 437.9 357.3 438.6C357.1 439.6 356.7 440 356.1 439.9C355.4 439.8 355.1 439.3 355 438.7C354.9 437.9 354.7 437 354.7 436.2C354.6 434.5 354.6 429.8 354.6 428.2C354.5 409.1 354.5 390 354.5 370.9C354.5 315.6 354.6 260.2 354.6 204.9C354.6 198.3 354.6 191.7 354.6 185C354.6 184.3 354.6 183.7 354.7 183C354.8 181.9 355.5 181.3 356.3 181.4C357 181.4 357.6 182 357.7 182.9C357.8 183.6 357.8 184.2 357.8 184.9C357.8 210.5 357.8 236 357.8 261.6C357.8 277.4 357.8 293.3 357.8 309.1C357.8 309.1 357.8 309.1 357.9 309.1Z" fill="#2E48DA" fill-opacity="0.04"/>
<path d="M229.8 445.8C229.8 444.8 229.7 443.9 229.7 443C229.7 410 229.7 376.9 229.7 343.9C229.7 278 229.7 212.1 229.7 146.2C229.7 139.3 229.8 132.5 229.9 125.6C229.9 124.3 230.1 123.1 230.3 121.9C230.5 120.8 230.9 120.5 232 120.4C232.6 120.4 233.2 120.4 233.8 120.4C237.1 120.4 240.3 120.4 243.7 120.4C243.8 119.8 244 119.3 244 118.7C244 114.8 244 111 244 107.1C244 104.6 244 102.1 244 99.6C244 98 244 96.4 243.9 94.7C244.2 94.6 244.6 94.2 245.1 94.2C246 94.1 246.9 94 247.9 94C260 94 272 94 284.1 94C285.2 94 286.2 94.3 287.1 94.5C287.9 95.5 287.8 96.4 287.8 97.3C287.9 101.2 288 105 288 108.9C288 112.1 288 115.3 288.1 118.5C288.1 119.3 288.2 120.1 288.2 121.1C288.8 121.1 289.3 121.2 289.8 121.2C291.6 121.2 293.3 121.1 295.1 121.1C295.9 121.1 296.8 121.1 297.6 121.2C299.9 121.4 300.4 121.9 300.5 124.1C300.7 127.9 300.8 131.6 300.8 135.4C300.8 171.5 300.9 207.7 300.9 243.8C300.9 307.4 300.9 371.1 300.9 434.7C300.9 437.8 300.9 440.9 300.9 444C300.9 444.5 300.9 445 300.8 445.5C300.6 446.3 299.9 446.9 299.1 446.6C297.7 446.1 296.3 446.4 294.9 446.4C282.7 446.4 270.6 446.4 258.4 446.4C256.9 446.4 255.4 446.4 253.9 446.4C247.4 446.4 241 446.5 234.5 446.6C233.6 446.6 232.7 446.6 231.7 446.5C231 446.2 230.4 446 229.8 445.8ZM285.4 96.5C284.4 96.4 283.6 96.4 282.7 96.4C271.1 96.4 259.6 96.4 248 96.4C247.5 96.4 247.1 96.5 246.6 96.6C246.5 97 246.4 97.2 246.4 97.5C246.4 212.4 246.4 327.3 246.4 442.3C246.4 442.4 246.4 442.5 246.5 442.5C246.5 442.6 246.6 442.6 246.8 442.8C247.4 442.8 248.1 442.9 248.9 442.9C259 442.9 269.2 442.9 279.3 442.9C280.7 442.9 282.2 442.9 283.6 442.9C284.1 442.9 284.5 442.7 285.1 442.6C285.1 441.5 285.2 440.5 285.2 439.5C285.2 341.5 285.2 243.5 285.2 145.5C285.2 129.7 285.4 114 285.5 98.2C285.4 97.7 285.4 97.3 285.4 96.5ZM243.9 443.8C244 443.1 244.1 442.6 244.1 442.1C244.1 438.1 243.9 434.1 243.9 430C243.9 340.5 243.8 251 243.8 161.5C243.8 149.5 243.8 137.5 243.8 125.5C243.8 124.6 244 123.7 243.6 122.8C241.3 122.4 234.1 122.6 232.3 123C232.3 123.3 232.2 123.6 232.2 124C232.2 126.7 232.3 129.4 232.3 132C232.4 161.4 232.4 190.8 232.5 220.3C232.5 248 232.4 275.8 232.5 303.5C232.5 340.8 232.6 378.1 232.6 415.4C232.6 424 232.5 432.7 232.5 441.3C232.5 442.1 232.3 443 233 443.7C236.4 443.8 240 443.8 243.9 443.8ZM297.6 443.3C297.7 442.5 297.8 441.9 297.8 441.3C297.8 439 297.8 436.6 297.8 434.3C297.8 378.8 297.7 323.3 297.8 267.8C297.9 220.1 297.5 172.4 298.1 124.7C298.1 124.2 298 123.8 297.9 123.3C294.6 123.3 291.4 123.3 288.2 123.3C287.8 124.3 288 125.3 288 126.3C288 229.2 288 332.2 288 435.1C288 437.4 288 439.6 288 441.9C288 442.4 288.1 442.8 288.2 443.3C291.3 443.3 294.3 443.3 297.6 443.3Z" fill="#2E48DA" fill-opacity="0.04"/>
<path d="M266.4 108C270.6 108 274.8 108 279 108C279.8 108 280.7 108.1 281.5 108.2C282.1 108.3 282.6 108.7 282.6 109.4C282.6 110 282.2 110.6 281.4 110.8C280.9 110.9 280.4 110.9 279.9 110.9C271.6 110.9 263.3 110.9 255 110.9C253.9 110.9 252.8 110.7 251.7 110.6C251.4 110.6 251 110.5 250.7 110.4C250.4 110.2 250 109.9 249.9 109.6C249.8 109 250.3 108.7 250.8 108.6C251.4 108.5 252 108.4 252.5 108.4C255.8 108.3 259.2 108.2 262.5 108.1C263.9 108 265.2 108 266.4 108Z" fill="#2E48DA" fill-opacity="0.04"/>
<path d="M266.4 122.9C270.6 122.9 274.8 122.9 279 122.9C279.8 122.9 280.7 123 281.5 123.1C282.1 123.2 282.6 123.6 282.6 124.3C282.6 124.9 282.2 125.5 281.4 125.7C280.9 125.8 280.4 125.8 279.9 125.8C271.6 125.8 263.3 125.8 255 125.8C253.9 125.8 252.8 125.6 251.7 125.5C251.4 125.5 251 125.4 250.7 125.3C250.4 125.1 250 124.8 249.9 124.5C249.8 123.9 250.3 123.6 250.8 123.5C251.4 123.4 252 123.3 252.5 123.3C255.8 123.2 259.2 123.1 262.5 123C263.9 122.9 265.2 122.9 266.4 122.9Z" fill="#2E48DA" fill-opacity="0.04"/>
<path d="M266.4 137.8C270.6 137.8 274.8 137.8 279 137.8C279.8 137.8 280.7 137.9 281.5 138C282.1 138.1 282.6 138.5 282.6 139.2C282.6 139.8 282.2 140.4 281.4 140.6C280.9 140.7 280.4 140.7 279.9 140.7C271.6 140.7 263.3 140.7 255 140.7C253.9 140.7 252.8 140.5 251.7 140.4C251.4 140.4 251 140.3 250.7 140.2C250.4 140 250 139.7 249.9 139.4C249.8 138.8 250.3 138.5 250.8 138.4C251.4 138.3 252 138.2 252.5 138.2C255.8 138.1 259.2 138 262.5 137.9C263.9 137.7 265.2 137.8 266.4 137.8Z" fill="#2E48DA" fill-opacity="0.04"/>
<path d="M266.4 152.7C270.6 152.7 274.8 152.7 279 152.7C279.8 152.7 280.7 152.8 281.5 152.9C282.1 153 282.6 153.4 282.6 154.1C282.6 154.7 282.2 155.3 281.4 155.5C280.9 155.6 280.4 155.6 279.9 155.6C271.6 155.6 263.3 155.6 255 155.6C253.9 155.6 252.8 155.4 251.7 155.3C251.4 155.3 251 155.2 250.7 155.1C250.4 154.9 250 154.6 249.9 154.3C249.8 153.7 250.3 153.4 250.8 153.3C251.4 153.2 252 153.1 252.5 153.1C255.8 153 259.2 152.9 262.5 152.8C263.9 152.6 265.2 152.7 266.4 152.7Z" fill="#2E48DA" fill-opacity="0.04"/>
<path d="M266.4 167.6C270.6 167.6 274.8 167.6 279 167.6C279.8 167.6 280.7 167.7 281.5 167.8C282.1 167.9 282.6 168.3 282.6 169C282.6 169.6 282.2 170.2 281.4 170.4C280.9 170.5 280.4 170.5 279.9 170.5C271.6 170.5 263.3 170.5 255 170.5C253.9 170.5 252.8 170.3 251.7 170.2C251.4 170.2 251 170.1 250.7 170C250.4 169.8 250 169.5 249.9 169.2C249.8 168.6 250.3 168.3 250.8 168.2C251.4 168.1 252 168 252.5 168C255.8 167.9 259.2 167.8 262.5 167.7C263.9 167.5 265.2 167.5 266.4 167.6C266.4 167.5 266.4 167.6 266.4 167.6Z" fill="#2E48DA" fill-opacity="0.04"/>
<path d="M266.4 182.4C270.6 182.4 274.8 182.4 279 182.4C279.8 182.4 280.7 182.5 281.5 182.6C282.1 182.7 282.6 183.1 282.6 183.8C282.6 184.4 282.2 185 281.4 185.2C280.9 185.3 280.4 185.3 279.9 185.3C271.6 185.3 263.3 185.3 255 185.3C253.9 185.3 252.8 185.1 251.7 185C251.4 185 251 184.9 250.7 184.8C250.4 184.6 250 184.3 249.9 184C249.8 183.4 250.3 183.1 250.8 183C251.4 182.9 252 182.8 252.5 182.8C255.8 182.7 259.2 182.6 262.5 182.5C263.9 182.4 265.2 182.4 266.4 182.4Z" fill="#2E48DA" fill-opacity="0.04"/>
<path d="M119.1 67.0001C119.1 66.3001 119.2 65.8001 119.2 65.3001C119.2 63.0001 119.2 60.6001 119.2 58.3001C119.2 57.6001 119.2 57.0001 119.3 56.3001C119.6 54.7001 120.6 53.8001 122.2 53.7001C123.5 53.6001 124.7 53.6001 126 53.6001C136.6 53.6001 147.1 53.5001 157.7 53.5001C158.6 53.5001 159.5 53.5001 160.6 53.4001C160.7 52.8001 160.8 52.4001 160.8 51.9001C160.8 36.1001 160.8 20.2001 160.8 4.40006C160.8 3.40006 161 2.40006 161.2 1.40006C161.3 0.900058 161.8 0.500057 162.3 0.700057C162.6 0.800057 163.1 1.20006 163.2 1.50006C163.4 2.40006 163.5 3.30006 163.6 4.20006C163.6 6.20006 163.6 8.20006 163.6 10.2001C163.6 21.9001 163.6 33.7001 163.6 45.4001C163.6 47.4001 163.5 49.4001 163.5 51.4001C163.5 52.0001 163.5 52.5001 163.5 53.2001C164.3 53.3001 165 53.4001 165.6 53.4001C168.2 53.4001 170.8 53.4001 173.4 53.5001C174.1 53.5001 174.7 53.5001 175.4 53.7001C175.9 53.8001 176.3 54.2001 176.4 54.7001C176.5 55.5001 176.6 56.4001 176.6 57.2001C176.6 59.5001 176.6 61.9001 176.6 64.2001C176.6 64.9001 176.7 65.7001 176.7 66.3001C177.7 66.8001 178.5 66.6001 179.3 66.6001C180.1 66.6001 180.8 66.6001 181.6 66.7001C183.4 67.0001 183.7 67.3 183.8 69.1001C183.9 70.7001 183.9 72.3001 183.9 73.9001C183.9 92.8001 184 111.8 184 130.7C184 140.5 184 150.3 183.9 160.1C183.9 161 183.9 161.9 183.9 162.8C184.3 163.1 184.6 163.3 184.9 163.4C201.7 172 218.6 180.7 235.4 189.3C236.4 189.8 237.4 190.2 238.4 190.5C239 190.7 239.4 191.1 239.5 191.7C239.6 192.6 239.7 193.5 239.7 194.5C239.8 206.2 239.9 217.8 239.9 229.5C239.9 296.5 239.8 363.5 239.8 430.4C239.8 434.8 239.8 439.1 239.8 443.5C239.8 444.2 239.8 444.8 239.7 445.5C239.6 446.5 238.8 447.1 237.9 446.7C236.4 446 234.8 446.2 233.2 446.2C195.8 446.2 158.4 446.1 121 446.1C119.7 446.1 118.3 446.1 117 446C116.1 446 115.4 445.9 114.7 446.7C114.3 447.2 113.5 446.9 113.3 446.3C113.1 445.5 112.9 444.7 112.9 443.8C112.8 441.1 112.8 438.4 112.7 435.8C112.6 409.6 112.6 383.5 112.5 357.3C112.5 306 112.4 254.7 112.4 203.4C112.4 159.1 112.5 114.9 112.5 70.6001C112.5 69.7001 112.5 68.8001 112.7 67.9001C112.8 67.1001 113.5 66.6001 114.4 66.8001C116.1 67.3001 117.5 67.0001 119.1 67.0001ZM180.8 70.1001C180.6 70.0001 180.6 69.9001 180.5 69.9001C180.3 69.8001 180.2 69.8001 180 69.8001C158.8 69.7001 137.6 69.6001 116.4 69.5001C116.3 69.5001 116.2 69.5001 116.2 69.5001C116.1 69.5001 116.1 69.6001 115.9 69.8001C115.9 70.2001 115.8 70.8001 115.8 71.3001C115.9 195.4 116 319.5 115.7 443.8C116.2 443.8 116.7 443.9 117.2 443.9C119.4 443.9 121.6 443.8 123.7 443.8C149.4 443.8 175.2 443.7 200.9 443.7C212 443.7 223 443.7 234.1 443.7C234.9 443.7 235.8 443.9 236.5 443.4C236.6 443.2 236.7 443.1 236.7 442.9C236.7 360.3 236.8 277.6 236.8 195C236.8 194.7 236.8 194.3 236.7 194C236.7 193.9 236.6 193.8 236.6 193.8C236.6 193.7 236.5 193.7 236.4 193.5C236 193.3 235.6 193 235.1 192.8C220.4 185.2 205.8 177.7 191.1 170.1C188.5 168.8 186 167.3 183.3 166C181.4 165.1 180.6 163.6 180.8 161.5C180.8 161.3 180.8 161 180.8 160.7C180.8 156.3 180.8 152 180.8 147.6C180.8 122.2 180.9 96.8001 180.9 71.4001C180.9 71.0001 180.9 70.5001 180.8 70.1001ZM121.6 66.9001C122.2 66.9001 122.7 66.9001 123.2 66.9001C138.4 66.8001 153.5 66.8 168.7 66.7001C170 66.7001 171.4 66.7001 172.7 66.7001C173.2 66.7001 173.6 66.5001 174.2 66.4001C174.2 64.6001 174.2 62.9001 174.2 61.3001C174.1 59.6001 174.5 57.8001 173.9 56.1001C156.4 56.0001 139 55.9001 121.7 55.9001C121.4 57.7001 121.3 63.9001 121.6 66.9001Z" fill="#2E48DA" fill-opacity="0.04"/>
<path d="M124.6 256.3C124.6 199 124.6 141.6 124.6 84.3C124.6 83.1 124.6 82 124.6 80.8C124.6 80.4 124.6 80 124.7 79.6C124.9 78.9 125.6 78.4 126.2 78.4C126.8 78.4 127.4 79 127.5 79.7C127.6 80.3 127.6 80.9 127.6 81.5C127.6 193.8 127.6 306.2 127.5 418.5C127.5 423.1 127.3 427.7 127.2 432.3C127.2 433 127.1 433.6 126.9 434.3C126.8 434.5 126.4 434.8 126.2 434.8C125.9 434.8 125.6 434.6 125.4 434.3C125.2 434 125.1 433.5 125.1 433.1C125 432.2 125 431.3 125 430.3C124.9 412.3 124.7 394.3 124.7 376.2C124.6 336.2 124.6 296.2 124.6 256.3Z" fill="#2E48DA" fill-opacity="0.04"/>
<path d="M135.5 256.3C135.5 199 135.5 141.6 135.5 84.3C135.5 83.1 135.5 82 135.5 80.8C135.5 80.4 135.5 80 135.6 79.6C135.8 78.9 136.5 78.4 137.1 78.4C137.7 78.4 138.3 79 138.4 79.7C138.5 80.3 138.5 80.9 138.5 81.5C138.5 193.8 138.5 306.2 138.4 418.5C138.4 423.1 138.2 427.7 138.1 432.3C138.1 433 138 433.6 137.8 434.3C137.7 434.5 137.3 434.8 137.1 434.8C136.8 434.8 136.5 434.6 136.3 434.3C136.1 434 136 433.5 136 433.1C135.9 432.2 135.9 431.3 135.9 430.3C135.8 412.3 135.6 394.3 135.6 376.2C135.5 336.2 135.6 296.2 135.5 256.3C135.6 256.3 135.5 256.3 135.5 256.3Z" fill="#2E48DA" fill-opacity="0.04"/>
<path d="M146.5 256.3C146.5 199 146.5 141.6 146.5 84.3C146.5 83.1 146.5 82 146.5 80.8C146.5 80.4 146.5 80 146.6 79.6C146.8 78.9 147.5 78.4 148.1 78.4C148.7 78.4 149.3 79 149.4 79.7C149.5 80.3 149.5 80.9 149.5 81.5C149.5 193.8 149.5 306.2 149.4 418.5C149.4 423.1 149.2 427.7 149.1 432.3C149.1 433 149 433.6 148.8 434.3C148.7 434.5 148.3 434.8 148.1 434.8C147.8 434.8 147.5 434.6 147.3 434.3C147.1 434 147 433.5 147 433.1C146.9 432.2 146.9 431.3 146.9 430.3C146.8 412.3 146.6 394.3 146.6 376.2C146.5 336.2 146.5 296.2 146.5 256.3Z" fill="#2E48DA" fill-opacity="0.04"/>
<path d="M157.5 256.3C157.5 199 157.5 141.6 157.5 84.3C157.5 83.1 157.5 82 157.5 80.8C157.5 80.4 157.5 80 157.6 79.6C157.8 78.9 158.5 78.4 159.1 78.4C159.7 78.4 160.3 79 160.4 79.7C160.5 80.3 160.5 80.9 160.5 81.5C160.5 193.8 160.5 306.2 160.4 418.5C160.4 423.1 160.2 427.7 160.1 432.3C160.1 433 160 433.6 159.8 434.3C159.7 434.5 159.3 434.8 159.1 434.8C158.8 434.8 158.5 434.6 158.3 434.3C158.1 434 158 433.5 158 433.1C157.9 432.2 157.9 431.3 157.9 430.3C157.8 412.3 157.6 394.3 157.6 376.2C157.5 336.2 157.5 296.2 157.5 256.3Z" fill="#2E48DA" fill-opacity="0.04"/>
<path d="M168.5 256.3C168.5 199 168.5 141.6 168.5 84.3C168.5 83.1 168.5 82 168.5 80.8C168.5 80.4 168.5 80 168.6 79.6C168.8 78.9 169.5 78.4 170.1 78.4C170.7 78.4 171.3 79 171.4 79.7C171.5 80.3 171.5 80.9 171.5 81.5C171.5 193.8 171.5 306.2 171.4 418.5C171.4 423.1 171.2 427.7 171.1 432.3C171.1 433 171 433.6 170.8 434.3C170.7 434.5 170.3 434.8 170.1 434.8C169.8 434.8 169.5 434.6 169.3 434.3C169.1 434 169 433.5 169 433.1C168.9 432.2 168.9 431.3 168.9 430.3C168.8 412.3 168.6 394.3 168.6 376.2C168.4 336.2 168.5 296.2 168.5 256.3Z" fill="#2E48DA" fill-opacity="0.04"/>
<path d="M71.7 444.5C70.9 444.5 70 444.5 69.1 444.5C51 444.5 32.9 444.4 14.8 444.4C13.9 444.4 13.2 444.4 12.6 445.2C12.3 445.6 11.6 445.5 11.3 445.1C10.9 444.5 10.5 443.9 10 443.1C10.6 442.1 10.8 441 10.8 439.9C10.7 404.4 10.6 368.8 10.7 333.3C10.7 278.7 10.8 224.2 10.8 169.6C10.8 165 10.8 160.4 10.8 155.8C10.8 154.3 10.9 152.8 11.5 151.3C13.2 151.2 14.9 151.5 16.6 151.1C16.9 148.9 16.2 146.5 17.9 144.3C19.1 144.2 20.6 144 22.2 143.8C22.2 142.6 22.2 141.7 22.2 140.7C22.2 139.9 22.2 139 22.3 138.2C22.5 136.8 23 136.4 24.4 136.3C25.6 136.2 26.7 136.2 28 136.2C28.1 135.6 28.2 135 28.2 134.5C28.3 132.7 28.2 131 28.3 129.2C28.4 127.5 28.8 127.1 30.4 127.1C31.9 127 33.4 127.1 34.9 127.1C35.4 127.1 35.9 127 36.4 127C36.9 125.7 36.8 124.3 36.8 123C36.8 122.6 36.7 122.2 36.7 121.8C36.7 121 37.1 120.5 37.9 120.4C38.5 120.3 39.2 120.2 40 120.1C40.1 117.8 40 115.7 40 113.5C40 111.4 40 109.3 40 107.2C40 105 40 102.8 40 100.7C40 98.6 39.9 96.5 39.9 94.7C40.8 93.5 42 94.3 43 93.5C43 92.7 43.1 91.8 43.1 90.9C43.1 80.4 43.1 69.9 43.1 59.5C43.1 58.2 43.1 56.8 43.2 55.5C43.2 55 43.4 54.5 43.6 54.1C43.7 53.9 44 53.8 44.2 53.8C44.3 53.8 44.6 53.9 44.6 54C44.8 54.5 45 54.9 45.1 55.4C45.2 56.4 45.2 57.4 45.2 58.4C45.2 69.2 45.2 80 45.2 90.8C45.2 91.7001 45.2 92.6 45.3 93.5C46.5 94.2 47.9 93.5 49.1 94.4C49.5 95.5 49.4 96.8 49.4 98C49.4 104.4 49.4 110.7 49.5 117.1C49.5 118 49.5 118.9 49.5 120C50 120.2 50.3 120.4 50.7 120.5C51.4 120.7 51.8 121.2 51.8 122C51.9 123.5 51.9 125 51.9 126.6C52.5 126.7 52.9 126.8 53.4 126.8C54.7 126.8 55.9 126.8 57.2 126.8C60.2 126.9 60.4 127.1 60.6 130.2C60.7 131.6 60.6 133 60.7 134.5C60.7 135.1 60.8 135.6 60.9 136.4C61.9 136.5 62.8 136.5 63.7 136.6C64.6 136.7 64.9 136.9 65.1 137.8C65.3 138.7 65.4 139.6 65.4 140.5C65.5 141.5 65.4 142.5 65.4 143.5C65.4 143.6 65.5 143.7 65.6 143.9C66.1 144 66.8 144.1 67.4 144.3C69 144.8 69.5 145.5 69.6 147.2C69.6 148.5 69.6 149.9 69.6 151.3C70.5 151.4 71.2 151.4 71.9 151.5C73.3 151.6 74.4 152.5 74.8 153.9C75 154.5 75 155.2 75 155.9C75.1 157.7 75.1 159.6 75.1 161.4C75.2 210.4 75.4 259.3 75.4 308.3C75.4 353.3 75.4 398.3 75.3 443.3C75.3 444.1 75.3 444.8 75.2 445.6C75.1 446.2 74.9 446.7 74.2 446.9C73.6 447.1 73 446.9 72.5 446.1C72.4 445.9 72.3 445.6 72.2 445.4C72.1 444.8 72 444.7 71.7 444.5ZM13.2 153.4C13.2 159 13.2 164.2 13.2 169.5C13.3 205.7 13.3 241.9 13.4 278.1C13.4 325 13.4 372 13.4 418.9C13.4 425.8 13.3 432.6 13.2 439.5C13.2 440.2 12.9 441 13.7 441.7C14.1 441.7 14.6 441.7 15.1 441.7C26.7 441.6 38.2 441.6 49.8 441.5C56.3 441.5 62.9 441.5 69.4 441.5C70.3 441.5 71.2 441.7 72.3 441C72.4 409.2 72.2 377.3 72.2 345.4C72.2 313.4 72.3 281.4 72.4 249.3C72.5 217.4 72.5 185.5 72.5 153.4C53.1 153.3 33.9 153.2 14.6 153.1C14.2 153.3 13.8 153.3 13.2 153.4ZM67.2 150.8C67.3 149.2 67.2 147.8 67 146.3C66 145.9 65.1 146.1 64.2 146.1C49.5 146 34.7 145.9 20 145.9C19.5 145.9 19.1 146 18.5 146.1C18.8 147.8 18.4 149.4 18.8 151C34.6 151 50.4 151 66.1 151C66.5 151 66.8 150.9 67.2 150.8ZM63.2 138.1C61.8 138.1 60.6 138.1 59.5 138.1C48.3 138.1 37 138 25.8 138C25.3 138 24.9 138.1 24.2 138.2C24.2 140.1 24 141.8 24.3 143.7C25.2 143.7 25.9 143.8 26.6 143.8C35.9 143.8 45.2 143.7 54.5 143.6C56.9 143.6 59.4 143.6 61.8 143.6C62.3 143.6 62.7 143.4 63.2 143.3C63.2 141.6 63.2 140 63.2 138.1ZM39.3 122.1C39.2 122.5 39.1 122.7 39.1 123C39.1 126.9 39.1 130.9 39.1 134.8C39.1 135.2 39.3 135.6 39.4 136C42.8 136 46 136 49.3 136C49.5 136 49.7 135.8 50 135.7C50 131.5 50 127.3 50 123.1C50 122.8 49.8 122.5 49.7 122.1C46.1 122.1 42.8 122.1 39.3 122.1ZM42.5 95.5C42.3 95.8 42.2 96.0001 42.2 96.1001C42.2 96.3001 42.1 96.6 42.1 96.8C42.1 104.3 42.1 111.8 42.2 119.3C42.2 119.4 42.2 119.5 42.3 119.5C42.3 119.6 42.4 119.6 42.7 119.8C44.1 119.8 45.6 120 47.3 119.7C47.4 119.1 47.4 118.6 47.4 118.1C47.4 110.9 47.5 103.7 47.5 96.6001C47.5 96.2001 47.3 95.8 47.2 95.4C45.6 95.5 44.1 95.5 42.5 95.5ZM37 135.9C37 135.2 37.1 134.8 37.1 134.4C37 132.6 36.8 130.7 36.7 129C34.7 128.5 32.4 128.5 30.4 129C30.3 131.3 30.2 133.6 30.5 135.9C32.7 136.1 34.7 136.1 37 135.9ZM58.5 136C58.5 133.7 58.6 131.7 58.6 129.7C58.6 129.4 58.5 129.1 58.5 128.8C56 128.4 53.7 128.4 51.9 128.9C51.7 131.2 51.8 133.5 51.8 135.9C52.4 136 52.8 136.1 53.2 136.1C54.9 136 56.5 136 58.5 136Z" fill="#2E48DA" fill-opacity="0.04"/>
<path d="M21.3999 162.2C21.8999 162.2 22.4999 162.1 22.9999 162.1C35.5999 162 48.2999 161.9 60.8999 161.8C61.5999 161.8 62.3999 161.9 63.0999 162C63.5999 162.1 63.8999 162.5 63.8999 163.1C63.6999 180.7 63.9999 198.3 63.7999 215.8C63.7999 216.2 63.7999 216.6 63.7999 217.1C63.6999 219.2 62.5999 220 60.5999 220C49.1999 219.9 37.7999 219.9 26.3999 219.9C24.7999 219.9 23.1999 219.8 21.5999 219.6C20.3999 219.5 19.7999 218.9 19.5999 217.7C19.4999 217 19.4999 216.2 19.4999 215.4C19.4999 204.4 19.3999 193.5 19.3999 182.5C19.3999 177.1 19.3999 171.8 19.3999 166.4C19.4999 164.8 19.8999 163.4 21.3999 162.2ZM61.3999 176.5C61.3999 175 61.3999 173.7 61.3999 172.3C61.3999 171 61.4999 169.6 61.3999 168.3C61.3999 167 61.5999 165.7 61.3999 164.4C58.5999 164 50.7999 164.1 48.6999 164.5C48.4999 165.8 48.5999 167.1 48.5999 168.4C48.5999 169.7 48.5999 171.1 48.5999 172.4C48.5999 173.7 48.3999 175 48.8999 176.4C53.0999 176.5 57.0999 176.5 61.3999 176.5ZM61.1999 203.4C61.2999 203.1 61.3999 202.8 61.3999 202.5C61.3999 199.1 61.3999 195.7 61.3999 192.2C61.3999 191.9 61.1999 191.6 61.0999 191.3C57.3999 191.3 53.7999 191.3 50.2999 191.3C49.7999 191.3 49.3999 191.5 48.9999 191.6C48.6999 195 48.7999 201.7 49.0999 203.5C50.7999 203.9 58.1999 203.9 61.1999 203.4ZM61.0999 206.6C58.6999 206.1 51.0999 206.1 48.7999 206.5C48.5999 207.7 48.6999 208.9 48.5999 210.1C48.5999 211.3 48.4999 212.4 48.4999 213.6C48.4999 214.8 48.1999 216.1 48.5999 217.2C51.0999 217.6 59.0999 217.6 61.0999 217.1C61.5999 215.2 61.5999 208.6 61.0999 206.6ZM21.7999 191.5C21.6999 193.5 21.6999 195.6 21.6999 197.7C21.6999 199.7 21.3999 201.8 21.8999 203.8C24.8999 204.1 30.6999 204 32.5999 203.6C32.9999 202.3 32.7999 201 32.7999 199.7C32.7999 198.3 32.8999 196.9 32.7999 195.4C32.7999 194.1 32.9999 192.8 32.5999 191.5C30.4999 191.1 23.4999 191.1 21.7999 191.5ZM22.0999 176.5C25.9999 176.8 30.9999 176.6 32.7999 176.2C33.1999 174.9 32.9999 173.6 32.9999 172.2C32.9999 170.9 32.9999 169.5 32.9999 168.2C32.9999 166.9 33.1999 165.6 32.7999 164.3C30.3999 164 23.7999 163.9 21.9999 164.1C21.5999 166.6 21.6999 174.7 22.0999 176.5ZM35.2999 203.5C37.0999 204.2 38.9999 203.8 40.7999 203.8C42.5999 203.8 44.3999 204.2 46.1999 203.5C46.5999 200.1 46.3999 193.1 45.9999 191.3C44.2999 191.3 42.5999 191.2 40.7999 191.3C38.9999 191.4 37.1999 190.9 35.3999 191.6C35.2999 195.6 35.2999 199.5 35.2999 203.5ZM46.0999 164.3C44.1999 164.3 42.4999 164.2 40.6999 164.2C38.8999 164.3 37.0999 163.8 35.2999 164.4C34.9999 167.1 35.0999 174.5 35.3999 176.2C37.2999 176.7 43.9999 176.7 45.9999 176.2C46.3999 174.5 46.4999 167 46.0999 164.3ZM21.9999 206.1C21.5999 208.6 21.5999 215.7 21.9999 217.4C24.4999 217.7 31.2999 217.6 32.8999 217.2C33.1999 214.9 32.9999 207.9 32.5999 206.3C30.7999 206 25.0999 205.9 21.9999 206.1ZM35.2999 217.5C37.2999 217.5 39.0999 217.6 40.8999 217.5C42.6999 217.4 44.4999 217.8 46.2999 217.2C46.4999 214.5 46.3999 208 46.0999 206.4C43.9999 205.9 37.2999 205.9 35.4999 206.4C35.1999 208.2 35.0999 214.7 35.2999 217.5ZM61.2999 178.9C57.6999 178.5 50.3999 178.7 48.8999 179.1C48.5999 181.9 48.5999 187.1 49.0999 188.8C50.9999 189.1 59.5999 189.1 61.4999 188.8C61.3999 185.5 61.4999 182.3 61.2999 178.9ZM32.6999 179C30.7999 178.6 24.0999 178.5 21.9999 178.9C21.5999 180 21.7999 181.2 21.7999 182.3C21.7999 183.4 21.7999 184.5 21.7999 185.6C21.8999 186.7 21.4999 187.9 22.0999 189C23.2999 189.3 24.4999 189.1 25.5999 189.1C26.8999 189.1 28.0999 189.1 29.3999 189.1C30.4999 189 31.6999 189.4 32.7999 188.8C33.0999 186.1 32.9999 181 32.6999 179ZM35.2999 189C36.7999 189 37.8999 189 39.0999 189C40.3999 189 41.5999 189 42.8999 189C43.9999 188.9 45.1999 189.3 46.3999 188.6C46.3999 185.4 46.5999 182.1 46.2999 178.8C44.9999 178.5 43.8999 178.6 42.6999 178.6C41.3999 178.6 40.1999 178.6 38.8999 178.6C37.7999 178.6 36.5999 178.4 35.2999 178.8C35.0999 182.2 35.1999 185.4 35.2999 189Z" fill="#2E48DA" fill-opacity="0.04"/>
<path d="M440 93.8001C441.4 93.4001 442.7 92.8001 443.9 92.6001C446.6 92.1001 449.2 92.5001 451.8 93.5001C454.8 94.6001 457.6 96.2001 459.8 98.5001C460 98.7001 460.3 99.0001 460.6 99.2001C461.1 99.1001 461.5 98.9001 462 98.9001C462.7 98.8001 463.5 98.7001 464.2 98.8001C466.6 99.3001 468.8 100.3 470.5 102.2C471.9 103.7 472.3 105.6 472.1 107.6C472 108.6 471.5 109.1 470.5 109.1C469.1 109.2 467.7 109.2 466.2 109.2C435.6 109.3 405 109.3 374.5 109.4C371.7 109.4 368.8 109.4 366 109.4C365.4 109.4 364.8 109.4 364.2 109.3C363.2 109.2 362.8 108.5 363.3 107.5C363.7 106.7 364.1 105.8 364.6 105.1C367 101 370.6 98.5001 375.4 97.6001C377.5 97.2001 379.6 97.2001 381.7 97.4001C382.7 97.5001 383.7 97.6001 384.7 97.7001C385.5 96.9001 385.8 95.9001 386.3 95.1001C387.7 92.5001 389.4 90.1001 391.5 88.0001C392.2 87.3001 392.9 86.6001 393.8 86.0001C401.2 80.9001 409.2 78.4001 418.2 79.6001C422.4 80.2001 426.2 81.9001 429.8 84.1001C431.9 85.4001 433.9 87.0001 435.9 88.6001C436.9 89.4001 437.7 90.6001 438.6 91.6001C439.1 92.3001 439.5 93.1001 440 93.8001ZM366.4 107.1C401.1 107 435.2 106.8 469.4 106.7C469.5 104.9 469.2 104.3 467.8 103.2C465.6 101.5 463.2 100.4 460.3 101.8C459.1 100.9 457.9 100.1 456.8 99.2001C454.6 97.6001 452.3 96.2001 449.7 95.5001C446.6 94.7001 443.5 94.2001 440.5 96.4001C439.4 97.2001 438.5 96.9001 437.7 95.8001C437.1 94.9001 436.5 94.0001 435.9 93.1001C435.4 92.4001 434.9 91.7001 434.3 91.2001C429.8 87.0001 424.6 84.1001 418.6 82.6001C409.8 80.5001 398.5 84.7001 393.5 89.5001C392.9 90.1001 392.3 90.6001 391.8 91.3001C390.7 92.8001 389.6 94.3001 388.6 95.8001C388 96.7001 387.5 97.7001 387 98.6001C386.4 99.7001 385.4 100.3 384.1 100.3C383.1 100.3 382.1 100.2 381.1 100.1C380.2 100 379.3 99.9001 378.3 99.9001C373.6 100 369.7 101.7 366.9 105.7C366.8 105.9 366.8 106.3 366.4 107.1Z" fill="#2E48DA" fill-opacity="0.04"/>
<path d="M65.1 18.0001C65.6 17.7001 66.1 17.3001 66.7 17.0001C70.6 14.6001 74.6 14.9001 78.3 17.3001C81.3 19.2001 83.1 22.1001 83.9 25.6001C84.1 26.4001 84.3 27.2001 84.4 28.0001C84.8 28.1001 85.2 28.1001 85.5 28.2001C88.8 28.5001 90.8 30.4001 92 33.3001C92.6 34.8001 92.9 36.4001 92.8 38.0001C92.8 39.9001 91.9 40.8001 90 40.8001C88.9 40.8001 87.8 40.7001 86.7 40.7001C72.8 40.4001 58.9 40.1001 45 39.8001C36.2 39.6001 27.4 39.4001 18.6 39.2001C16.1 39.1001 13.6 39.0001 11.1 38.8001C8.49999 38.6001 7.79998 37.6001 8.79998 35.2001C10.3 31.5001 14.4 29.1001 18.3 29.6001C19 29.7001 19.6 29.8001 20.4 29.8001C20.7 29.2001 20.9 28.7001 21.1 28.2001C22.6 24.6001 24.5 21.3001 27.1 18.4001C31 14.0001 35.9 11.4001 41.8 10.6001C46 10.0001 50.1 10.2001 54.2 11.3001C57.8 12.3001 60.8 14.1001 63.4 16.7001C63.7 17.1001 64.1 17.4001 64.5 17.8001C64.8 17.9001 64.9 17.9001 65.1 18.0001ZM90.4 38.1001C90.4 37.3001 90.5 36.8001 90.4 36.3001C89.9 32.7001 88 30.8001 84.3 30.5001C84.2 30.5001 84.1 30.5001 84 30.5001C82.6 30.4001 82.1 29.9001 81.8 28.6001C81.6 27.7001 81.5 26.8001 81.3 25.9001C80.6 22.9001 78.8 20.6001 76.1 19.1001C73.5 17.6001 70.7 17.5001 67.9 19.0001C66.7 19.6001 65.6 20.4001 64.6 21.0001C63.3 20.8001 62.7 20.0001 62.1 19.2001C59.7 16.4001 56.7 14.7001 53.3 13.8001C49.4 12.7001 45.5 12.8001 41.6 13.3001C36.1 14.1001 31.7 16.8001 28.3 21.1001C26.3 23.5001 24.8 26.2001 23.5 29.0001C21.9 32.3001 21.9 32.3001 18.4 32.0001C15.5 31.8001 13.4 32.9001 11.7 35.2001C11.5 35.5001 11.2 35.9001 11.7 36.5001C37.8 36.6001 64 37.8001 90.4 38.1001Z" fill="#2E48DA" fill-opacity="0.04"/>
<path d="M254.7 41.4001C255.4 41.3001 255.9 41.3001 256.5 41.2001C258.2 40.7001 259.8 41.0001 261.4 41.7001C265.8 43.6001 268.4 47.0001 269.3 51.7001C269.7 53.5001 268.3 55.2001 266.3 55.1001C262.7 54.9001 259.1 55.0001 255.5 55.0001C243.2 55.0001 230.9 55.0001 218.6 55.0001C216.9 55.0001 215.2 55.0001 213.6 54.9001C210.1 54.5001 209.8 54.7001 210.2 50.7001C210.6 46.2001 213.9 44.3001 217 43.6001C218.3 43.3001 219.4 44.0001 220.8 44.2001C221 43.8001 221.2 43.4001 221.4 42.9001C222.4 39.7001 224.5 37.3001 227.2 35.6001C230.6 33.4001 234.3 32.2001 238.4 32.4001C242 32.6001 245.4 33.3001 248.6 34.8001C251 35.9001 252.8 37.5001 254 39.8001C254.1 40.3001 254.4 40.8001 254.7 41.4001ZM212.8 52.2001C213.4 52.2001 213.8 52.2001 214.2 52.2001C218.1 52.1001 222.1 52.0001 226 52.0001C236.8 52.0001 247.6 52.1001 258.4 52.1001C260.5 52.1001 262.6 52.0001 264.7 52.0001C265.2 52.0001 265.7 51.8001 266.2 51.7001C266 51.0001 265.9 50.4001 265.7 49.9001C265.5 49.3001 265.2 48.6001 264.8 48.1001C263.5 46.2001 261.9 44.6001 259.6 43.9001C257.7 43.3001 255.8 43.4001 254.1 44.6001C253.5 45.0001 252.8 44.8001 252.4 44.1001C252.1 43.5001 251.9 42.9001 251.6 42.3001C250.7 40.2001 249.4 38.6001 247.3 37.6001C245 36.5001 242.7 35.7001 240.1 35.4001C236.4 34.9001 232.7 35.3001 229.4 37.1001C226.6 38.6001 224.4 40.7001 223.3 43.8001C223.1 44.4001 222.9 45.1001 222.6 45.7001C222 46.8001 221.1 47.2001 219.9 46.9001C219.4 46.8001 218.9 46.6001 218.5 46.4001C217.6 46.1001 216.7 46.2001 215.8 46.5001C213.7 47.5001 212.7 49.2001 212.8 52.2001Z" fill="#2E48DA" fill-opacity="0.04"/>
</svg>
